# Blender v2.82 (sub 7) OBJ File: 'DungeonGroblinBlendfile.blend'
# www.blender.org
mtllib GroundRock6.mtl
o Wall_Rock.033_Cube.118
v 32.095600 -20.000778 7.000510
v 12.309464 41.672909 6.006704
v -22.445633 57.267548 8.208756
v -20.901707 66.044083 -6.063450
v 15.665771 -64.120087 -6.063768
v -74.736397 4.294621 -6.061957
v -61.234795 11.853360 3.747244
v 11.732153 -50.819511 5.620730
v 37.088684 53.164204 -6.063179
v -32.395485 -12.038978 10.138172
v -6.023521 18.028316 10.599241
v 52.401764 -13.669374 -6.066671
v -41.508785 -51.904778 -6.063296
v -36.098660 -33.762360 4.562521
v 40.050140 1.978850 2.891797
vt 0.472971 0.032191
vt 0.373127 0.241999
vt 0.375000 0.010420
vt 0.604541 0.155112
vt 0.466878 0.162597
vt 0.611185 0.310970
vt 0.473992 0.277567
vt 0.493339 0.421377
vt 0.659349 0.425931
vt 0.327693 0.446401
vt 0.545731 0.850873
vt 0.499217 0.928946
vt 0.303931 0.765554
vt 0.638196 0.814412
vt 0.608975 0.979970
vt 0.477941 1.000000
vt 0.348640 0.835375
vt 0.374492 0.990758
vt 0.831440 0.513590
vt 0.675204 0.737322
vt 0.562610 0.579321
vt 0.875000 0.596432
vt 0.851090 0.728710
vt 0.607874 0.019417
vt 0.147762 0.523502
vt 0.327956 0.481041
vt 0.133638 0.740028
vn -0.1745 0.0524 0.9833
vn 0.0421 -0.0522 0.9977
vn 0.1817 0.0499 0.9821
vn 0.3616 0.1809 0.9146
vn 0.7053 0.1616 0.6902
vn 0.1840 0.8283 0.5292
vn -0.5230 -0.3092 0.7943
vn -0.1025 -0.4798 0.8714
vn -0.1037 -0.2307 0.9675
vn -0.4753 -0.2468 0.8445
vn 0.3419 -0.2489 0.9062
vn 0.5748 -0.3466 -0.7413
vn -0.0587 0.0362 0.9976
vn 0.0397 -0.0709 0.9967
vn 0.2009 0.1093 0.9735
vn 0.1103 0.1064 0.9882
vn 0.2393 0.4090 0.8806
vn -0.2576 -0.6796 0.6869
vn -0.3501 -0.1764 0.9200
vn -0.7174 0.6254 0.3070
vn -0.6729 0.5233 0.5229
vn 0.7001 -0.3431 0.6262
usemtl None
s off
f 10/1/1 3/2/1 7/3/1
f 10/1/2 1/4/2 11/5/2
f 11/5/3 15/6/3 2/7/3
f 2/7/4 15/6/4 9/8/4
f 15/6/5 12/9/5 9/8/5
f 3/2/6 9/8/6 4/10/6
f 13/11/7 14/12/7 6/13/7
f 5/14/8 14/12/8 13/11/8
f 14/12/9 8/15/9 10/16/9
f 6/17/10 14/12/10 7/18/10
f 15/19/11 5/20/11 12/21/11
f 15/19/12 1/22/12 8/23/12
f 10/1/13 11/5/13 3/2/13
f 10/1/14 8/24/14 1/4/14
f 11/5/15 1/4/15 15/6/15
f 11/5/16 2/7/16 3/2/16
f 3/2/17 2/7/17 9/8/17
f 5/14/18 8/15/18 14/12/18
f 14/12/19 10/16/19 7/18/19
f 3/25/20 4/26/20 6/13/20
f 3/25/21 6/13/21 7/27/21
f 15/19/22 8/23/22 5/20/22
