# Blender v2.82 (sub 7) OBJ File: 'DungeonGroblinBlendfile.blend'
# www.blender.org
mtllib GroundRock1.mtl
o Wall_Rock.032_Cube.117
v -81.798119 -30.053772 -8.163542
v -66.405258 67.500717 -4.926898
v -14.136607 81.754814 -3.795525
v -10.993390 75.888756 3.898128
v -12.945731 -95.604378 -0.893766
v 5.809057 -5.147167 12.410812
v 67.051613 -17.079777 -0.038440
v 60.778717 -9.136001 -5.028468
v -40.818340 -89.773262 -8.868228
v -78.688210 75.183327 6.071125
v -54.185669 4.845855 8.980708
v 37.728004 -79.882011 3.261025
v 51.685463 -88.788918 -6.861872
v -101.008926 9.744775 -6.825545
vt 0.473992 0.277567
vt 0.611185 0.310970
vt 0.493339 0.421377
vt 0.659349 0.425931
vt 0.373127 0.241999
vt 0.327693 0.446401
vt 0.439918 0.654725
vt 0.327956 0.481041
vt 0.303931 0.765554
vt 0.545731 0.850873
vt 0.499217 0.928946
vt 0.675204 0.737322
vt 0.638196 0.814412
vt 0.348640 0.835375
vt 0.374492 0.990758
vt 0.831440 0.513590
vt 0.562610 0.579321
vt 0.875000 0.596432
vt 0.851090 0.728710
vt 0.608975 0.979970
vt 0.147762 0.523502
vt 0.133638 0.740028
vn -0.5068 0.3298 -0.7964
vn -0.3259 -0.0746 0.9424
vn 0.0111 0.7973 0.6034
vn 0.0307 0.1107 0.9934
vn 0.2246 0.1477 0.9632
vn 0.4958 -0.1869 0.8481
vn -0.0385 -0.1376 0.9897
vn 0.1374 -0.6420 0.7543
vn 0.5839 -0.0480 -0.8104
vn -0.3327 -0.2266 0.9154
vn -0.1062 -0.0846 0.9907
vn -0.1768 0.7032 -0.6887
vn -0.0533 0.0227 0.9983
vn -0.0780 -0.1292 0.9885
vn 0.1919 -0.0381 0.9807
vn 0.0220 -0.7687 -0.6392
vn 0.7583 0.6294 0.1701
vn 0.7713 0.6351 0.0416
vn -0.3087 -0.2058 0.9286
usemtl None
s off
f 2/1/1 14/2/1 10/3/1
f 14/2/2 11/4/2 10/3/2
f 3/5/3 10/3/3 4/6/3
f 10/3/4 6/7/4 4/8/4
f 4/8/5 6/7/5 7/9/5
f 12/10/6 13/11/6 7/9/6
f 5/12/7 12/10/7 6/7/7
f 5/13/8 13/11/8 12/10/8
f 7/14/9 13/11/9 8/15/9
f 14/16/10 5/12/10 11/17/10
f 14/16/11 1/18/11 9/19/11
f 3/5/12 2/1/12 10/3/12
f 10/3/13 11/17/13 6/7/13
f 11/17/14 5/12/14 6/7/14
f 6/7/15 12/10/15 7/9/15
f 5/13/16 9/20/16 13/11/16
f 3/21/17 4/8/17 7/9/17
f 3/21/18 7/9/18 8/22/18
f 14/16/19 9/19/19 5/12/19
