# Blender v2.82 (sub 7) OBJ File: 'DungeonGroblinBlendfile.blend'
# www.blender.org
mtllib Crystal_01.mtl
o Cube_Cube.085
v 6.798918 9.427273 10.225183
v -2.506217 1.571895 38.196388
v 4.414468 -6.210574 -3.630409
v 3.296613 -12.386805 10.793828
v -9.845299 3.607077 3.676641
v 10.830622 1.279125 0.794040
v 1.578389 11.656900 2.177983
v -0.292158 -7.001308 -4.230258
v -7.450710 -6.197354 -1.711205
v -3.787725 11.416386 12.531053
v -7.987032 1.826924 -4.078559
v 0.869188 -11.143261 24.325041
v 7.098001 4.370968 -4.305662
v -5.127250 -9.937898 11.087041
v -4.057673 8.277962 26.096735
v 0.425002 -4.104284 36.876640
v 9.548683 0.554019 26.926073
v -9.233667 -1.010411 24.663506
v -4.597228 7.698465 -3.685928
v 2.233328 3.500618 37.149429
v 1.167250 11.615936 24.158623
vt 0.452941 0.140727
vt 0.611129 0.255829
vt 0.424377 0.273008
vt 0.256150 0.725706
vt 0.137239 0.636816
vt 0.269172 0.542179
vt 0.524008 0.861785
vt 0.468362 0.836187
vt 0.489413 0.722131
vt 0.636285 0.434165
vt 0.507922 0.278357
vt 0.411013 0.437935
vt 0.705728 0.568158
vt 0.831968 0.543296
vt 0.774108 0.718366
vt 0.577087 0.100754
vt 0.490560 0.033498
vt 0.574466 0.006199
vt 0.463344 0.551110
vt 0.378698 0.615962
vt 0.386435 0.873554
vt 0.453429 0.995449
vt 0.375000 1.000000
vt 0.559638 0.489920
vt 0.587382 0.644043
vt 0.492835 0.922114
vt 0.589328 0.957967
vt 0.531250 1.000000
vt 0.676302 0.749077
vt 0.570575 0.769249
vt 0.625322 0.843143
vt 0.206381 0.502380
vt 0.315986 0.494372
vt 0.375000 0.218857
vt 0.856139 0.665803
vn -0.0652 -0.9155 -0.3970
vn 0.8846 -0.4654 0.0305
vn -0.2166 0.8199 0.5300
vn -0.3465 -0.2867 -0.8932
vn -0.0157 0.0035 -0.9999
vn -0.9739 -0.2261 -0.0214
vn -0.9710 -0.1251 -0.2039
vn -0.6822 -0.6884 0.2463
vn -0.2777 -0.9599 0.0384
vn 0.6636 0.7106 -0.2336
vn 0.1421 -0.0989 -0.9849
vn 0.7542 0.6232 0.2069
vn 0.7667 -0.6120 0.1938
vn 0.0804 -0.8604 0.5032
vn -0.0291 0.0834 -0.9961
vn -0.0427 0.9991 0.0011
vn -0.6573 -0.6670 0.3508
vn 0.9191 0.3901 0.0559
vn -0.8758 0.4738 0.0922
vn -0.3333 0.8059 0.4894
vn -0.8430 0.4174 0.3394
vn -0.3990 0.8979 -0.1859
vn 0.2512 -0.0943 0.9633
vn -0.2793 -0.9341 -0.2223
vn -0.4779 0.8578 0.1889
vn -0.7401 -0.4894 0.4613
vn -0.8516 0.5062 0.1362
vn -0.8149 0.4910 -0.3080
vn -0.7117 0.6916 -0.1230
vn 0.7701 0.6073 -0.1955
vn 0.7168 -0.2239 -0.6604
vn 0.7110 0.6212 0.3297
vn 0.7071 -0.6058 0.3647
vn 0.3812 0.9245 0.0089
vn 0.7976 -0.5744 -0.1842
vn -0.8906 -0.4538 0.0290
vn 0.7673 -0.2043 0.6079
vn 0.1706 0.7240 -0.6684
usemtl None
s off
f 4/1/1 9/2/1 3/3/1
f 17/4/2 4/5/2 6/6/2
f 2/7/3 20/8/3 21/9/3
f 11/10/4 8/11/4 9/2/4
f 8/11/5 11/10/5 13/12/5
f 5/13/6 9/14/6 18/15/6
f 11/10/7 9/14/7 5/13/7
f 14/16/8 12/17/8 18/18/8
f 12/17/9 14/16/9 4/1/9
f 13/12/10 7/19/10 1/20/10
f 13/12/11 3/3/11 8/11/11
f 21/9/12 17/21/12 1/20/12
f 17/21/13 12/22/13 4/23/13
f 3/3/14 9/2/14 8/11/14
f 11/10/15 19/24/15 13/12/15
f 7/19/16 10/25/16 21/9/16
f 16/26/17 18/27/17 12/28/17
f 1/20/18 17/4/18 6/6/18
f 10/25/19 18/15/19 15/29/19
f 21/9/20 15/30/20 2/7/20
f 2/7/21 15/30/21 18/31/21
f 7/19/22 19/24/22 10/25/22
f 16/26/23 20/8/23 2/7/23
f 14/16/24 9/2/24 4/1/24
f 10/25/25 15/30/25 21/9/25
f 18/27/26 16/26/26 2/7/26
f 10/25/27 5/13/27 18/15/27
f 11/10/28 5/13/28 19/24/28
f 10/25/29 19/24/29 5/13/29
f 13/12/30 1/20/30 6/6/30
f 3/32/31 13/33/31 6/6/31
f 21/9/32 20/8/32 17/21/32
f 16/26/33 12/22/33 17/21/33
f 7/19/34 21/9/34 1/20/34
f 6/34/35 4/1/35 3/3/35
f 9/14/36 14/35/36 18/15/36
f 20/8/37 16/26/37 17/21/37
f 7/19/38 13/12/38 19/24/38
