# Blender v2.82 (sub 7) OBJ File: 'DungeonGroblinBlendfile.blend'
# www.blender.org
mtllib Grass_Clump_02.mtl
o Grass_Clump_02_Plane.039
v -0.199983 3.177364 -4.398595
v -36.413490 13.761070 36.167976
v -21.777512 5.631336 25.523407
v -6.867075 -0.926393 7.648682
v -21.667349 10.426128 26.726383
v -6.395124 5.897186 9.965935
v -49.565651 -17.407846 30.912939
v -30.778673 -15.224542 22.596457
v -12.565338 -12.604982 6.774051
v -29.948217 -11.686285 21.487675
v 0.806040 -7.503428 -3.906490
v -15.841213 -13.060988 26.787569
v -18.043976 -10.973612 27.521824
v -24.953197 -1.436662 36.933685
v -14.360615 -2.242860 23.536573
v -5.561990 -3.450134 3.635675
v -13.992023 0.287679 22.020447
v -3.956906 -3.985816 -3.190302
v -22.840359 -16.781992 20.493473
v -15.195206 -13.129505 15.561960
v -5.450195 -8.525204 4.993836
v -14.912444 -9.639899 13.070807
v -36.214554 -11.488206 28.607046
v -22.478111 -9.668430 19.235907
v -5.623742 -7.503467 -1.637439
v -22.124496 -6.868572 18.015278
v -1.985597 -8.055434 0.933908
v 7.468542 -11.881283 20.587393
v 6.843569 -15.573226 24.346336
v 1.275078 -0.729095 -3.793246
v 39.659229 4.378805 36.828388
v 9.712810 1.579027 9.267199
v 10.533607 -6.469609 7.445573
v 28.747707 -1.225140 27.599218
v -2.180883 -1.877466 -3.906274
v -36.081383 13.929478 38.385563
v -21.813572 5.953797 28.035818
v -21.477123 10.686710 29.054594
v -5.128905 5.805233 10.846922
v -5.557392 -11.182805 -4.491279
v -6.844209 -7.151561 -2.547440
v -49.304462 -17.194084 33.183052
v -30.580685 -15.034079 24.900646
v -32.986553 -12.274154 25.558117
v -11.970249 -12.373367 8.668837
v -14.183381 -7.908520 10.123455
v 1.609589 -10.446678 0.024208
v -29.481056 -15.423049 38.654449
v -15.607495 -12.870046 29.076433
v -15.523237 -10.003994 27.598629
v -1.573092 -10.715384 9.488903
v -3.353508 -7.169140 8.136158
v -6.205138 -0.025495 2.829134
v -14.131223 -2.049953 25.827911
v -13.789896 0.505265 24.344616
v -22.587757 -16.559948 22.760704
v -13.501341 -12.151507 16.730556
v -14.819746 -9.516233 15.484621
v -1.269819 -6.688903 -0.100112
v -7.062726 -4.779907 4.526193
v -6.170916 -4.509658 -4.269268
v -22.249191 -9.476032 21.525618
v -21.934959 -6.658469 20.328386
v -9.134140 -7.776634 7.004580
v -9.822453 -4.186886 4.533242
v 0.078369 -5.456345 -4.137445
v 14.608613 -21.618729 36.425365
v 9.861197 -14.321171 27.466711
v 7.117357 -15.412035 26.715254
v 3.571742 -7.278104 9.954342
v 4.242878 -7.203076 0.287086
v 39.698112 4.672391 38.992340
v 26.812485 3.693192 29.146906
v 26.773083 -1.788062 27.945133
v 12.183337 2.109007 14.271009
vt 0.033663 0.705547
vt 0.105176 0.999734
vt 0.114581 0.735513
vt 0.118036 0.324377
vt 0.001300 0.251334
vt 0.465349 0.270438
vt 0.479102 0.000201
vt 0.406438 0.299111
vt 0.468488 0.676467
vt 0.556110 0.284839
vt 0.578090 0.000284
vt 0.515394 0.258674
vt 0.497275 0.740838
vt 0.577389 0.908819
vt 0.737094 0.294383
vt 0.742780 0.000162
vt 0.691089 0.323706
vt 0.743481 0.739419
vt 0.808928 0.143139
vt 0.835807 0.000605
vt 0.768787 0.197508
vt 0.803646 0.404071
vt 0.790948 0.589666
vt 0.829305 0.554119
vt 0.650582 0.238707
vt 0.667212 0.000418
vt 0.604469 0.265310
vt 0.670106 0.749798
vt 0.873085 0.001619
vt 0.853907 0.200306
vt 0.905029 0.277172
vt 0.843409 0.665325
vt 0.227441 0.623920
vt 0.127917 0.346333
vt 0.163562 0.810359
vt 0.125174 0.288861
vt 0.126601 0.017567
vt 0.251939 0.232607
vt 0.242268 0.070224
vt 0.114759 0.736680
vt 0.034495 0.711586
vt 0.118711 0.291703
vt 0.022178 0.003530
vt 0.412194 0.244691
vt 0.465439 0.269831
vt 0.388535 0.648881
vt 0.416521 0.899580
vt 0.469133 0.685943
vt 0.489577 0.939741
vt 0.510129 0.314336
vt 0.559271 0.738380
vt 0.532993 0.986733
vt 0.691206 0.322744
vt 0.684467 0.746641
vt 0.769379 0.193928
vt 0.757866 0.450447
vt 0.604613 0.264504
vt 0.653078 0.590401
vt 0.590230 0.592227
vt 0.621839 0.794514
vt 0.853948 0.198700
vt 0.901024 0.190286
vt 0.912560 0.522502
vt 0.902342 0.769650
vt 0.231598 0.584857
vt 0.650658 0.238556
vt 0.737167 0.294207
vt 0.479019 0.000203
vt 0.806285 0.174002
vt 0.556192 0.284727
vt 0.121447 0.004434
vt 0.835688 0.000616
vt 0.105168 0.999734
vt 0.142820 0.623577
vt 0.161894 0.810180
vn -0.4894 0.2228 -0.8431
vn -0.6858 0.2761 -0.6734
vn -0.3780 -0.1949 -0.9051
vn -0.6463 -0.0859 -0.7582
vn -0.5789 -0.3522 -0.7355
vn -0.8388 0.0672 -0.5403
vn -0.7680 -0.2432 -0.5926
vn -0.9119 -0.1049 -0.3968
vn -0.2521 -0.5486 -0.7971
vn -0.5457 -0.4572 -0.7023
vn -0.2514 -0.8262 -0.5041
vn -0.5135 -0.2876 -0.8085
vn -0.7563 -0.1788 -0.6293
vn 0.4075 -0.6845 -0.6045
vn 0.6923 -0.5690 -0.4438
vn 0.6317 0.0446 -0.7739
vn 0.4103 0.8632 -0.2940
vn 0.7529 -0.0675 -0.6547
vn 0.7026 -0.1971 0.6837
vn 0.8399 -0.3941 0.3731
vn 0.5608 0.3055 0.7696
vn 0.8940 0.0722 0.4422
vn 0.6801 0.5333 0.5030
vn 0.7690 0.5771 0.2750
vn 0.9159 0.2466 0.3168
vn 0.6471 0.4169 0.6383
vn 0.6391 0.5155 0.5708
vn 0.8198 0.4552 0.3474
vn -0.4216 0.5807 0.6964
vn -0.7435 0.5263 0.4127
vn -0.4915 0.8399 0.2304
vn -0.6873 -0.3608 0.6305
vn -0.8503 -0.0602 0.5229
vn 0.2745 -0.9616 0.0021
vn 0.1961 -0.9786 0.0626
vn 0.0432 -0.9959 0.0795
vn -0.3171 0.9398 -0.1276
vn 0.1958 -0.9786 0.0641
vn -0.4189 0.9012 0.1114
vn 0.3017 -0.9304 0.2082
vn -0.3491 0.9354 -0.0564
vn -0.2461 0.9668 -0.0691
vn 0.1473 -0.9862 0.0759
vn -0.3256 0.9394 -0.1073
vn 0.9423 0.2249 -0.2480
vn -0.3554 0.9307 -0.0866
vn 0.1563 0.9801 -0.1224
vn -0.6578 0.7289 -0.1898
vn 0.3569 -0.9331 -0.0435
vn 0.2296 -0.9716 0.0576
vn -0.2774 -0.9534 0.1184
vn 0.1542 0.9808 -0.1192
vn -0.7270 -0.6742 0.1299
vn 0.4556 -0.8894 0.0363
vn -0.6754 0.7374 -0.0118
vn -0.3591 0.9333 0.0041
vn -0.4103 -0.9026 0.1300
vn 0.0278 0.9905 -0.1349
vn 0.1442 0.9820 -0.1217
vn -0.6999 0.1889 -0.6888
vn -0.8844 0.2038 -0.4200
vn -0.8734 0.3053 -0.3794
vn -0.5737 -0.5030 -0.6464
vn -0.8481 -0.0154 -0.5296
vn -0.6511 -0.4804 -0.5877
vn -0.7887 -0.5585 -0.2569
vn -0.8978 -0.2534 -0.3602
vn -0.3355 -0.7965 -0.5030
vn -0.7410 0.2335 -0.6297
vn -0.8340 -0.4423 -0.3298
vn 0.3185 -0.8899 -0.3265
vn 0.6928 0.2257 -0.6849
vn 0.8044 0.2080 -0.5565
vn 0.4910 -0.2165 0.8438
vn 0.6355 -0.4590 0.6208
vn 0.8862 -0.3141 0.3406
vn 0.3897 0.1222 0.9128
vn 0.6493 0.0753 0.7568
vn 0.8312 0.2503 0.4964
vn 0.4724 0.3929 0.7890
vn 0.7666 0.2763 0.5796
vn 0.8162 0.5119 0.2677
vn 0.6933 0.2903 0.6596
vn 0.9315 0.0814 0.3545
vn 0.2814 0.5216 0.8054
vn 0.5683 0.5665 0.5968
vn 0.4973 0.8196 0.2845
vn 0.3906 0.3228 0.8621
vn 0.7144 0.2047 0.6692
vn 0.8528 0.3970 0.3392
vn -0.4341 0.7710 0.4660
vn -0.5903 -0.1688 0.7893
vn -0.6971 -0.1488 0.7014
vn -0.6490 -0.4463 0.6161
vn -0.2808 0.9571 -0.0714
vn -0.2792 0.9581 -0.0642
vn 0.1767 -0.9834 0.0407
vn -0.1545 0.9848 -0.0788
vn 0.1924 -0.9795 0.0593
vn 0.3607 -0.9251 0.1190
vn 0.2564 -0.9659 0.0375
vn 0.1746 -0.9825 0.0651
vn 0.0269 -0.9963 0.0812
vn 0.1453 -0.9870 0.0691
vn -0.3111 0.9489 -0.0536
vn -0.8226 -0.5529 0.1327
vn 0.4722 -0.8800 0.0520
vn 0.1563 0.9801 -0.1225
vn -0.5436 0.8391 -0.0221
vn 0.9161 0.3578 -0.1809
vn 0.2141 -0.9758 0.0443
vn 0.9129 0.3615 -0.1893
vn 0.4644 -0.8831 0.0659
vn -0.6707 0.7418 0.0021
vn 0.2198 -0.9738 0.0588
vn -0.4206 -0.9006 0.1096
vn 0.0248 0.9912 -0.1299
vn 0.1557 0.9829 -0.0980
usemtl None
s off
f 3/1/1 2/2/1 5/3/1
f 6/4/2 4/5/2 3/1/2
f 8/6/3 7/7/3 10/8/3
f 10/8/4 9/9/4 8/6/4
f 12/10/5 48/11/5 13/12/5
f 52/13/6 47/14/6 12/10/6
f 15/15/7 14/16/7 17/17/7
f 17/17/8 16/18/8 15/15/8
f 20/19/9 19/20/9 22/21/9
f 22/21/10 21/22/10 20/19/10
f 21/22/11 18/23/11 59/24/11
f 24/25/12 23/26/12 26/27/12
f 26/27/13 25/28/13 24/25/13
f 67/29/14 29/30/14 28/31/14
f 27/32/15 28/31/15 29/30/15
f 34/33/16 75/34/16 31/35/16
f 34/33/17 32/36/17 75/34/17
f 30/37/18 33/38/18 71/39/18
f 38/40/19 37/41/19 39/42/19
f 35/43/20 39/42/20 4/5/20
f 44/44/21 43/45/21 46/46/21
f 41/47/22 45/48/22 40/49/22
f 50/50/23 51/51/23 52/13/23
f 11/52/24 51/51/24 47/14/24
f 55/53/25 16/18/25 53/54/25
f 58/55/26 59/24/26 60/56/26
f 63/57/27 64/58/27 65/59/27
f 61/60/28 64/58/28 25/28/28
f 69/61/29 67/29/29 68/62/29
f 70/63/30 27/32/30 69/61/30
f 27/32/31 70/63/31 66/64/31
f 74/65/32 75/34/32 71/39/32
f 30/37/33 71/39/33 75/34/33
f 34/33/34 74/65/34 33/38/34
f 24/25/35 64/58/35 62/66/35
f 15/15/36 16/18/36 54/67/36
f 10/8/37 46/46/37 41/47/37
f 8/6/38 45/48/38 43/45/38
f 32/36/39 30/37/39 75/34/39
f 31/35/40 74/65/40 34/33/40
f 23/26/41 63/57/41 26/27/41
f 14/16/42 55/53/42 17/17/42
f 7/7/43 43/45/43 42/68/43
f 7/7/44 44/44/44 10/8/44
f 28/31/45 70/63/45 68/62/45
f 13/12/46 50/50/46 52/13/46
f 5/3/47 39/42/47 6/4/47
f 22/21/48 60/56/48 18/23/48
f 21/22/49 59/24/49 57/69/49
f 12/10/50 51/51/50 49/70/50
f 3/1/51 4/5/51 37/41/51
f 6/4/52 39/42/52 1/71/52
f 67/29/53 69/61/53 29/30/53
f 19/20/54 57/69/54 56/72/54
f 19/20/55 58/55/55 22/21/55
f 48/11/56 50/50/56 13/12/56
f 2/2/57 37/41/57 36/73/57
f 31/35/58 73/74/58 72/75/58
f 2/2/59 38/40/59 5/3/59
f 5/3/60 6/4/60 3/1/60
f 6/4/61 1/71/61 4/5/61
f 35/43/62 4/5/62 1/71/62
f 10/8/63 41/47/63 9/9/63
f 41/47/64 40/49/64 9/9/64
f 13/12/65 52/13/65 12/10/65
f 47/14/66 52/13/66 11/52/66
f 17/17/67 53/54/67 16/18/67
f 22/21/68 18/23/68 21/22/68
f 26/27/69 65/59/69 25/28/69
f 65/59/70 61/60/70 25/28/70
f 27/32/71 66/64/71 28/31/71
f 34/33/72 33/38/72 32/36/72
f 30/37/73 32/36/73 33/38/73
f 37/41/74 38/40/74 36/73/74
f 39/42/75 37/41/75 4/5/75
f 35/43/76 1/71/76 39/42/76
f 43/45/77 44/44/77 42/68/77
f 46/46/78 43/45/78 45/48/78
f 41/47/79 46/46/79 45/48/79
f 49/70/80 50/50/80 48/11/80
f 50/50/81 49/70/81 51/51/81
f 11/52/82 52/13/82 51/51/82
f 54/67/83 55/53/83 14/16/83
f 55/53/84 54/67/84 16/18/84
f 57/69/85 58/55/85 56/72/85
f 58/55/86 57/69/86 59/24/86
f 18/23/87 60/56/87 59/24/87
f 62/66/88 63/57/88 23/26/88
f 63/57/89 62/66/89 64/58/89
f 61/60/90 65/59/90 64/58/90
f 68/62/91 70/63/91 69/61/91
f 74/65/92 72/75/92 73/74/92
f 74/65/93 73/74/93 75/34/93
f 33/38/94 74/65/94 71/39/94
f 10/8/95 44/44/95 46/46/95
f 26/27/96 63/57/96 65/59/96
f 24/25/97 25/28/97 64/58/97
f 17/17/98 55/53/98 53/54/98
f 8/6/99 9/9/99 45/48/99
f 31/35/100 72/75/100 74/65/100
f 9/9/101 40/49/101 45/48/101
f 23/26/102 24/25/102 62/66/102
f 14/16/103 15/15/103 54/67/103
f 7/7/104 8/6/104 43/45/104
f 7/7/105 42/68/105 44/44/105
f 29/30/106 69/61/106 27/32/106
f 20/19/107 21/22/107 57/69/107
f 5/3/108 38/40/108 39/42/108
f 22/21/109 58/55/109 60/56/109
f 28/31/110 66/64/110 70/63/110
f 12/10/111 47/14/111 51/51/111
f 67/29/112 28/31/112 68/62/112
f 19/20/113 20/19/113 57/69/113
f 19/20/114 56/72/114 58/55/114
f 48/11/115 12/10/115 49/70/115
f 2/2/116 3/1/116 37/41/116
f 31/35/117 75/34/117 73/74/117
f 2/2/118 36/73/118 38/40/118
