# Blender v2.82 (sub 7) OBJ File: 'DungeonGroblinBlendfile.blend'
# www.blender.org
mtllib Vase06.mtl
o Vase_06_Cylinder.010
v -7.181473 6.293761 12.835364
v 1.415363 -9.055522 13.343228
v -10.390309 -0.110848 6.396988
v 7.516891 7.217767 3.416036
v 0.137808 8.564375 13.600613
v 7.938506 -0.655343 13.451029
v 5.731806 5.681872 13.568793
v -0.052438 8.185187 9.314218
v 7.225094 3.950432 5.402701
v 6.803637 -3.732534 5.140364
v 0.523724 -8.080302 5.512913
v -4.339961 -6.887140 5.199451
v -7.321602 7.347936 6.428579
v 0.091324 9.295755 9.980690
v 10.446766 0.910906 6.016838
v -7.366359 -7.330755 6.201980
v 5.087689 -6.648922 0.221034
v -4.820802 4.518084 -0.161016
v -1.017704 8.387428 0.591699
v 5.590037 5.132579 -0.083418
v 7.142632 6.046201 13.262135
v 8.921980 -2.695948 12.900517
v -0.441686 -7.916260 0.077219
v -3.373698 -8.619354 12.991100
v -7.203051 -3.641480 0.196048
v -0.122881 10.256785 3.458636
v 7.886647 -6.336574 2.429502
v 0.010634 -10.214927 3.104399
v -9.371890 4.506557 5.897903
v -9.250662 -0.718017 13.404362
v -0.352058 -8.453840 13.666143
v -6.272111 -5.649311 13.618965
v -4.662591 7.336659 13.624277
v 6.413448 -5.709422 13.706253
v -8.040159 0.666536 13.587702
v -4.640733 -6.080746 12.650212
v -7.764091 0.702733 8.917248
v -0.132701 8.761702 5.527289
v -0.161132 -7.515307 12.147149
v -6.781528 -3.322032 9.737423
v -5.539703 5.263987 12.840256
v 4.835814 -5.973946 12.847475
v -7.955047 2.234946 5.114602
v -2.091866 7.118825 4.819674
v 5.108437 -6.479181 5.186708
v -8.298501 -1.748925 5.268132
v 8.295078 -1.435608 6.324118
v 7.361976 6.727301 7.622327
v 6.766762 -7.407506 7.475290
v -6.061151 7.885789 2.118808
v -7.448193 -6.891927 2.953016
v 3.181859 8.220843 1.004753
v 9.601247 0.762629 1.326872
v 6.906382 6.588987 11.262731
v 9.181050 -0.300347 10.102715
v 0.667760 -9.282636 10.283875
v -6.972619 -6.176579 10.046732
v 8.980937 2.763494 10.812952
v -3.541393 8.709783 10.923016
v -9.287296 -0.673444 10.111204
v 3.466821 8.377686 10.134798
v -9.002693 2.773195 10.992412
v 6.305199 -7.400704 12.029665
v -9.771993 -3.806203 5.726512
v -3.824711 -9.031051 2.297914
v -10.049295 1.230823 2.711552
v 7.696631 4.839371 9.952114
v 3.794972 9.732626 4.777947
v 7.381063 0.113559 -0.053721
v 0.209131 10.194203 12.818596
v 8.935662 0.757520 13.526521
v 7.137817 2.721030 13.372622
v 4.917889 6.511695 5.428535
v -5.078464 5.874533 8.758014
v 5.424634 0.048932 4.611781
v -5.840052 -5.536595 7.808843
v -4.955923 6.660787 5.661264
v -3.929026 9.429838 6.550838
v 9.669291 -3.649233 5.771975
v 3.993854 -9.610319 5.333885
v -2.333029 -10.104919 6.293617
v -8.331513 1.961760 0.695269
v -3.626137 -8.249534 10.119652
v 7.421293 -5.574888 10.102285
v -6.608888 6.300328 10.007118
vt 0.411268 0.007502
vt 0.321097 0.088411
vt 0.286593 0.000117
vt 0.377398 0.322641
vt 0.325349 0.390145
vt 0.314890 0.327799
vt 0.389709 0.453392
vt 0.390735 0.579817
vt 0.348388 0.619008
vt 0.342546 0.550231
vt 0.375547 0.642242
vt 0.392350 0.697887
vt 0.347159 0.709203
vt 0.390449 0.769198
vt 0.340812 0.769031
vt 0.420281 0.838047
vt 0.327931 0.830228
vt 0.170799 0.758316
vt 0.047249 0.704689
vt 0.113036 0.516473
vt 0.222126 0.842086
vt 0.104221 0.841033
vt 0.225867 0.653851
vt 0.286674 0.673643
vt 0.258704 0.705453
vt 0.223774 0.406874
vt 0.150959 0.426902
vt 0.184598 0.355597
vt 0.216431 0.475194
vt 0.287102 0.460253
vt 0.282392 0.544209
vt 0.418457 0.999883
vt 0.380353 0.974635
vt 0.198560 0.583456
vt 0.420809 0.175064
vt 0.391233 0.218598
vt 0.416643 0.049898
vt 0.358901 0.171100
vt 0.665981 0.041523
vt 0.776248 0.097441
vt 0.684675 0.120477
vt 0.590136 0.264594
vt 0.447583 0.225432
vt 0.607143 0.229478
vt 0.476708 0.546689
vt 0.439038 0.571271
vt 0.421195 0.440500
vt 0.529094 0.633794
vt 0.532296 0.677059
vt 0.631539 0.633669
vt 0.642271 0.761292
vt 0.712095 0.665435
vt 0.552859 0.082370
vt 0.607221 0.149400
vt 0.596164 0.476833
vt 0.591208 0.419139
vt 0.594529 0.370927
vt 0.671525 0.337023
vt 0.621267 0.312373
vt 0.665683 0.196868
vt 0.639632 0.191249
vt 0.766522 0.184675
vt 0.690680 0.173802
vt 0.702627 0.573816
vt 0.624109 0.575196
vt 0.636636 0.521498
vt 0.568356 0.327097
vt 0.310291 0.638331
vt 0.253153 0.629503
vt 0.084119 0.779691
vt 0.329405 0.258474
vt 0.289160 0.184652
vt 0.167549 0.144713
vt 0.201311 0.210744
vt 0.156849 0.024359
vt 0.224384 0.278650
vt 0.263491 0.794905
vt 0.286773 0.948875
vt 0.185793 0.904764
vt 0.353797 0.448825
vt 0.352077 0.507943
vt 0.399515 0.530128
vt 0.404544 0.627833
vt 0.288187 0.734538
vt 0.239563 0.735149
vt 0.222377 0.562346
vt 0.285953 0.593925
vt 0.119084 0.266859
vt 0.043241 0.100162
vt 0.405147 0.723233
vt 0.416018 0.551660
vt 0.420809 0.645066
vt 0.471747 0.171026
vt 0.412054 0.494438
vt 0.410781 0.439549
vt 0.776248 0.572589
vt 0.000117 0.171211
vt 0.018012 0.292559
vt 0.117927 0.361241
vt 0.224660 0.702137
vt 0.332869 0.476658
vt 0.223299 0.773202
vt 0.413579 0.319597
vt 0.751037 0.000117
vt 0.421042 0.289991
vn -0.9968 0.0792 0.0122
vn 0.2630 0.9166 -0.3011
vn 0.5111 0.8586 0.0393
vn 0.9331 -0.3113 -0.1801
vn 0.8702 -0.4912 0.0386
vn 0.3187 -0.9478 -0.0075
vn -0.2289 -0.9678 -0.1045
vn -0.6703 -0.7038 0.2353
vn 0.0102 -0.0467 -0.9989
vn -0.8638 -0.2929 -0.4100
vn 0.3568 -0.8394 -0.4099
vn 0.2512 0.8837 -0.3949
vn 0.8898 0.4484 0.0851
vn -0.1181 -0.0282 0.9926
vn -0.0498 -0.0237 -0.9985
vn 0.8746 -0.4439 0.1952
vn -0.3614 0.1809 0.9147
vn 0.8874 -0.4599 0.0315
vn -0.7390 -0.6646 -0.1106
vn -0.3197 0.8235 0.4686
vn 0.4064 0.8630 0.3001
vn 0.4542 0.7891 0.4135
vn 0.9669 0.2481 0.0591
vn 0.5084 -0.8582 -0.0709
vn 0.4112 -0.9094 0.0622
vn -0.3335 0.9399 -0.0739
vn -0.1237 0.0930 0.9880
vn -0.3829 -0.0105 0.9237
vn -0.0971 -0.1323 0.9864
vn -0.1073 -0.2826 0.9532
vn 0.8292 -0.5487 -0.1065
vn 0.7853 0.6032 0.1393
vn -0.8495 0.5251 0.0513
vn 0.3852 -0.8980 -0.2127
vn 0.6330 -0.7738 -0.0237
vn -0.2599 0.0336 -0.9651
vn -0.2881 0.6382 -0.7139
vn -0.6487 0.2384 -0.7228
vn -0.7975 0.5175 0.3103
vn -0.9210 0.2366 0.3094
vn -0.5018 0.7981 0.3336
vn -0.5078 -0.8094 0.2950
vn -0.9465 -0.2038 0.2502
vn -0.8978 0.2917 0.3299
vn -0.2244 0.9317 -0.2856
vn -0.5914 0.7977 -0.1179
vn -0.4606 0.8537 0.2428
vn 0.8800 0.4743 0.0248
vn 0.9123 0.3219 0.2532
vn 0.9969 -0.0179 0.0770
vn 0.3950 -0.6594 0.6397
vn -0.0974 -0.9905 0.0973
vn -0.8361 -0.4947 0.2370
vn -0.0042 -0.0257 -0.9997
vn -0.2606 -0.9523 -0.1587
vn -0.4812 -0.8749 -0.0555
vn 0.9229 -0.2661 -0.2783
vn 0.9728 -0.1567 -0.1704
vn 0.9185 0.3538 -0.1768
vn -0.5213 0.8521 -0.0461
vn -0.3340 0.9284 -0.1628
vn -0.9767 0.2141 -0.0124
vn -0.4707 -0.8458 0.2511
vn 0.5847 0.8030 0.1152
vn -0.1158 -0.7118 0.6927
vn -0.1831 -0.3711 0.9104
vn -0.4938 0.1918 0.8481
vn 0.7411 -0.4960 0.4525
vn 0.1764 -0.1762 0.9684
vn -0.9012 -0.4310 0.0462
vn 0.3080 0.9509 0.0306
vn -0.3498 0.8568 0.3787
vn -0.0810 0.0039 0.9967
vn -0.3051 -0.2065 0.9297
vn 0.4506 0.8718 -0.1922
vn 0.8531 0.4980 -0.1554
vn 0.4265 -0.8928 -0.1450
vn -0.4554 -0.8848 0.0985
vn 0.3140 -0.3231 0.8928
vn 0.0396 0.0128 0.9991
vn -0.0024 0.0878 0.9961
vn -0.0083 0.2224 0.9749
vn -0.1387 -0.1349 0.9811
vn 0.0418 0.0258 0.9988
vn 0.9509 0.2648 0.1602
vn 0.3069 -0.6610 0.6848
vn 0.0839 0.9862 0.1426
vn -0.7619 0.4121 -0.4997
vn -0.4664 0.3716 -0.8027
vn -0.2991 0.4569 -0.8377
vn -0.2296 0.8465 -0.4803
vn 0.0880 0.8216 -0.5632
vn 0.6692 0.4155 -0.6161
vn 0.6177 -0.2399 -0.7489
vn 0.1918 -0.7676 -0.6115
vn -0.1229 -0.7991 -0.5884
vn -0.3424 -0.5199 -0.7826
vn 0.4089 -0.7689 -0.4916
vn 0.8660 0.4843 -0.1243
vn 0.2433 0.9367 0.2518
vn 0.8946 0.2688 0.3568
vn 0.9035 -0.1750 0.3912
vn 0.2600 -0.8211 0.5081
vn 0.4563 -0.8135 0.3605
vn -0.2312 -0.9038 0.3601
vn 0.4012 0.8949 0.1955
vn 0.9971 0.0523 0.0553
vn -0.5245 -0.8490 -0.0632
vn -0.8211 -0.5680 -0.0560
vn -0.8665 -0.2832 -0.4110
vn 0.4023 -0.8269 -0.3929
vn 0.4103 0.8216 -0.3958
vn 0.8868 0.4131 0.2074
vn -0.1066 0.4339 0.8946
vn -0.3220 0.1580 0.9335
vn 0.8807 -0.4711 0.0484
vn -0.9717 -0.2315 -0.0464
vn -0.9796 -0.1993 -0.0272
vn 0.9623 0.2696 0.0353
vn -0.8547 0.5098 -0.0986
vn -0.8368 0.5435 -0.0656
vn -0.2789 0.9540 -0.1100
vn 0.8616 -0.4544 -0.2263
vn 0.8752 0.3323 -0.3515
vn -0.0042 0.1949 -0.9808
vn 0.4897 0.6036 -0.6292
vn 0.5198 0.6500 -0.5543
vn -0.8437 0.3304 0.4231
vn -0.3618 0.8132 0.4558
vn 0.8163 -0.5490 0.1796
vn 0.0969 -0.9867 0.1304
vn -0.8598 -0.3658 0.3564
vn -0.8164 -0.5247 0.2411
vn -0.8368 0.5210 -0.1682
vn -0.4373 0.8619 0.2567
vn 0.0933 -0.2441 0.9653
vn -0.9217 -0.3878 0.0050
vn 0.0144 0.0505 -0.9986
vn -0.9803 -0.1384 -0.1411
vn -0.5193 -0.8485 -0.1015
vn -0.7870 0.5970 -0.1557
vn -0.8283 0.4691 -0.3062
vn 0.1043 -0.3902 0.9148
vn 0.3774 -0.0673 0.9236
vn 0.1836 0.1111 0.9767
vn 0.1930 0.4176 0.8879
vn 0.1401 0.2613 0.9550
vn 0.3123 0.7901 0.5274
vn 0.2414 0.9687 -0.0576
vn -0.4056 -0.9049 -0.1292
vn -0.3596 -0.9312 -0.0590
vn 0.0604 0.0332 0.9976
vn 0.9924 -0.0889 -0.0856
vn -0.6292 0.0080 0.7772
vn -0.0935 0.9845 0.1481
vn 0.8015 -0.5957 0.0515
vn 0.0930 -0.9904 0.1025
vn 0.1054 0.4026 -0.9093
vn 0.4847 0.1679 -0.8584
vn 0.5635 -0.2580 -0.7848
vn -0.4541 -0.5561 -0.6960
vn -0.7417 -0.0902 -0.6646
vn 0.7449 0.1965 -0.6376
vn 0.5812 0.6710 0.4603
vn 0.5061 0.8283 0.2405
vn 0.9302 -0.3103 0.1961
usemtl None
s off
f 30/1/1 62/2/1 60/3/1
f 70/4/2 61/5/2 14/6/2
f 21/7/3 61/5/3 70/4/3
f 22/8/4 84/9/4 55/10/4
f 63/11/5 84/9/5 22/8/5
f 2/12/6 56/13/6 63/11/6
f 24/14/7 83/15/7 56/13/7
f 32/16/8 57/17/8 24/14/8
f 25/18/9 18/19/9 20/20/9
f 25/18/10 64/21/10 66/22/10
f 17/23/11 80/24/11 28/25/11
f 68/26/12 52/27/12 26/28/12
f 4/29/13 48/30/13 15/31/13
f 35/32/14 30/33/14 32/16/14
f 69/34/15 17/23/15 20/20/15
f 41/35/16 33/36/16 35/37/16
f 33/36/17 1/38/17 30/1/17
f 41/39/18 37/40/18 74/41/18
f 9/42/19 72/43/19 73/44/19
f 39/45/20 31/46/20 42/47/20
f 36/48/21 32/49/21 31/46/21
f 40/50/22 32/49/22 36/48/22
f 35/51/23 40/50/23 37/52/23
f 74/41/24 5/53/24 41/39/24
f 5/53/25 74/41/25 8/54/25
f 11/55/26 42/47/26 45/56/26
f 10/57/27 75/58/27 45/56/27
f 9/42/28 75/59/28 10/57/28
f 73/44/29 44/60/29 75/59/29
f 38/61/30 44/60/30 73/44/30
f 74/41/31 43/62/31 77/63/31
f 46/64/32 76/65/32 12/66/32
f 10/57/33 45/56/33 47/67/33
f 77/63/34 38/61/34 74/41/34
f 49/68/35 80/24/35 27/69/35
f 25/18/36 82/70/36 18/19/36
f 59/71/37 14/6/37 85/72/37
f 62/2/38 85/72/38 60/3/38
f 29/73/39 85/72/39 13/74/39
f 60/3/40 29/73/40 3/75/40
f 85/72/41 78/76/41 13/74/41
f 16/77/42 83/15/42 57/17/42
f 64/21/43 60/78/43 3/79/43
f 1/38/44 62/2/44 30/1/44
f 14/6/45 59/71/45 70/4/45
f 85/72/46 1/38/46 59/71/46
f 59/71/47 33/36/47 70/4/47
f 54/80/48 21/7/48 58/81/48
f 58/81/49 21/7/49 71/82/49
f 71/82/50 22/8/50 55/10/50
f 63/11/51 34/83/51 2/12/51
f 2/12/52 24/14/52 56/13/52
f 30/33/53 57/17/53 32/16/53
f 17/23/54 25/18/54 20/20/54
f 81/84/55 65/85/55 28/25/55
f 16/77/56 65/85/56 81/84/56
f 53/86/57 79/87/57 27/69/57
f 15/31/58 79/87/58 53/86/58
f 53/86/59 4/29/59 15/31/59
f 78/76/60 50/88/60 13/74/60
f 26/28/61 50/88/61 78/76/61
f 29/73/62 66/89/62 3/75/62
f 16/77/63 81/84/63 83/15/63
f 4/29/64 68/26/64 48/30/64
f 2/12/65 31/90/65 24/14/65
f 24/14/66 31/90/66 32/16/66
f 34/83/67 6/91/67 42/92/67
f 22/8/68 34/83/68 63/11/68
f 6/91/69 22/8/69 71/82/69
f 72/43/70 7/93/70 73/44/70
f 36/48/71 39/45/71 76/65/71
f 42/92/72 31/90/72 34/83/72
f 71/82/73 72/94/73 6/91/73
f 7/95/74 72/94/74 71/82/74
f 39/45/75 12/66/75 76/65/75
f 76/65/76 40/50/76 36/48/76
f 74/41/77 38/61/77 8/54/77
f 5/53/78 8/54/78 7/93/78
f 77/63/79 43/62/79 44/60/79
f 44/60/80 43/62/80 75/59/80
f 12/66/81 45/56/81 75/58/81
f 11/55/82 45/56/82 12/66/82
f 73/44/83 75/59/83 9/42/83
f 43/96/84 12/66/84 75/58/84
f 40/50/85 76/65/85 37/52/85
f 77/63/86 44/60/86 38/61/86
f 14/6/87 68/26/87 26/28/87
f 50/88/88 82/97/88 66/89/88
f 18/98/89 82/97/89 50/88/89
f 18/98/90 50/88/90 19/99/90
f 19/99/91 50/88/91 26/28/91
f 26/28/92 52/27/92 19/99/92
f 53/86/93 20/20/93 4/29/93
f 69/34/94 27/69/94 17/23/94
f 23/100/95 17/23/95 28/25/95
f 65/85/96 23/100/96 28/25/96
f 23/100/97 65/85/97 25/18/97
f 56/13/98 84/9/98 63/11/98
f 58/81/99 67/101/99 54/80/99
f 61/5/100 68/26/100 14/6/100
f 15/31/101 67/101/101 55/10/101
f 15/31/102 84/9/102 79/87/102
f 49/68/103 84/9/103 80/24/103
f 80/24/104 84/9/104 56/13/104
f 56/13/105 83/15/105 81/84/105
f 21/7/106 54/80/106 61/5/106
f 71/82/107 55/10/107 58/81/107
f 24/14/108 57/17/108 83/15/108
f 16/77/109 64/21/109 51/102/109
f 25/18/110 51/102/110 64/21/110
f 17/23/111 27/69/111 80/24/111
f 4/29/112 52/27/112 68/26/112
f 15/31/113 48/30/113 67/101/113
f 5/103/114 70/4/114 33/36/114
f 35/37/115 33/36/115 30/1/115
f 37/40/116 41/39/116 35/104/116
f 6/105/117 72/43/117 9/42/117
f 47/67/118 6/105/118 9/42/118
f 35/51/119 32/49/119 40/50/119
f 6/105/120 47/67/120 42/47/120
f 45/56/121 42/47/121 47/67/121
f 39/45/122 42/47/122 11/55/122
f 74/41/123 37/40/123 43/62/123
f 37/52/124 76/65/124 46/64/124
f 20/20/125 18/98/125 19/99/125
f 4/29/126 20/20/126 52/27/126
f 54/80/127 67/101/127 61/5/127
f 60/3/128 85/72/128 29/73/128
f 85/72/129 14/6/129 78/76/129
f 84/9/130 49/68/130 79/87/130
f 56/13/131 81/84/131 80/24/131
f 57/17/132 60/78/132 64/21/132
f 16/77/133 57/17/133 64/21/133
f 85/72/134 62/2/134 1/38/134
f 59/71/135 1/38/135 33/36/135
f 2/12/136 34/83/136 31/90/136
f 30/33/137 60/78/137 57/17/137
f 17/23/138 23/100/138 25/18/138
f 3/79/139 66/22/139 64/21/139
f 16/77/140 51/102/140 65/85/140
f 13/74/141 50/88/141 29/73/141
f 50/88/142 66/89/142 29/73/142
f 41/35/143 5/103/143 33/36/143
f 6/91/144 34/83/144 22/8/144
f 7/95/145 71/82/145 21/7/145
f 5/103/146 21/7/146 70/4/146
f 21/7/147 5/103/147 7/95/147
f 39/45/148 36/48/148 31/46/148
f 39/45/149 11/55/149 12/66/149
f 8/54/150 38/61/150 73/44/150
f 7/93/151 8/54/151 73/44/151
f 43/96/152 46/64/152 12/66/152
f 37/52/153 46/64/153 43/96/153
f 9/42/154 10/57/154 47/67/154
f 14/6/155 26/28/155 78/76/155
f 49/68/156 27/69/156 79/87/156
f 81/84/157 28/25/157 80/24/157
f 20/20/158 19/99/158 52/27/158
f 69/34/159 20/20/159 53/86/159
f 69/34/160 53/86/160 27/69/160
f 51/102/161 25/18/161 65/85/161
f 66/22/162 82/70/162 25/18/162
f 55/10/163 67/101/163 58/81/163
f 67/101/164 48/30/164 61/5/164
f 48/30/165 68/26/165 61/5/165
f 15/31/166 55/10/166 84/9/166
