# Blender v2.82 (sub 7) OBJ File: 'DungeonGroblinBlendfile.blend'
# www.blender.org
mtllib Vase08.mtl
o Vase_08_Cylinder.012
v -0.281926 19.219246 49.119598
v 16.079876 14.906274 10.975170
v -0.058043 -21.848536 10.732258
v 11.154606 8.566157 48.822624
v -12.046484 0.036777 38.220581
v 8.985499 8.221041 37.212639
v 15.579567 6.741761 20.613186
v 14.553108 -7.789665 20.136158
v 0.003583 -16.458258 21.458351
v 14.407955 15.285272 20.656845
v -14.747159 0.698613 38.349529
v 15.072958 1.752221 38.324795
v 10.893754 -10.367414 38.868443
v 0.000000 -14.656285 39.003574
v -9.534515 12.924246 45.244122
v 0.642746 15.697360 44.955631
v -9.537653 8.962570 -0.364876
v -10.246755 15.663002 4.505138
v 1.357875 18.274143 2.939968
v 12.439985 10.958170 1.329330
v 17.594007 -2.455188 49.583366
v 5.370501 -13.861862 0.190594
v 7.743074 -15.842224 49.753696
v -2.615869 -15.471571 0.627674
v -15.763688 -8.866938 3.412273
v -18.061008 -2.246117 48.804848
v 21.800735 -0.439776 17.365784
v 13.991414 -16.662779 17.484558
v -15.726002 -15.682166 12.518946
v 7.516560 -20.569221 16.420866
v 19.360989 -9.147732 18.706764
v 20.037527 7.484339 18.437336
v 7.563910 20.308702 12.224243
v -14.227712 17.069456 16.374125
v -16.422005 2.464018 50.904984
v 12.260464 -10.899314 50.088806
v -3.140069 -17.552790 50.071487
v -12.203897 -12.022319 50.663040
v 16.170036 0.682157 51.034050
v -14.253761 0.879957 49.762932
v -1.347104 -14.795367 50.516937
v -11.659799 -9.307314 50.561222
v 13.571965 -0.260945 50.020424
v 0.038710 17.311548 50.930523
v 0.118142 12.690486 41.310581
v 12.180703 -0.482921 39.428185
v 7.520648 -9.235017 40.030293
v -0.442291 -11.916582 40.925030
v -8.577129 -8.318644 40.440220
v 10.053258 13.145393 25.166084
v -9.569443 11.127937 50.575287
v -16.142990 4.452964 18.495691
v -9.117202 14.433366 21.251099
v 5.652861 -14.414145 18.211765
v -6.804664 -14.011024 18.313595
v -8.781941 -13.994830 25.297337
v -0.099907 18.195004 21.484783
v -21.340712 2.212152 19.845684
v 7.415741 19.676897 20.136679
v 14.277864 -10.014759 31.056644
v -0.547447 -21.061625 19.654749
v -11.473661 -8.995570 39.952904
v -2.530590 14.734697 38.833893
v -17.376089 14.118474 13.517761
v -2.118332 21.525806 10.292677
v 21.319012 -2.168835 9.222992
v 19.762774 7.709029 9.584648
v 17.077639 -12.708359 9.265791
v -13.972113 11.910144 49.045158
v 12.639920 12.893734 48.011520
v 13.444523 -12.006995 47.513062
v 1.021949 -17.993809 47.499535
v -14.976262 -10.131688 47.473251
v -8.917025 -14.874482 46.824703
v -16.695879 1.929306 45.134338
v 16.000931 1.431351 45.325142
v -16.878050 5.473048 47.467445
v 5.338693 17.487785 48.850243
v -12.485708 -4.820089 -0.084778
v -20.220577 -7.783350 12.314569
v -8.566312 -19.188141 9.054438
v 11.213185 -17.217358 7.636227
v -21.478350 1.944518 10.133471
v -6.388268 -12.758646 39.862015
v 9.956882 11.233316 39.509441
v -10.458162 10.356502 40.478107
v -10.081591 15.158331 49.207695
v 4.116010 11.939248 -0.463486
v 12.328705 -8.868551 50.483418
v 12.377550 10.583743 51.087448
v -8.486017 8.640779 39.463257
v 9.038668 -13.968342 25.594025
v -0.011155 15.412467 50.078697
v -1.205395 12.830268 16.810930
v 11.822553 0.138666 16.474655
v -11.848345 -4.566566 16.959415
v -16.734106 3.536867 25.694939
v -16.357334 -5.945350 20.751106
v 16.207909 -4.076640 25.879456
v -1.941458 21.273138 20.156178
v -7.841306 -19.938450 18.123722
v -19.550251 -7.468189 20.206272
v -17.370897 5.016416 3.397285
v 16.354151 -0.293629 0.450989
v -14.090482 -9.063777 45.597328
v 16.657288 7.061382 48.566196
v 10.125932 12.686193 45.513191
v 13.132532 -9.603125 45.424519
v 2.802885 -15.787823 45.330894
v 8.190838 14.006702 19.124763
vt 0.474550 0.727249
vt 0.449071 0.756669
vt 0.450543 0.684567
vt 0.501731 0.386219
vt 0.472568 0.387325
vt 0.469849 0.291533
vt 0.480273 0.450782
vt 0.458912 0.502135
vt 0.471037 0.533473
vt 0.444791 0.576495
vt 0.461140 0.608595
vt 0.185351 0.621427
vt 0.138143 0.702803
vt 0.000128 0.709425
vt 0.218704 0.613831
vt 0.253757 0.635756
vt 0.232383 0.682480
vt 0.261196 0.590996
vt 0.273012 0.406431
vt 0.228917 0.426611
vt 0.236793 0.376164
vt 0.187620 0.128872
vt 0.091557 0.124048
vt 0.126924 0.046512
vt 0.101015 0.860705
vt 0.146981 0.756365
vt 0.211348 0.751651
vt 0.194159 0.688068
vt 0.399244 0.503499
vt 0.401725 0.562748
vt 0.287189 0.502274
vt 0.272819 0.454184
vt 0.404251 0.389772
vt 0.348107 0.370281
vt 0.392735 0.260157
vt 0.388124 0.148895
vt 0.257907 0.177033
vt 0.369567 0.000128
vt 0.233742 0.111645
vt 0.202384 0.016834
vt 0.387815 0.826369
vt 0.354402 0.936230
vt 0.210846 0.786185
vt 0.268487 0.697129
vt 0.164864 0.231001
vt 0.186804 0.308061
vt 0.090013 0.206273
vt 0.143838 0.458362
vt 0.495630 0.994233
vt 0.516885 0.838106
vt 0.520401 0.982553
vt 0.489658 0.711429
vt 0.475373 0.624751
vt 0.465017 0.815729
vt 0.619075 0.395087
vt 0.568578 0.281674
vt 0.656314 0.301176
vt 0.510720 0.271715
vt 0.486427 0.168076
vt 0.511068 0.178189
vt 0.781680 0.540005
vt 0.773125 0.566651
vt 0.748792 0.524766
vt 0.834865 0.577793
vt 0.653973 0.599742
vt 0.715626 0.490065
vt 0.833995 0.693073
vt 0.700093 0.747151
vt 0.735828 0.665771
vt 0.523322 0.480942
vt 0.537494 0.381247
vt 0.618063 0.508736
vt 0.520657 0.502380
vt 0.624240 0.145808
vt 0.680339 0.192131
vt 0.816778 0.241375
vt 0.800994 0.287929
vt 0.773288 0.269407
vt 0.731123 0.446358
vt 0.775973 0.401751
vt 0.745381 0.495449
vt 0.736623 0.356867
vt 0.837111 0.545741
vt 0.912409 0.182941
vt 0.766636 0.125934
vt 0.861394 0.076392
vt 0.905743 0.611860
vt 0.705495 0.423177
vt 0.215585 0.201931
vt 0.250776 0.500681
vt 0.395922 0.617042
vt 0.283237 0.641600
vt 0.196999 0.529483
vt 0.432516 0.138867
vt 0.461787 0.211504
vt 0.435877 0.260170
vt 0.402464 0.989901
vt 0.424192 0.857116
vt 0.463651 0.999872
vt 0.425013 0.722898
vt 0.382570 0.711449
vt 0.449409 0.371868
vt 0.441184 0.482584
vt 0.459417 0.154607
vt 0.498357 0.524346
vt 0.442826 0.628799
vt 0.281247 0.544644
vt 0.247222 0.550698
vt 0.277330 0.349769
vt 0.235632 0.310094
vt 0.266360 0.295321
vt 0.224756 0.252815
vt 0.262133 0.245094
vt 0.166801 0.909973
vt 0.507203 0.363129
vt 0.484301 0.263400
vt 0.466323 0.072703
vt 0.502402 0.025140
vt 0.813862 0.000128
vt 0.705001 0.062721
vt 0.734062 0.310014
vt 0.759031 0.310706
vt 0.520401 0.036772
vt 0.915216 0.234498
vt 0.915216 0.561980
vt 0.028086 0.798227
vt 0.422720 0.027839
vt 0.467469 0.866750
vt 0.430241 0.631157
vt 0.593001 0.655677
vt 0.814754 0.785386
vt 0.478724 0.009378
vn -0.9357 0.1944 0.2943
vn 0.7342 -0.4324 0.5235
vn 0.3983 -0.8256 -0.3996
vn 0.1536 -0.9021 0.4032
vn -0.2702 -0.9214 -0.2793
vn -0.5013 -0.8426 0.1969
vn -0.0029 -0.0197 -0.9998
vn -0.8845 -0.2080 -0.4175
vn -0.8107 -0.4703 -0.3486
vn 0.6271 -0.7673 -0.1337
vn 0.1815 0.9282 -0.3247
vn -0.4632 0.8587 -0.2193
vn -0.8556 0.3846 -0.3463
vn -0.2319 -0.9215 0.3116
vn 0.3477 -0.8722 0.3441
vn 0.8834 -0.2880 0.3697
vn 0.8561 0.4253 0.2935
vn 0.1594 0.9302 0.3307
vn 0.4929 0.8194 0.2925
vn -0.4116 0.8593 0.3037
vn -0.8452 0.4658 0.2619
vn -0.5490 -0.1735 0.8176
vn 0.2253 0.1535 -0.9621
vn 0.0518 -0.0228 -0.9984
vn 0.2269 -0.4035 0.8864
vn 0.5702 0.2075 0.7948
vn 0.3234 -0.2208 0.9202
vn -0.2769 0.2543 0.9267
vn -0.9370 -0.2971 0.1839
vn -0.8108 -0.1451 0.5671
vn 0.3027 0.9494 0.0835
vn 0.6611 0.7270 0.1855
vn -0.1604 0.9604 -0.2277
vn 0.8497 0.4328 0.3011
vn -0.9809 0.1484 0.1257
vn -0.8137 0.4579 0.3582
vn -0.9066 -0.0509 0.4188
vn -0.3280 -0.9036 0.2757
vn 0.2589 -0.6643 0.7012
vn -0.3919 0.2711 0.8792
vn -0.7656 0.0330 0.6424
vn -0.0072 0.1382 0.9904
vn 0.5211 0.3873 0.7605
vn 0.8634 -0.2986 -0.4066
vn 0.7541 -0.6179 -0.2227
vn 0.9356 0.1918 -0.2965
vn -0.7989 0.5833 -0.1469
vn -0.7762 0.5703 -0.2686
vn 0.4553 -0.8566 -0.2428
vn -0.7927 0.4702 0.3880
vn 0.1678 0.9824 0.0816
vn 0.5279 0.8473 0.0580
vn 0.0977 -0.9909 0.0927
vn -0.7566 -0.5986 0.2632
vn -0.9799 -0.1779 0.0903
vn -0.8664 -0.4906 0.0932
vn -0.4645 0.0814 -0.8818
vn 0.4350 0.7639 -0.4768
vn -0.3808 -0.4084 -0.8296
vn 0.6204 0.3357 -0.7088
vn -0.2153 0.7215 -0.6581
vn -0.6395 0.4427 -0.6285
vn -0.8374 0.4426 -0.3208
vn -0.8301 0.5420 -0.1311
vn -0.5079 0.7956 -0.3302
vn 0.2742 0.9329 -0.2335
vn 0.9060 -0.3246 -0.2716
vn 0.3448 -0.8856 -0.3111
vn -0.8744 0.3016 0.3800
vn 0.7099 0.5328 0.4607
vn 0.6064 -0.5903 0.5327
vn 0.0682 -0.1294 0.9893
vn -0.7969 -0.3897 0.4616
vn 0.0026 -0.0252 -0.9997
vn -0.2879 -0.9560 -0.0561
vn -0.4540 -0.8902 -0.0374
vn 0.5260 -0.8445 -0.1008
vn 0.9629 -0.2697 0.0003
vn 0.8116 -0.5838 0.0239
vn 0.9751 0.2203 -0.0247
vn 0.1201 0.9925 0.0233
vn -0.4678 0.8195 -0.3310
vn -0.3319 0.9428 0.0301
vn -0.9480 0.3182 0.0047
vn -0.3891 0.8732 0.2934
vn -0.3946 0.1061 0.9127
vn 0.3841 -0.1885 0.9038
vn 0.8400 0.1387 0.5245
vn 0.2895 0.5492 0.7840
vn 0.8890 -0.4207 0.1808
vn -0.8162 -0.5059 -0.2791
vn -0.7082 -0.6959 0.1191
vn 0.3985 0.8570 -0.3266
vn 0.1730 0.9600 -0.2200
vn -0.5469 -0.7569 -0.3579
vn -0.2985 0.9511 0.0795
vn 0.4050 -0.8715 0.2765
vn 0.3716 -0.8976 0.2371
vn -0.3022 -0.6249 0.7199
vn 0.3563 -0.4732 0.8057
vn 0.0806 0.0564 0.9951
vn 0.0118 0.1136 0.9935
vn 0.0312 0.8204 0.5709
vn -0.4459 -0.2793 0.8504
vn 0.0491 -0.1450 0.9882
vn 0.8185 -0.5745 -0.0059
vn 0.9017 0.2890 -0.3215
vn 0.9243 -0.2099 0.3187
vn 0.4278 -0.8153 0.3903
vn -0.2093 -0.9243 0.3193
vn -0.5654 -0.7712 0.2925
vn -0.5602 0.4474 -0.6971
vn -0.2327 0.5556 -0.7983
vn -0.2537 0.8345 -0.4890
vn 0.7435 0.4720 -0.4737
vn 0.8736 0.1545 -0.4614
vn 0.7931 -0.3213 -0.5175
vn 0.5630 -0.4924 -0.6637
vn 0.1954 -0.8275 -0.5263
vn -0.1689 -0.8523 -0.4951
vn -0.4554 -0.6501 -0.6083
vn -0.6797 -0.0795 -0.7291
vn -0.8044 -0.2216 -0.5512
vn 0.3794 -0.7861 -0.4881
vn 0.8532 -0.2745 -0.4434
vn 0.9520 0.0617 -0.2999
vn 0.2649 0.7143 -0.6478
vn 0.4234 0.7623 -0.4894
vn -0.3360 0.7999 -0.4973
vn 0.8773 0.4602 -0.1361
vn -0.3099 -0.8725 -0.3777
vn -0.6730 -0.6668 -0.3201
vn -0.9034 -0.2471 0.3504
vn 0.0595 -0.1968 0.9786
vn -0.6109 -0.7892 0.0632
vn 0.9831 0.1582 -0.0918
vn 0.4278 0.7799 -0.4569
vn 0.6313 -0.7374 0.2402
vn 0.2334 0.9022 0.3626
vn -0.8847 0.3177 0.3412
vn 0.0783 0.0217 0.9967
vn -0.2594 0.6416 0.7218
vn -0.2200 0.2883 0.9319
vn 0.1096 0.0153 0.9939
vn -0.2708 0.2783 0.9215
vn -0.9605 -0.2452 0.1313
vn 0.3710 0.8792 0.2989
vn 0.4586 0.8600 0.2237
vn -0.0601 -0.1210 0.9908
vn -0.3199 -0.1276 0.9388
vn -0.8649 -0.3960 -0.3083
vn -0.9558 -0.1717 -0.2386
vn -0.4484 -0.8938 0.0108
vn -0.3344 0.8845 -0.3252
vn 0.9529 0.2554 0.1636
vn -0.2775 0.9182 0.2827
vn -0.2587 0.9316 0.2552
vn -0.5090 -0.8523 0.1204
vn -0.2045 -0.2351 0.9502
vn -0.1071 -0.6405 0.7605
vn 0.9967 -0.0029 0.0815
vn -0.8338 0.4193 -0.3591
vn 0.3746 -0.8797 -0.2928
vn 0.5421 0.8368 0.0770
vn 0.9431 0.1713 0.2848
vn 0.7615 -0.5883 0.2721
vn -0.1676 -0.9828 0.0775
vn -0.1015 0.4362 -0.8941
vn 0.2376 0.5380 -0.8088
vn 0.1354 -0.8221 -0.5531
vn -0.5341 -0.6011 -0.5944
vn -0.1463 -0.6309 -0.7619
vn 0.3573 -0.5857 -0.7275
vn 0.8303 -0.2204 -0.5118
vn 0.6376 0.3752 -0.6728
vn -0.6186 0.4096 -0.6705
vn -0.2633 0.9646 -0.0152
vn 0.3047 0.9039 -0.3001
vn 0.9582 -0.2503 -0.1385
vn 0.5127 -0.8552 -0.0754
vn -0.5450 -0.7264 -0.4187
vn -0.8826 -0.2265 -0.4119
vn -0.9175 -0.3431 -0.2013
vn 0.4891 0.6769 0.5501
vn -0.0346 -0.0986 -0.9945
vn -0.9921 -0.1244 0.0175
vn 0.3192 -0.9224 -0.2176
vn 0.9244 -0.3723 -0.0831
vn 0.8889 0.4579 -0.0160
vn 0.1793 -0.9355 0.3046
vn 0.4171 -0.2186 0.8822
vn 0.6307 0.2376 0.7387
vn 0.2449 0.6888 0.6823
vn 0.8947 -0.3992 0.2003
vn -0.2260 -0.3937 0.8910
vn -0.3586 -0.9005 -0.2461
vn -0.6125 0.7546 0.2354
vn 0.6072 0.1564 0.7790
vn 0.7704 0.5935 -0.2329
vn -0.9689 0.0606 0.2400
vn 0.8209 0.5583 0.1199
vn 0.8057 0.4845 0.3408
vn 0.8954 -0.2762 0.3492
vn -0.6011 -0.7500 0.2760
vn -0.7095 0.5238 -0.4715
vn 0.7685 0.3110 -0.5593
vn 0.5740 -0.4516 -0.6831
vn -0.5633 -0.6626 -0.4936
vn -0.8296 -0.0966 -0.5499
vn -0.8287 -0.2181 -0.5155
vn 0.2080 0.7691 -0.6043
vn -0.5558 0.6890 -0.4651
vn -0.9655 0.1068 -0.2376
vn 0.8713 0.4818 -0.0934
vn -0.0940 -0.9864 -0.1347
vn -0.9338 -0.1608 0.3196
usemtl None
s off
f 35/1/1 77/2/1 26/3/1
f 36/4/2 71/5/2 21/6/2
f 23/7/3 72/8/3 71/5/3
f 37/9/4 72/8/4 23/7/4
f 37/9/5 74/10/5 72/8/5
f 38/11/6 74/10/6 37/9/6
f 79/12/7 17/13/7 88/14/7
f 25/15/8 80/16/8 83/17/8
f 29/18/9 80/16/9 25/15/9
f 28/19/10 82/20/10 68/21/10
f 33/22/11 19/23/11 65/24/11
f 65/25/12 18/26/12 64/27/12
f 103/28/13 83/17/13 64/27/13
f 14/29/14 84/30/14 61/31/14
f 30/32/15 13/33/15 14/29/15
f 60/34/16 12/35/16 13/33/16
f 85/36/17 12/35/17 10/37/17
f 63/38/18 59/39/18 100/40/18
f 59/39/19 85/36/19 10/37/19
f 86/41/20 63/42/20 34/43/20
f 58/44/21 86/41/21 34/43/21
f 35/1/22 26/3/22 38/11/22
f 20/45/23 104/46/23 88/47/23
f 104/46/24 22/48/24 88/47/24
f 44/49/25 51/50/25 93/51/25
f 40/52/26 35/1/26 42/53/26
f 51/50/27 35/1/27 40/52/27
f 51/50/28 69/54/28 35/1/28
f 46/55/29 4/56/29 6/57/29
f 43/58/30 90/59/30 4/60/30
f 55/61/31 56/62/31 9/63/31
f 98/64/32 56/62/32 55/61/32
f 48/65/33 92/66/33 9/63/33
f 5/67/34 42/68/34 49/69/34
f 46/55/35 89/70/35 43/71/35
f 89/70/36 46/55/36 47/72/36
f 47/72/37 36/73/37 89/70/37
f 6/57/38 93/74/38 45/75/38
f 53/76/39 94/77/39 57/78/39
f 8/79/40 95/80/40 54/81/40
f 7/82/41 95/80/41 8/79/41
f 96/83/42 55/61/42 95/80/42
f 98/64/43 55/61/43 96/83/43
f 97/84/44 91/85/44 5/86/44
f 91/85/45 97/84/45 53/76/45
f 98/64/46 97/87/46 5/67/46
f 92/66/47 99/88/47 8/79/47
f 47/72/48 99/88/48 92/66/48
f 91/85/49 57/78/49 45/75/49
f 34/43/50 64/27/50 58/44/50
f 59/39/51 33/22/51 100/40/51
f 2/89/52 59/39/52 10/37/52
f 3/90/53 30/32/53 61/31/53
f 62/91/54 102/92/54 29/18/54
f 80/16/55 102/92/55 58/44/55
f 29/18/56 102/92/56 80/16/56
f 79/12/57 103/28/57 17/13/57
f 2/89/58 20/45/58 19/23/58
f 24/93/59 25/15/59 79/12/59
f 107/94/60 106/95/60 76/96/60
f 16/97/61 15/98/61 1/99/61
f 15/98/62 77/2/62 69/54/62
f 75/100/63 86/41/63 11/101/63
f 15/98/64 86/41/64 75/100/64
f 15/98/65 63/42/65 86/41/65
f 63/38/66 107/94/66 85/36/66
f 12/35/67 108/102/67 13/33/67
f 13/33/68 109/103/68 14/29/68
f 69/54/69 77/2/69 35/1/69
f 90/59/70 106/95/70 70/104/70
f 36/4/71 23/7/71 71/5/71
f 23/7/72 36/4/72 41/105/72
f 26/3/73 73/106/73 38/11/73
f 22/48/74 79/12/74 88/14/74
f 101/107/75 81/108/75 3/90/75
f 29/18/76 81/108/76 101/107/76
f 30/32/77 82/20/77 28/19/77
f 31/109/78 66/110/78 27/111/78
f 28/19/79 68/21/79 31/109/79
f 67/112/80 32/113/80 27/111/80
f 100/40/81 33/22/81 65/24/81
f 64/27/82 34/43/82 65/25/82
f 65/25/83 34/43/83 100/114/83
f 64/27/84 83/17/84 58/44/84
f 63/42/85 100/114/85 34/43/85
f 43/58/86 89/115/86 39/116/86
f 21/6/87 89/115/87 36/4/87
f 106/95/88 39/116/88 21/6/88
f 90/59/89 78/117/89 44/118/89
f 40/119/90 91/85/90 51/120/90
f 50/121/91 7/82/91 6/57/91
f 110/122/92 7/82/92 50/121/92
f 49/69/93 48/65/93 56/62/93
f 56/62/94 48/65/94 9/63/94
f 45/75/95 50/121/95 6/57/95
f 92/66/96 54/81/96 9/63/96
f 51/120/97 45/75/97 93/74/97
f 45/75/98 51/120/98 91/85/98
f 90/59/99 93/123/99 4/60/99
f 53/76/100 52/124/100 94/77/100
f 94/77/101 52/124/101 95/80/101
f 55/61/102 54/81/102 95/80/102
f 9/63/103 54/81/103 55/61/103
f 110/122/104 95/80/104 7/82/104
f 52/125/105 96/83/105 95/80/105
f 97/84/106 52/124/106 53/76/106
f 49/69/107 98/64/107 5/67/107
f 12/35/108 31/109/108 27/111/108
f 60/34/109 30/32/109 28/19/109
f 84/30/110 101/107/110 61/31/110
f 62/91/111 101/107/111 84/30/111
f 17/13/112 103/28/112 18/26/112
f 17/13/113 18/26/113 19/126/113
f 19/126/114 18/26/114 65/25/114
f 67/112/115 20/45/115 2/89/115
f 104/46/116 67/112/116 66/110/116
f 68/21/117 104/46/117 66/110/117
f 22/48/118 68/21/118 82/20/118
f 22/48/119 82/20/119 3/90/119
f 81/108/120 24/93/120 3/90/120
f 24/93/121 81/108/121 25/15/121
f 79/12/122 25/15/122 103/28/122
f 75/100/123 73/106/123 26/3/123
f 72/8/124 109/103/124 71/5/124
f 71/5/125 108/102/125 21/6/125
f 76/96/126 106/95/126 21/6/126
f 16/127/127 78/117/127 107/94/127
f 107/94/128 78/117/128 70/104/128
f 15/98/129 87/128/129 1/99/129
f 76/96/130 85/36/130 107/94/130
f 14/29/131 74/10/131 84/30/131
f 105/129/132 62/91/132 74/10/132
f 11/101/133 102/92/133 62/91/133
f 41/105/134 37/9/134 23/7/134
f 38/11/135 73/106/135 74/10/135
f 27/111/136 66/110/136 67/112/136
f 2/89/137 19/23/137 33/22/137
f 60/34/138 13/33/138 30/32/138
f 63/38/139 85/36/139 59/39/139
f 11/101/140 86/41/140 58/44/140
f 42/53/141 38/11/141 37/9/141
f 1/99/142 87/128/142 44/49/142
f 51/50/143 44/49/143 87/128/143
f 42/53/144 35/1/144 38/11/144
f 51/50/145 87/128/145 69/54/145
f 43/71/146 4/56/146 46/55/146
f 48/65/147 49/69/147 41/130/147
f 42/68/148 41/130/148 49/69/148
f 41/105/149 42/53/149 37/9/149
f 43/58/150 39/116/150 90/59/150
f 6/57/151 7/82/151 46/55/151
f 99/88/152 46/55/152 7/82/152
f 57/78/153 110/122/153 50/121/153
f 48/65/154 47/72/154 92/66/154
f 5/67/155 40/131/155 42/68/155
f 47/72/156 48/65/156 36/73/156
f 41/130/157 36/73/157 48/65/157
f 6/57/158 4/56/158 93/74/158
f 95/80/159 110/122/159 94/77/159
f 57/78/160 94/77/160 110/122/160
f 52/125/161 97/87/161 98/64/161
f 47/72/162 46/55/162 99/88/162
f 91/85/163 53/76/163 57/78/163
f 2/89/164 33/22/164 59/39/164
f 12/35/165 27/111/165 32/113/165
f 60/34/166 28/19/166 31/109/166
f 3/90/167 61/31/167 101/107/167
f 88/14/168 17/13/168 19/126/168
f 19/23/169 20/45/169 88/47/169
f 3/90/170 24/93/170 22/48/170
f 74/10/171 73/106/171 105/129/171
f 109/103/172 72/8/172 74/10/172
f 108/102/173 71/5/173 109/103/173
f 76/96/174 21/6/174 108/102/174
f 107/94/175 70/104/175 106/95/175
f 15/98/176 75/100/176 77/2/176
f 15/98/177 16/97/177 63/42/177
f 63/38/178 16/127/178 107/94/178
f 12/35/179 76/96/179 108/102/179
f 13/33/180 108/102/180 109/103/180
f 74/10/181 62/91/181 84/30/181
f 105/129/182 75/100/182 62/91/182
f 11/101/183 62/91/183 75/100/183
f 90/59/184 70/104/184 78/117/184
f 22/48/185 24/93/185 79/12/185
f 58/44/186 83/17/186 80/16/186
f 3/90/187 82/20/187 30/32/187
f 31/109/188 68/21/188 66/110/188
f 2/89/189 32/113/189 67/112/189
f 14/29/190 61/31/190 30/32/190
f 21/6/191 39/116/191 89/115/191
f 90/59/192 39/116/192 106/95/192
f 1/132/193 44/118/193 78/117/193
f 5/86/194 91/85/194 40/119/194
f 93/123/195 90/59/195 44/118/195
f 45/75/196 57/78/196 50/121/196
f 8/79/197 54/81/197 92/66/197
f 52/125/198 98/64/198 96/83/198
f 49/69/199 56/62/199 98/64/199
f 7/82/200 8/79/200 99/88/200
f 2/89/201 10/37/201 32/113/201
f 10/37/202 12/35/202 32/113/202
f 12/35/203 60/34/203 31/109/203
f 62/91/204 29/18/204 101/107/204
f 64/27/205 18/26/205 103/28/205
f 104/46/206 20/45/206 67/112/206
f 22/48/207 104/46/207 68/21/207
f 29/18/208 25/15/208 81/108/208
f 83/17/209 103/28/209 25/15/209
f 75/100/210 105/129/210 73/106/210
f 16/127/211 1/132/211 78/117/211
f 15/98/212 69/54/212 87/128/212
f 75/100/213 26/3/213 77/2/213
f 12/35/214 85/36/214 76/96/214
f 14/29/215 109/103/215 74/10/215
f 11/101/216 58/44/216 102/92/216
