# Blender v2.82 (sub 7) OBJ File: 'DungeonGroblinBlendfile.blend'
# www.blender.org
mtllib Grass_Clump_05.mtl
o Grass_Clump_05_Plane.086
v -0.887371 -1.153902 -2.109514
v -23.319876 -5.846503 34.113831
v -12.510351 -5.165632 23.296780
v -2.672652 -3.018011 7.961169
v -3.534271 0.318320 9.161829
v 5.036047 -0.151099 -2.165699
v -12.021734 -15.771626 19.763565
v -6.351604 -10.142978 14.864602
v 1.242549 -3.143907 5.690527
v -1.092716 -0.192362 2.928073
v -7.107095 -7.000192 12.837035
v -8.271011 8.280312 27.022877
v -1.002119 5.710588 17.074987
v 4.198411 -2.942654 -2.473464
v -6.819648 -29.917011 22.794670
v -0.331962 -19.839870 15.939983
v 5.440435 -9.047861 5.285394
v 2.692697 -6.843063 4.696844
v -1.585058 -17.671755 15.729526
v 5.864740 1.165238 -3.445330
v 3.124108 27.010008 20.581366
v 1.867749 15.110213 13.710034
v 1.650275 3.990328 2.626443
v 5.026546 15.317533 13.526795
v -0.983242 1.703173 -1.759667
v -11.893982 -5.179759 24.730246
v -13.342821 -2.996398 25.326643
v -2.731649 0.321961 10.404795
v 2.517901 1.625336 -3.053707
v -5.561330 -10.191619 16.129025
v -6.436910 -7.163948 14.228774
v 2.009927 -3.145884 6.955966
v -0.403054 -0.273554 4.380624
v 4.715955 -0.888837 -1.181967
v 5.284735 1.356421 -1.907148
v -1.339208 3.957571 17.597084
v -0.196029 5.745597 18.304501
v 4.000638 0.538538 7.765837
v 4.974504 2.742713 5.725053
v 6.195374 -4.391169 -2.995211
v 0.491581 -19.845564 17.158215
v -0.824160 -17.750078 17.017492
v 3.482938 -6.911285 6.037570
v 2.275732 0.567055 -3.841041
v 2.683610 15.276431 15.023698
v 5.865341 15.367777 14.757040
v 2.469858 4.085045 3.945135
v 6.341234 4.978965 3.575162
vt 0.146238 0.286373
vt 0.123877 0.000177
vt 0.098994 0.255308
vt 0.084998 0.687849
vt 0.154502 0.723190
vt 0.147456 0.998507
vt 0.088622 0.999883
vt 0.267953 0.177852
vt 0.273384 0.004220
vt 0.231553 0.257754
vt 0.265406 0.475188
vt 0.279162 0.714217
vt 0.219325 0.567648
vt 0.240225 0.750051
vt 0.205533 0.798788
vt 0.206043 0.545682
vt 0.169764 0.551185
vt 0.170422 0.035129
vt 0.049803 0.277465
vt 0.077582 0.001100
vt 0.015983 0.310433
vt 0.050703 0.664403
vt 0.083321 0.910417
vt 0.008391 0.692046
vt 0.046147 0.917249
vt 0.318041 0.839901
vt 0.318264 0.554427
vt 0.289378 0.556474
vt 0.280952 0.196086
vt 0.323517 0.015540
vt 0.290833 0.000117
vt 0.146073 0.280178
vt 0.084991 0.686967
vt 0.232186 0.251427
vt 0.265379 0.473646
vt 0.218804 0.560744
vt 0.206127 0.546185
vt 0.157061 0.254864
vt 0.208217 0.206468
vt 0.016336 0.307497
vt 0.007870 0.688086
vt 0.318274 0.555166
vt 0.289600 0.560355
vt 0.280852 0.199215
vt 0.320797 0.213817
vt 0.268110 0.175839
vt 0.049893 0.276988
vt 0.215186 0.019831
vn -0.6734 0.3506 -0.6509
vn -0.8401 -0.0219 -0.5420
vn -0.9736 -0.0047 -0.2280
vn -0.1470 -0.5609 -0.8147
vn -0.3703 -0.5648 -0.7375
vn -0.3893 -0.7893 -0.4748
vn -0.8096 -0.0190 -0.5867
vn -0.9418 0.0842 -0.3254
vn -0.4082 -0.3190 -0.8553
vn -0.5724 -0.4003 -0.7156
vn -0.5943 -0.6475 -0.4770
vn -0.0830 0.5049 -0.8592
vn -0.0871 0.7041 -0.7047
vn -0.0939 0.8761 -0.4728
vn 0.7350 0.3252 0.5950
vn 0.9829 -0.0970 0.1563
vn 0.1989 0.7416 0.6407
vn 0.4800 0.7738 0.4133
vn 0.9200 -0.0462 0.3892
vn 0.9450 -0.3028 0.1239
vn 0.6653 0.3841 0.6402
vn 0.7452 0.5499 0.3772
vn 0.0877 -0.4291 0.8990
vn 0.2274 -0.7086 0.6680
vn 0.2415 -0.8595 0.4505
vn 0.1063 -0.9071 0.4072
vn 0.7363 0.4334 -0.5197
vn 0.3225 -0.9259 -0.1970
vn -0.6997 0.5571 0.4472
vn 0.1621 0.9776 -0.1341
vn -0.6403 0.6639 0.3864
vn -0.7136 -0.4859 0.5047
vn -0.6305 0.6620 0.4053
vn 0.4286 -0.8520 -0.3007
vn -0.1630 0.9813 0.1023
vn 0.5848 -0.7064 -0.3987
vn 0.1598 0.9724 -0.1701
vn -0.4843 0.8301 0.2763
vn 0.1204 -0.9908 -0.0615
vn -0.4998 -0.7846 0.3670
vn -0.8592 0.1327 -0.4941
vn -0.9632 -0.1756 -0.2033
vn -0.1965 -0.7484 -0.6335
vn -0.4010 -0.7748 -0.4888
vn -0.9325 0.1271 -0.3380
vn -0.3313 -0.6060 -0.7232
vn -0.4937 -0.7380 -0.4600
vn -0.0004 0.6935 -0.7205
vn -0.0898 0.8777 -0.4707
vn 0.6149 0.1996 0.7629
vn 0.8518 -0.2994 0.4298
vn 0.9895 0.0156 0.1440
vn 0.0139 0.5344 0.8451
vn 0.3647 0.5684 0.7375
vn 0.4397 0.8135 0.3806
vn 0.5083 -0.5777 0.6387
vn 0.6009 -0.5953 0.5334
vn 0.9721 -0.2206 0.0796
vn 0.3294 0.2676 0.9055
vn 0.6208 0.4336 0.6531
vn 0.6063 0.7000 0.3774
vn 0.0795 -0.7021 0.7077
vn 0.6097 -0.6751 -0.4153
vn -0.2213 0.9622 0.1588
vn 0.4970 -0.7978 -0.3413
vn -0.1454 0.9852 0.0910
vn 0.0371 -0.9990 -0.0258
vn 0.6778 0.5528 -0.4847
vn -0.7325 -0.4733 0.4893
vn -0.6255 0.6638 0.4099
vn 0.4508 -0.8493 -0.2747
vn 0.1911 0.9696 -0.1529
vn -0.3739 -0.9201 0.1169
vn -0.4459 0.8384 0.3134
vn -0.8153 -0.2226 0.5345
vn -0.4951 0.8026 0.3326
usemtl None
s off
f 3/1/1 2/2/1 27/3/1
f 5/4/2 4/5/2 3/1/2
f 1/6/3 5/4/3 25/7/3
f 8/8/4 7/9/4 11/10/4
f 11/10/5 9/11/5 8/8/5
f 6/12/6 10/13/6 29/14/6
f 12/15/7 13/16/7 36/17/7
f 13/16/8 34/18/8 36/17/8
f 16/19/9 15/20/9 19/21/9
f 19/21/10 17/22/10 16/19/10
f 40/23/11 18/24/11 14/25/11
f 21/26/12 24/27/12 22/28/12
f 24/27/13 23/29/13 22/28/13
f 23/29/14 20/30/14 44/31/14
f 27/3/15 26/32/15 28/33/15
f 1/6/16 28/33/16 4/5/16
f 31/34/17 32/35/17 33/36/17
f 6/12/18 33/36/18 32/35/18
f 37/37/19 38/38/19 39/39/19
f 34/18/20 39/39/20 38/38/20
f 42/40/21 17/22/21 43/41/21
f 40/23/22 43/41/22 17/22/22
f 46/42/23 21/26/23 45/43/23
f 46/42/24 47/44/24 48/45/24
f 48/45/25 47/44/25 20/30/25
f 20/30/26 47/44/26 44/31/26
f 21/26/27 46/42/27 24/27/27
f 9/11/28 6/12/28 32/35/28
f 15/20/29 42/40/29 19/21/29
f 12/15/30 37/37/30 13/16/30
f 7/9/31 31/34/31 11/10/31
f 22/28/32 47/44/32 45/43/32
f 19/21/33 43/41/33 18/24/33
f 8/8/34 32/35/34 30/46/34
f 27/3/35 28/33/35 5/4/35
f 16/19/36 17/22/36 41/47/36
f 13/16/37 39/39/37 35/48/37
f 11/10/38 33/36/38 10/13/38
f 3/1/39 4/5/39 26/32/39
f 23/29/40 44/31/40 47/44/40
f 27/3/41 5/4/41 3/1/41
f 1/6/42 4/5/42 5/4/42
f 11/10/43 10/13/43 9/11/43
f 6/12/44 9/11/44 10/13/44
f 13/16/45 35/48/45 34/18/45
f 19/21/46 18/24/46 17/22/46
f 40/23/47 17/22/47 18/24/47
f 24/27/48 48/45/48 23/29/48
f 48/45/49 20/30/49 23/29/49
f 26/32/50 27/3/50 2/2/50
f 28/33/51 26/32/51 4/5/51
f 1/6/52 25/7/52 28/33/52
f 30/46/53 31/34/53 7/9/53
f 31/34/54 30/46/54 32/35/54
f 6/12/55 29/14/55 33/36/55
f 12/15/56 36/17/56 37/37/56
f 37/37/57 36/17/57 38/38/57
f 34/18/58 35/48/58 39/39/58
f 41/47/59 42/40/59 15/20/59
f 42/40/60 41/47/60 17/22/60
f 40/23/61 14/25/61 43/41/61
f 46/42/62 45/43/62 47/44/62
f 15/20/63 16/19/63 41/47/63
f 10/13/64 33/36/64 29/14/64
f 7/9/65 8/8/65 30/46/65
f 5/4/66 28/33/66 25/7/66
f 2/2/67 3/1/67 26/32/67
f 24/27/68 46/42/68 48/45/68
f 22/28/69 23/29/69 47/44/69
f 19/21/70 42/40/70 43/41/70
f 8/8/71 9/11/71 32/35/71
f 13/16/72 37/37/72 39/39/72
f 36/17/73 34/18/73 38/38/73
f 11/10/74 31/34/74 33/36/74
f 21/26/75 22/28/75 45/43/75
f 18/24/76 43/41/76 14/25/76
