# Blender v2.82 (sub 7) OBJ File: 'DungeonGroblinBlendfile.blend'
# www.blender.org
mtllib Grass_Clump_01.mtl
o Grass_Clump_01_Plane.001
v -0.236889 1.946916 -2.561566
v -7.680372 -1.534833 37.899662
v -7.152744 1.607462 36.218365
v 1.592850 5.530993 -2.692944
v -6.619815 6.168082 29.825735
v -4.600372 8.637897 28.589348
v -2.231947 -2.322713 -2.479415
v -9.206418 -6.501735 29.776430
v -8.987430 -3.317631 28.449930
v -9.006155 -7.580230 41.640457
v 1.841708 -6.643331 -1.884373
v -4.402278 -4.869233 27.478458
v 1.577831 -3.111463 -1.220857
v -1.096371 -2.952990 -2.577472
v -5.059778 -7.859308 17.267435
v -8.139693 -6.379206 20.661892
v -0.949206 3.790941 -2.915286
v -1.319908 0.626478 -2.830328
v -8.937214 3.398218 20.937124
v -2.488829 0.892798 -2.633023
v -9.052201 -5.339633 29.518066
v -12.904394 -3.112889 34.975819
v 1.029224 -4.173585 -1.799124
v 3.895125 -3.882298 7.588272
v 1.393650 -5.302783 5.747491
v 7.819293 0.924515 11.534036
v 5.058172 -1.496775 -2.739392
v 8.090828 -0.189213 15.298873
v 2.542572 3.493062 9.157999
v 7.028259 4.397130 21.931471
v 3.114410 0.079098 -0.960181
v 6.270906 10.650262 24.932474
v 3.074982 6.474260 16.329670
v 7.849079 0.730465 -3.198884
v 3.114111 7.247477 24.848152
v 5.886485 5.419830 19.015829
v 2.749722 -0.791844 -3.122903
v -6.531761 7.283522 36.442749
v 0.947768 -2.518412 -2.907981
v -1.426378 3.965423 21.730997
v -2.142384 9.508293 49.920471
v -1.965168 4.443783 33.808239
v 0.066904 -0.960984 -2.348034
v 1.463422 3.433697 25.787033
v -0.190857 -2.175239 -2.536079
v -13.277118 -0.161922 55.261375
v -2.608527 -2.765384 28.134331
v -1.795849 1.621577 22.752335
v -0.346960 1.944420 -2.447783
v -10.823956 10.535689 43.639313
v -2.375193 3.167293 22.190889
v 0.091264 6.745617 21.029905
v -1.674823 -6.484833 -2.401976
v -14.987592 -5.755145 43.937183
v -4.323115 -7.354558 22.852360
v -3.570067 -2.920820 17.589025
v 0.703063 -3.426625 -2.622874
v -7.729512 -8.081723 43.151611
v 1.202819 -7.540805 12.861544
v -0.071083 -4.288144 17.178804
v 1.825887 -20.236555 54.966713
v 5.839283 -15.832167 38.719261
v 3.197080 -12.388237 36.502548
v 5.785621 -9.861326 14.024281
v 4.045139 -6.528247 15.731494
v 3.980826 -6.441010 -2.066527
v 0.327159 -5.680462 -3.239167
v -12.567552 -10.728137 32.278599
v -2.826283 -8.201961 17.143190
v -3.594419 -4.863858 13.791444
v -14.920423 1.858115 31.976679
v -8.355292 0.390181 23.400024
v -0.029102 0.007856 -1.067902
v -4.275600 3.137537 16.115780
v -1.150350 -2.611142 -3.303081
v -19.680223 -8.173050 53.269344
v -6.848419 -5.779668 29.194096
v -7.534579 -1.618490 24.912512
v 7.545881 -9.410631 21.150360
v 2.986845 -2.649380 -1.918052
v 14.278495 -2.141189 23.431494
v 5.110155 1.384951 -2.687757
v 7.672319 -1.839301 11.455462
v 11.657344 -3.228877 24.953289
v 12.317641 -6.488831 31.833456
v 7.192601 1.006483 -2.112057
v 5.682705 -2.456090 8.870475
v 8.761954 7.621047 30.033289
v 6.220486 2.677135 16.132725
v 4.138032 0.912782 0.602260
v 2.917451 3.563266 12.490585
v 5.118224 3.052999 12.256022
v 5.508301 0.156645 -2.690205
v 3.303531 12.261465 37.036118
v 4.905328 3.965196 19.520063
v 7.385365 4.485414 19.647545
v -4.930110 6.954891 37.982433
v 2.290082 -3.174006 -1.521718
v 2.419294 0.911766 10.906203
v 3.190943 0.289259 -2.698122
v 0.027675 1.099042 25.369640
v 2.804312 2.880607 27.524616
vt 0.096746 0.705594
vt 0.142127 0.999764
vt 0.146945 0.673834
vt 0.084809 0.005954
vt 0.285730 0.244500
vt 0.290004 0.000366
vt 0.239585 0.264986
vt 0.298533 0.811315
vt 0.313604 0.572142
vt 0.351640 0.816118
vt 0.365600 0.547514
vt 0.309001 0.006376
vt 0.442912 0.251570
vt 0.486632 0.762771
vt 0.463078 -0.000728
vt 0.167354 0.322917
vt 0.220732 0.702877
vt 0.207273 0.003272
vt 0.723848 0.270159
vt 0.713912 -0.000191
vt 0.683218 0.203702
vt 0.676695 0.622966
vt 0.723938 0.632227
vt 0.664629 0.431999
vt 0.622169 0.011725
vt 0.660459 0.631715
vt 0.069354 0.425232
vt 0.047080 -0.000351
vt 0.014557 0.322673
vt 0.010170 0.994568
vt 0.072214 1.000022
vt 0.948198 0.490943
vt 0.908946 0.346954
vt 0.909595 0.490874
vt 0.901775 0.246169
vt 0.900211 0.054471
vt 0.866286 0.273657
vt 0.497330 0.314336
vt 0.544196 0.000368
vt 0.494875 0.009929
vt 0.602682 0.434062
vt 0.553264 0.203455
vt 0.570744 0.567296
vt 0.854410 0.154713
vt 0.856403 0.000073
vt 0.821099 0.251858
vt 0.837451 0.470622
vt 0.855157 0.249860
vt 0.782679 0.495822
vt 0.808036 0.705521
vt 0.813728 0.388581
vt 0.776754 0.004363
vt 0.734094 0.264640
vt 0.769942 0.694818
vt 0.764144 0.000782
vt 0.425094 0.273579
vt 0.403262 0.000025
vt 0.380542 0.413631
vt 0.426895 0.898315
vt 0.087553 0.506734
vt 0.147622 0.412798
vt 0.145928 0.003629
vt 0.233465 0.427986
vt 0.287033 0.410139
vt 0.307499 0.419115
vt 0.370515 0.327769
vt 0.437353 0.457399
vt 0.491573 0.530135
vt 0.218793 0.301498
vt 0.150543 0.702650
vt 0.724063 0.301360
vt 0.673945 0.358091
vt 0.069888 0.459416
vt 0.006255 0.531933
vt 0.526489 0.595902
vt 0.501569 0.460976
vt 0.551219 0.192875
vt 0.813817 0.372371
vt 0.777658 0.371973
vt 0.380615 0.409921
vt 0.428623 0.447135
vt 0.377321 0.905095
vt 0.458455 -0.000424
vt 0.924298 0.084304
vt 0.952591 0.313414
vt 0.153541 0.965638
vt 0.900008 0.498427
vt 0.245778 0.813079
vt 0.668480 -0.001146
vt 0.621865 0.016020
vt 0.813786 -0.000108
vt 0.665561 0.312422
vt 0.627267 0.451172
vt 0.371461 0.005460
vt 0.734275 0.701980
vt 0.769963 0.697176
vt 0.764255 0.000840
vt 0.726395 0.481028
vt 0.608894 0.306652
vt 0.589407 0.057119
vt 0.437787 0.773969
vt 0.211937 0.977859
vn -0.9519 -0.0042 -0.3065
vn -0.9809 0.0669 -0.1827
vn -0.7991 0.4590 -0.3883
vn -0.8066 0.5453 -0.2281
vn -0.9236 -0.0916 -0.3722
vn -0.9733 -0.0280 -0.2278
vn -0.8920 0.3982 -0.2138
vn -0.9834 -0.1286 -0.1277
vn -0.7430 -0.4824 -0.4638
vn -0.8785 -0.3924 -0.2725
vn -0.7207 0.6232 -0.3037
vn -0.8176 -0.4006 -0.4136
vn -0.9201 -0.3043 -0.2468
vn 0.6022 -0.7848 -0.1465
vn 0.8748 -0.0328 -0.4834
vn 0.7685 -0.6344 -0.0832
vn 0.8701 0.3649 -0.3314
vn 0.3240 0.7982 -0.5078
vn -0.9929 0.1107 -0.0432
vn -0.1818 0.9104 -0.3717
vn 0.1384 0.9619 -0.2357
vn -0.1431 0.9536 -0.2647
vn -0.3958 0.8748 -0.2793
vn -0.0626 0.9866 -0.1510
vn 0.9106 0.2422 0.3349
vn 0.9968 0.0116 0.0788
vn 0.8338 -0.5437 0.0956
vn 0.8505 0.3360 0.4047
vn 0.9936 -0.0470 0.1026
vn 0.9537 0.2949 0.0593
vn 0.6247 0.7009 0.3443
vn 0.7003 0.6790 0.2202
vn 0.5998 0.6315 0.4914
vn 0.8886 0.4179 0.1892
vn 0.7061 0.5610 0.4321
vn 0.9129 0.3560 0.1997
vn 0.9282 0.3175 0.1937
vn -0.7953 0.5147 0.3202
vn 0.1939 -0.9660 0.1709
vn 0.4932 -0.8662 0.0806
vn 0.3773 -0.9235 0.0692
vn 0.1162 0.9679 0.2230
vn 0.3138 0.9411 0.1257
vn -0.8480 -0.5298 0.0123
vn 0.5215 0.8427 -0.1342
vn -0.3856 0.8920 0.2359
vn 0.0351 0.9993 0.0150
vn -0.5371 -0.8402 0.0751
vn -0.1992 0.9764 0.0836
vn 0.3363 0.9414 -0.0269
vn 0.7835 -0.1082 -0.6118
vn 0.5116 0.8529 0.1040
vn -0.6122 -0.7904 -0.0227
vn 0.5618 0.8180 -0.1230
vn 0.1108 0.9924 0.0534
vn -0.3418 -0.9343 -0.1017
vn 0.5803 0.7855 -0.2150
vn -0.0156 0.9995 0.0287
vn 0.4498 -0.5564 -0.6987
vn 0.3911 0.8585 0.3317
vn -0.3533 -0.9197 0.1712
vn 0.4338 0.8956 -0.0985
vn 0.9912 -0.0282 -0.1297
vn -0.1612 0.9851 0.0603
vn -0.2644 -0.9597 -0.0951
vn 0.2999 0.9477 -0.1097
vn -0.0338 0.9985 0.0421
vn -0.9844 -0.0121 -0.1757
vn -0.8649 0.4530 -0.2162
vn -0.9673 -0.1335 -0.2156
vn -0.9154 -0.3637 -0.1727
vn -0.6371 -0.7544 -0.1582
vn -0.8143 -0.5796 -0.0319
vn -0.6622 -0.6858 -0.3018
vn -0.9438 0.1021 -0.3144
vn -0.7395 -0.6164 -0.2705
vn 0.6636 -0.6132 -0.4286
vn 0.5734 -0.8037 -0.1590
vn 0.9810 -0.0468 -0.1884
vn 0.9419 -0.1528 -0.2990
vn 0.8016 -0.5908 -0.0919
vn 0.3865 0.9004 -0.1995
vn 0.6621 0.7034 -0.2587
vn -0.2774 0.9348 -0.2218
vn -0.6857 0.6850 -0.2463
vn -0.3806 0.9163 -0.1242
vn 0.9921 -0.1106 0.0597
vn 0.7963 -0.4022 0.4518
vn 0.8791 -0.4700 0.0797
vn 0.9886 0.1336 0.0699
vn 0.9592 0.0002 0.2829
vn 0.9376 0.3438 0.0516
vn 0.9020 0.4200 0.0996
vn 0.8862 0.4633 -0.0009
vn 0.8109 0.5852 -0.0001
vn 0.9017 0.3916 0.1833
vn 0.7827 0.2932 0.5490
vn 0.8348 -0.4671 0.2914
vn 0.9340 0.3121 0.1740
vn -0.5666 0.7537 0.3329
vn -0.4615 0.8432 0.2758
vn -0.4545 0.8656 0.2104
vn -0.7691 0.6323 0.0936
vn -0.7610 -0.5547 0.3364
vn -0.4990 -0.8510 0.1636
vn -0.1403 -0.8436 0.5183
vn -0.1944 -0.9503 0.2433
vn 0.1635 -0.8857 0.4345
vn 0.2679 -0.9498 0.1615
vn 0.3356 -0.8959 0.2911
vn 0.9860 -0.1615 0.0428
vn 0.3129 -0.8897 0.3324
vn -0.8074 -0.5885 0.0426
vn 0.4568 0.8868 -0.0702
vn 0.7358 0.6103 0.2934
vn 0.1135 -0.9657 -0.2337
vn -0.3286 -0.9020 0.2799
vn -0.5433 -0.6581 0.5213
vn -0.3128 -0.9488 -0.0429
vn 0.4282 0.7806 0.4554
vn -0.2318 -0.9728 0.0022
vn -0.5870 -0.8096 -0.0081
vn -0.1579 -0.9767 -0.1453
vn -0.1606 -0.9516 -0.2622
vn -0.2857 -0.9353 0.2088
vn -0.8188 -0.5692 0.0754
vn 0.6848 0.6310 0.3646
vn -0.3239 -0.9415 -0.0932
vn -0.4727 -0.8124 0.3415
vn -0.2534 -0.9655 -0.0598
vn 0.4570 -0.7860 -0.4163
vn 0.5747 0.8179 -0.0265
vn -0.8033 0.5922 -0.0638
vn 0.5638 0.7183 0.4075
vn -0.2306 -0.9721 -0.0429
vn -0.5257 -0.8435 0.1102
vn 0.5578 0.7818 0.2787
vn -0.1872 -0.9800 -0.0678
vn -0.2127 -0.9682 -0.1317
vn -0.2213 -0.9518 -0.2126
usemtl None
s off
f 2/1/1 46/2/1 3/3/1
f 3/3/2 45/4/2 2/1/2
f 5/5/3 50/6/3 6/7/3
f 6/7/4 49/8/4 5/5/4
f 8/9/5 54/10/5 9/11/5
f 9/11/6 53/12/6 8/9/6
f 12/13/7 11/14/7 10/15/7
f 63/16/8 64/17/8 61/18/8
f 15/19/9 68/20/9 16/21/9
f 14/22/10 67/23/10 15/19/10
f 19/24/11 18/25/11 71/26/11
f 21/27/12 76/28/12 22/29/12
f 20/30/13 75/31/13 21/27/13
f 80/32/14 25/33/14 23/34/14
f 26/35/15 81/36/15 83/37/15
f 28/38/16 27/39/16 86/40/16
f 30/41/17 29/42/17 88/43/17
f 33/44/18 32/45/18 92/46/18
f 31/47/19 91/48/19 33/44/19
f 35/49/20 94/50/20 36/51/20
f 36/51/21 93/52/21 35/49/21
f 40/53/22 39/54/22 38/55/22
f 42/56/23 41/57/23 44/58/23
f 44/58/24 43/59/24 42/56/24
f 46/2/25 47/60/25 48/61/25
f 1/62/26 47/60/26 45/4/26
f 49/8/27 52/63/27 51/64/27
f 54/10/28 55/65/28 56/66/28
f 53/12/29 56/66/29 55/65/29
f 11/14/30 60/67/30 59/68/30
f 61/18/31 62/69/31 63/16/31
f 63/16/32 62/69/32 65/70/32
f 68/20/33 69/71/33 70/72/33
f 14/22/34 69/71/34 67/23/34
f 76/28/35 77/73/35 78/74/35
f 78/74/36 77/73/36 20/30/36
f 20/30/37 77/73/37 75/31/37
f 85/75/38 84/76/38 87/77/38
f 93/52/39 96/78/39 95/79/39
f 102/80/40 101/81/40 100/82/40
f 43/59/41 100/82/41 101/81/41
f 10/15/42 58/83/42 12/13/42
f 79/84/43 23/34/43 25/33/43
f 24/85/44 80/32/44 79/84/44
f 41/57/45 102/80/45 44/58/45
f 63/16/46 65/70/46 13/86/46
f 3/3/47 48/61/47 1/62/47
f 26/35/48 82/87/48 81/36/48
f 16/21/49 70/72/49 14/22/49
f 6/7/50 52/63/50 4/88/50
f 18/25/51 17/89/51 73/90/51
f 50/6/52 52/63/52 6/7/52
f 28/38/53 86/40/53 84/76/53
f 36/51/54 96/78/54 34/91/54
f 19/24/55 74/92/55 17/89/55
f 71/26/56 73/90/56 72/93/56
f 94/50/57 96/78/57 36/51/57
f 9/11/58 56/66/58 7/94/58
f 37/95/59 98/96/59 39/54/59
f 71/26/60 74/92/60 19/24/60
f 38/55/61 98/96/61 97/97/61
f 40/53/62 99/98/62 37/95/62
f 30/41/63 89/99/63 90/100/63
f 22/29/64 78/74/64 20/30/64
f 10/15/65 59/68/65 58/83/65
f 38/55/66 97/97/66 40/53/66
f 12/13/67 60/67/67 57/101/67
f 3/3/68 1/62/68 45/4/68
f 6/7/69 4/88/69 49/8/69
f 9/11/70 7/94/70 53/12/70
f 12/13/71 57/101/71 11/14/71
f 63/16/72 13/86/72 64/17/72
f 66/102/73 64/17/73 13/86/73
f 16/21/74 14/22/74 15/19/74
f 19/24/75 17/89/75 18/25/75
f 22/29/76 20/30/76 21/27/76
f 79/84/77 25/33/77 24/85/77
f 80/32/78 24/85/78 25/33/78
f 26/35/79 83/37/79 82/87/79
f 85/75/80 87/77/80 28/38/80
f 28/38/81 87/77/81 27/39/81
f 30/41/82 90/100/82 29/42/82
f 92/46/83 31/47/83 33/44/83
f 36/51/84 34/91/84 93/52/84
f 40/53/85 37/95/85 39/54/85
f 44/58/86 100/82/86 43/59/86
f 1/62/87 48/61/87 47/60/87
f 51/64/88 52/63/88 50/6/88
f 49/8/89 4/88/89 52/63/89
f 53/12/90 7/94/90 56/66/90
f 60/67/91 58/83/91 59/68/91
f 11/14/92 57/101/92 60/67/92
f 65/70/93 62/69/93 64/17/93
f 65/70/94 64/17/94 66/102/94
f 66/102/95 13/86/95 65/70/95
f 14/22/96 70/72/96 69/71/96
f 72/93/97 74/92/97 71/26/97
f 74/92/98 72/93/98 73/90/98
f 73/90/99 17/89/99 74/92/99
f 23/34/100 79/84/100 80/32/100
f 83/37/101 81/36/101 82/87/101
f 87/77/102 84/76/102 86/40/102
f 27/39/103 87/77/103 86/40/103
f 89/99/104 88/43/104 29/42/104
f 89/99/105 29/42/105 90/100/105
f 91/48/106 92/46/106 32/45/106
f 31/47/107 92/46/107 91/48/107
f 95/79/108 96/78/108 94/50/108
f 93/52/109 34/91/109 96/78/109
f 99/98/110 97/97/110 98/96/110
f 37/95/111 99/98/111 98/96/111
f 101/81/112 102/80/112 41/57/112
f 42/56/113 43/59/113 101/81/113
f 44/58/114 102/80/114 100/82/114
f 3/3/115 46/2/115 48/61/115
f 61/18/116 64/17/116 62/69/116
f 41/57/117 42/56/117 101/81/117
f 32/45/118 33/44/118 91/48/118
f 2/1/119 45/4/119 47/60/119
f 16/21/120 68/20/120 70/72/120
f 46/2/121 2/1/121 47/60/121
f 5/5/122 49/8/122 51/64/122
f 15/19/123 67/23/123 69/71/123
f 68/20/124 15/19/124 69/71/124
f 50/6/125 5/5/125 51/64/125
f 35/49/126 93/52/126 95/79/126
f 9/11/127 54/10/127 56/66/127
f 71/26/128 18/25/128 73/90/128
f 94/50/129 35/49/129 95/79/129
f 8/9/130 53/12/130 55/65/130
f 85/75/131 28/38/131 84/76/131
f 40/53/132 97/97/132 99/98/132
f 30/41/133 88/43/133 89/99/133
f 22/29/134 76/28/134 78/74/134
f 54/10/135 8/9/135 55/65/135
f 38/55/136 39/54/136 98/96/136
f 12/13/137 58/83/137 60/67/137
f 10/15/138 11/14/138 59/68/138
f 21/27/139 75/31/139 77/73/139
f 76/28/140 21/27/140 77/73/140
