# Blender v2.82 (sub 7) OBJ File: ''
# www.blender.org
mtllib Wall_Corner_Inside_Point.mtl
o Wall_Corner_Inside_Point_Cube.004
v -199.999985 -0.017080 0.000000
v -199.999985 -25.533806 0.000001
v 25.552446 0.002330 -0.000000
v 25.552446 -25.514395 0.000001
v -199.999985 0.002334 300.624939
v -199.999985 -25.514391 300.624939
v 25.552446 0.002334 300.624939
v 25.552446 -25.514391 300.624939
v -0.000013 -25.514391 300.624939
v -0.000000 -0.000002 0.000000
v -0.000013 0.002334 300.624939
v -0.000000 -25.516726 0.000001
v 25.543900 200.000580 -0.000727
v 25.543900 200.000595 300.624237
v -0.008548 199.998245 -0.000727
v -0.008560 200.000595 300.624237
vt 0.625000 0.719959
vt 0.875000 0.719959
vt 0.875000 0.719959
vt 0.625000 0.719959
vt 0.375000 0.750000
vt 0.625000 0.750000
vt 0.625000 1.000000
vt 0.375000 1.000000
vt 0.375000 0.030041
vt 0.625000 0.030041
vt 0.625000 0.250000
vt 0.375000 0.250000
vt 0.125000 0.719959
vt 0.375000 0.719959
vt 0.125000 0.750000
vt 0.625000 0.500000
vt 0.375000 0.500000
vt 0.125000 0.500000
vt 0.375000 0.000000
vt 0.625000 0.000000
vt 0.875000 0.500000
vt 0.875000 0.750000
vt 0.625000 0.750000
vt 0.625000 1.000000
vt 0.625000 0.000000
vt 0.625000 0.030041
vn -1.0000 -0.0000 -0.0000
vn 1.0000 0.0000 0.0000
vn 0.0000 0.0000 1.0000
vn 0.0000 -1.0000 0.0000
vn 0.0000 -0.0000 -1.0000
vn -0.0000 1.0000 -0.0000
usemtl Material.004
s off
f 10/1/1 11/2/1 16/3/1 15/4/1
f 4/5/2 3/6/2 7/7/2 8/8/2
f 9/9/3 11/10/3 5/11/3 6/12/3
f 9/13/4 12/14/4 4/5/4 8/15/4
f 12/14/5 10/1/5 3/6/5 4/5/5
f 6/12/1 5/11/1 1/16/1 2/17/1
f 2/17/5 1/16/5 10/1/5 12/14/5
f 6/18/4 2/17/4 12/14/4 9/13/4
f 8/19/3 7/20/3 11/10/3 9/9/3
f 1/16/6 5/21/6 11/2/6 10/1/6
f 15/4/6 16/3/6 14/22/6 13/23/6
f 7/7/2 3/6/2 13/23/2 14/24/2
f 3/6/5 10/1/5 15/4/5 13/23/5
f 11/10/3 7/20/3 14/25/3 16/26/3
