# Blender v2.82 (sub 7) OBJ File: 'DungeonGroblinBlendfile.blend'
# www.blender.org
mtllib Crystal_13.mtl
o Cube.025_Cube.089
v 3.469220 -7.803214 3.734957
v 7.345485 -0.207010 -5.742191
v -3.937866 -4.306931 -3.596106
v 0.121319 8.353617 5.636447
v 1.977691 1.226498 9.569185
v 7.474322 1.382532 10.329556
v -6.596290 0.353531 1.916731
v -4.369441 4.550605 -6.629696
v 3.820451 10.169678 1.777307
vt 0.464251 0.108490
vt 0.601886 0.213723
vt 0.391652 0.407639
vt 0.256150 0.725706
vt 0.137239 0.636816
vt 0.297430 0.513322
vt 0.603191 0.498914
vt 0.838530 0.576559
vt 0.774108 0.718366
vt 0.574466 0.006199
vt 0.489247 0.873818
vt 0.589328 0.957967
vt 0.531250 1.000000
vt 0.449423 0.626792
vt 0.580418 0.695924
vt 0.625322 0.843143
vt 0.624228 0.687565
vt 0.386435 0.873554
vt 0.398579 0.998632
vn 0.1835 -0.8023 -0.5680
vn 0.9069 -0.4200 0.0343
vn -0.0610 -0.3261 -0.9434
vn -0.9348 -0.1550 -0.3197
vn -0.6328 -0.7143 0.2987
vn -0.5396 -0.5180 0.6637
vn 0.9364 0.3485 -0.0420
vn 0.4840 0.5160 0.7067
vn -0.6617 0.2227 0.7159
vn -0.5060 0.8587 -0.0810
vn -0.7839 0.6132 0.0969
vn -0.1207 0.6661 0.7360
vn -0.0989 -0.5515 0.8283
vn 0.3080 0.6246 -0.7176
usemtl None
s off
f 1/1/1 3/2/1 2/3/1
f 6/4/2 1/5/2 2/6/2
f 8/7/3 2/3/3 3/2/3
f 8/7/4 3/8/4 7/9/4
f 3/2/5 1/1/5 7/10/5
f 5/11/6 7/12/6 1/13/6
f 9/14/7 6/4/7 2/6/7
f 9/14/8 4/15/8 5/11/8
f 5/11/9 4/15/9 7/16/9
f 9/14/10 8/7/10 4/17/10
f 4/17/11 8/7/11 7/9/11
f 9/14/12 5/11/12 6/18/12
f 5/11/13 1/19/13 6/18/13
f 9/14/14 2/3/14 8/7/14
