# Blender v2.82 (sub 7) OBJ File: 'DungeonGroblinBlendfile.blend'
# www.blender.org
mtllib Crystal_11.mtl
o Cube.026_Cube.090
v 5.922828 5.521010 9.701428
v -4.899912 3.030518 26.383518
v 1.695817 -5.175741 -4.642312
v 2.420522 -8.451346 10.270074
v 9.105894 0.838302 -4.459803
v 0.702298 6.949131 1.654229
v -8.326800 -4.486878 -2.234959
v -4.695795 6.626005 17.869846
v -8.863123 0.652833 -4.602313
v -0.006903 -7.654831 23.801287
v -6.003341 -6.882772 10.563287
v -0.552498 -0.527203 26.159843
v 11.075866 -0.162488 9.136469
v -10.109758 -1.164537 24.139751
v -9.122574 3.310790 -4.306245
v 0.291159 6.922894 23.634869
vt 0.452941 0.140727
vt 0.611129 0.255829
vt 0.459781 0.275275
vt 0.256150 0.725706
vt 0.137239 0.636816
vt 0.297430 0.513322
vt 0.524008 0.861785
vt 0.479992 0.877021
vt 0.489413 0.722131
vt 0.636285 0.434165
vt 0.354790 0.479255
vt 0.597441 0.510165
vt 0.831968 0.543296
vt 0.774108 0.718366
vt 0.577087 0.100754
vt 0.490560 0.033498
vt 0.574466 0.006199
vt 0.463344 0.551110
vt 0.378698 0.615962
vt 0.386435 0.873554
vt 0.453429 0.995449
vt 0.375000 1.000000
vt 0.624228 0.687565
vt 0.589328 0.957967
vt 0.531250 1.000000
vt 0.580418 0.695924
vt 0.625322 0.843143
vt 0.375000 0.218857
vt 0.856139 0.665803
vn -0.1166 -0.9712 -0.2077
vn 0.6734 -0.7238 -0.1508
vn 0.2766 0.2802 0.9192
vn -0.2388 -0.4267 -0.8723
vn 0.0077 0.0208 -0.9998
vn -0.9920 -0.1152 -0.0525
vn -0.9951 -0.0984 0.0117
vn -0.5261 -0.8289 0.1900
vn -0.1822 -0.9829 0.0252
vn 0.4955 0.8518 -0.1703
vn 0.7321 0.6407 0.2314
vn 0.6933 -0.7013 0.1657
vn 0.0067 0.1114 -0.9938
vn -0.0595 0.9982 0.0001
vn -0.1753 -0.3214 0.9306
vn 0.7368 0.6737 -0.0572
vn -0.4423 0.8299 0.3399
vn -0.6720 0.6878 0.2744
vn -0.3022 0.9498 -0.0817
vn -0.1860 -0.9713 -0.1481
vn -0.1806 -0.2800 0.9429
vn -0.7929 0.6056 0.0678
vn 0.8208 0.0978 0.5628
vn 0.8208 -0.1218 0.5581
vn 0.2553 0.9668 0.0059
vn 0.6208 -0.7589 -0.1969
vn -0.7823 -0.6224 0.0255
vn 0.0989 0.7685 -0.6321
usemtl None
s off
f 4/1/1 7/2/1 3/3/1
f 13/4/2 4/5/2 5/6/2
f 2/7/3 12/8/3 16/9/3
f 9/10/4 3/3/4 7/2/4
f 3/3/5 9/10/5 5/11/5
f 15/12/6 7/13/6 14/14/6
f 9/10/7 7/13/7 15/12/7
f 11/15/8 10/16/8 14/17/8
f 10/16/9 11/15/9 4/1/9
f 5/11/10 6/18/10 1/19/10
f 16/9/11 13/20/11 1/19/11
f 13/20/12 10/21/12 4/22/12
f 9/10/13 15/12/13 5/11/13
f 6/18/14 8/23/14 16/9/14
f 12/8/15 14/24/15 10/25/15
f 1/19/16 13/4/16 5/6/16
f 16/9/17 8/26/17 2/7/17
f 2/7/18 8/26/18 14/27/18
f 6/18/19 15/12/19 8/23/19
f 11/15/20 7/2/20 4/1/20
f 14/24/21 12/8/21 2/7/21
f 8/23/22 15/12/22 14/14/22
f 16/9/23 12/8/23 13/20/23
f 12/8/24 10/21/24 13/20/24
f 6/18/25 16/9/25 1/19/25
f 5/28/26 4/1/26 3/3/26
f 7/13/27 11/29/27 14/14/27
f 6/18/28 5/11/28 15/12/28
