# Blender v2.82 (sub 7) OBJ File: 'DungeonGroblinBlendfile.blend'
# www.blender.org
mtllib Crystal_04.mtl
o Cube.024_Cube.088
v 6.006895 -5.052966 7.822537
v 12.015482 -3.206765 -5.757962
v 4.477782 6.373166 4.405450
v 5.923375 -0.622113 13.544668
v -0.557254 -6.687537 3.429937
v -4.428341 4.026418 -4.431047
vt 0.464251 0.108490
vt 0.595397 0.164614
vt 0.391652 0.407639
vt 0.256150 0.725706
vt 0.137239 0.636816
vt 0.297430 0.513322
vt 0.603191 0.498914
vt 0.478729 0.873791
vt 0.589328 0.957967
vt 0.531250 1.000000
vt 0.506621 0.646678
vt 0.492286 0.649413
vt 0.625322 0.843143
vt 0.823285 0.610117
vn 0.2537 -0.9671 -0.0192
vn 0.8562 -0.4024 0.3241
vn -0.3348 -0.6331 -0.6980
vn -0.2066 -0.7751 0.5971
vn 0.8646 0.4555 0.2119
vn -0.8741 0.3090 0.3748
vn -0.7154 0.2264 0.6609
vn 0.3079 0.7957 -0.5216
usemtl None
s off
f 1/1/1 5/2/1 2/3/1
f 4/4/2 1/5/2 2/6/2
f 6/7/3 2/3/3 5/2/3
f 4/8/4 5/9/4 1/10/4
f 3/11/5 4/4/5 2/6/5
f 4/8/6 3/12/6 5/13/6
f 3/11/7 6/7/7 5/14/7
f 3/11/8 2/3/8 6/7/8
