# Blender v2.82 (sub 7) OBJ File: 'DungeonGroblinBlendfile.blend'
# www.blender.org
mtllib Crystal_10.mtl
o Cube.029_Cube.097
v -8.160721 -6.508322 -2.742981
v -1.631901 2.927516 34.368858
v 0.275743 -10.070342 17.281818
v -1.954564 11.739355 13.452473
v 4.736547 10.995328 5.930100
v 8.435820 3.172385 -2.872277
v -2.704185 7.905736 -5.140985
v 4.345726 -8.105234 4.227060
v 4.752947 5.295522 31.828165
v -10.115704 6.261093 -1.605309
v -7.300551 -3.833988 21.652943
v -0.461444 -5.831020 -4.599692
v 11.000108 1.625201 17.631969
vt 0.530763 0.466532
vt 0.599970 0.283276
vt 0.647001 0.521195
vt 0.504876 0.290787
vt 0.363033 0.492992
vt 0.477499 0.826480
vt 0.386182 0.768792
vt 0.433284 0.588534
vt 0.541445 0.662973
vt 0.717563 0.730540
vt 0.606928 0.684423
vt 0.526123 0.874661
vt 0.427833 0.981842
vt 0.383483 0.210274
vt 0.449558 0.191053
vt 0.393785 0.241857
vt 0.760030 0.532440
vt 0.775250 0.663689
vt 0.499867 0.090352
vt 0.546591 0.030280
vt 0.385886 0.992834
vt 0.388217 0.937186
vt 0.557167 0.961609
vt 0.526855 0.991696
vt 0.568399 0.845785
vt 0.259027 0.646948
vt 0.215846 0.501688
vt 0.271243 0.518596
vt 0.222079 0.512330
vn -0.4331 0.0140 -0.9013
vn 0.1969 -0.0065 -0.9804
vn 0.7277 0.6700 0.1470
vn 0.3304 0.9218 0.2027
vn -0.8062 0.5407 0.2402
vn 0.4751 -0.6740 0.5657
vn 0.8979 -0.4161 -0.1437
vn 0.4232 0.7582 -0.4960
vn 0.0220 -0.9652 -0.2607
vn -0.2275 -0.0754 -0.9709
vn -0.9865 -0.1556 0.0518
vn -0.5938 -0.7973 0.1083
vn 0.7293 -0.6725 0.1261
vn -0.3169 -0.7716 0.5516
vn -0.1828 0.9050 0.3841
vn -0.1124 0.9741 -0.1963
vn -0.2948 0.9382 -0.1815
vn -0.0368 -0.9864 -0.1600
vn -0.9189 0.3090 0.2453
vn 0.8682 0.4910 -0.0715
vn 0.6609 -0.5566 -0.5034
vn 0.6531 -0.6122 0.4457
usemtl None
s off
f 7/1/1 1/2/1 10/3/1
f 12/4/2 7/1/2 6/5/2
f 9/6/3 13/7/3 5/8/3
f 5/8/4 4/9/4 9/6/4
f 10/3/5 2/10/5 4/11/5
f 2/12/6 3/13/6 9/6/6
f 13/14/7 8/15/7 6/16/7
f 6/5/8 7/1/8 5/8/8
f 12/4/9 8/15/9 1/2/9
f 12/4/10 1/2/10 7/1/10
f 1/17/11 11/18/11 10/3/11
f 3/19/12 11/20/12 1/2/12
f 8/21/13 13/22/13 3/13/13
f 2/12/14 11/23/14 3/24/14
f 4/9/15 2/25/15 9/6/15
f 5/8/16 7/1/16 4/9/16
f 4/9/17 7/1/17 10/3/17
f 3/19/18 1/2/18 8/15/18
f 2/10/19 10/3/19 11/18/19
f 13/26/20 6/5/20 5/8/20
f 12/27/21 6/28/21 8/29/21
f 9/6/22 3/13/22 13/22/22
