# Blender v2.82 (sub 7) OBJ File: 'DungeonGroblinBlendfile.blend'
# www.blender.org
mtllib WallRock3.mtl
o Wall_Rock.002_Cube.030
v -82.709663 -84.466537 0.974022
v 100.165070 -42.857582 81.856171
v -69.888329 -92.663696 229.734344
v -82.941307 33.476295 -0.040054
v -34.809296 118.004669 1.881142
v 82.819000 68.216156 200.842621
v 100.460518 111.379173 -0.417068
v 65.714653 -77.219170 221.016998
v -20.968294 -131.368607 146.013855
v -104.926666 -72.238724 142.397369
v -106.274376 72.632004 165.477661
v -113.496765 29.552999 73.125015
v -37.089539 115.782570 222.740082
v 46.512680 106.140701 224.692108
v 115.586838 -0.136396 134.599823
v 16.658424 -54.933105 -0.471199
v 13.351781 57.728287 -0.501251
v 130.745728 3.391429 0.434280
v -99.741562 11.218287 260.842773
v -4.859481 -61.284088 278.059204
v 41.053001 28.048477 282.181061
vt 0.612169 0.097907
vt 0.514758 0.146053
vt 0.588889 0.035357
vt 0.598633 0.212590
vt 0.509139 0.283161
vt 0.399909 0.234318
vt 0.549256 0.455092
vt 0.607069 0.574615
vt 0.408983 0.579233
vt 0.428563 0.725567
vt 0.305686 0.644160
vt 0.438059 0.402581
vt 0.581132 0.791315
vt 0.595481 0.960032
vt 0.495655 0.879030
vt 0.237871 0.729135
vt 0.339119 0.469796
vt 0.278120 0.531285
vt 0.153067 0.556814
vt 0.184629 0.642444
vt 0.125000 0.710459
vt 0.748051 0.522594
vt 0.813170 0.623379
vt 0.720620 0.671143
vt 0.613103 0.683881
vt 0.819748 0.722819
vt 0.670219 0.467721
vt 0.445924 0.045388
vt 0.624926 0.380050
vt 0.370853 0.381821
vt 0.380871 0.877883
vt 0.449878 0.985210
vt 0.862676 0.554220
vt 0.709530 0.756307
vn 0.1627 -0.8796 0.4470
vn 0.0857 -0.8843 0.4589
vn -0.5751 -0.8178 -0.0196
vn -0.5310 0.8474 0.0030
vn 0.0491 0.9987 0.0106
vn -0.0157 0.0270 -0.9995
vn -0.8060 0.5581 -0.1973
vn 0.8797 -0.0377 0.4741
vn 0.0050 -0.0065 -1.0000
vn -0.8209 0.4747 -0.3174
vn 0.2800 -0.9490 -0.1448
vn -0.1537 0.0334 0.9876
vn 0.0492 0.5899 0.8060
vn 0.5512 -0.3189 0.7710
vn -0.7040 0.5741 0.4180
vn 0.5671 -0.8213 -0.0624
vn 0.3757 -0.8230 -0.4261
vn -0.5765 -0.8161 0.0404
vn -0.9747 -0.1759 -0.1379
vn -0.8971 -0.3417 0.2800
vn -0.9958 -0.0234 0.0888
vn -0.9982 -0.0183 0.0566
vn -0.9227 -0.0051 -0.3856
vn 0.1133 0.9923 0.0502
vn 0.7673 0.6100 0.1981
vn 0.9562 0.2691 0.1151
vn 0.9401 0.3070 0.1482
vn 0.8962 -0.4344 0.0898
vn 0.8854 -0.4523 0.1075
vn -0.0120 -0.0086 -0.9999
vn -0.0047 -0.0004 -1.0000
vn -0.0123 0.0297 -0.9995
vn 0.0080 -0.0000 -1.0000
vn 0.4338 -0.8437 -0.3163
vn -0.4322 -0.3704 0.8222
vn -0.1854 0.4326 0.8823
vn 0.7452 0.3607 0.5608
vn 0.8975 -0.0447 0.4388
usemtl None
s off
f 20/1/1 9/2/1 8/3/1
f 20/1/2 3/4/2 9/2/2
f 9/2/3 10/5/3 1/6/3
f 11/7/4 13/8/4 5/9/4
f 5/9/5 13/8/5 7/10/5
f 5/9/6 7/10/6 17/11/6
f 12/12/7 11/7/7 5/9/7
f 6/13/8 8/14/8 15/15/8
f 7/10/9 18/16/9 17/11/9
f 12/17/10 5/9/10 4/18/10
f 1/19/11 16/20/11 2/21/11
f 19/22/12 20/23/12 21/24/12
f 13/8/13 21/24/13 14/25/13
f 20/23/14 8/26/14 21/24/14
f 19/22/15 13/8/15 11/27/15
f 8/3/16 9/2/16 2/28/16
f 2/28/17 9/2/17 1/6/17
f 9/2/18 3/4/18 10/5/18
f 1/6/19 10/5/19 12/12/19
f 3/4/20 19/29/20 10/5/20
f 10/5/21 11/7/21 12/12/21
f 10/5/22 19/29/22 11/7/22
f 4/30/23 1/6/23 12/12/23
f 7/10/24 13/8/24 14/25/24
f 7/10/25 14/25/25 6/13/25
f 18/31/26 7/10/26 15/15/26
f 7/10/27 6/13/27 15/15/27
f 15/15/28 2/32/28 18/31/28
f 15/15/29 8/14/29 2/32/29
f 1/19/30 4/18/30 16/20/30
f 16/20/31 4/18/31 17/11/31
f 4/18/32 5/9/32 17/11/32
f 17/11/33 18/16/33 16/20/33
f 2/21/34 16/20/34 18/16/34
f 19/22/35 3/33/35 20/23/35
f 19/22/36 21/24/36 13/8/36
f 14/25/37 21/24/37 6/34/37
f 21/24/38 8/26/38 6/34/38
