# Blender v2.82 (sub 7) OBJ File: 'DungeonGroblinBlendfile.blend'
# www.blender.org
mtllib Candletest2.mtl
o Cylinder.013_Cylinder.066
v -1.915280 8.151650 11.795577
v -10.159738 -1.829208 15.397064
v 6.403022 -6.437572 6.881225
v 1.896142 -8.716854 10.757330
v 6.537487 5.586802 0.383073
v -12.226004 7.611770 1.124955
v -0.231746 -9.801146 0.752227
v -3.335884 11.945559 0.025335
v -13.535048 5.900643 3.915036
v -4.583123 -11.424804 2.516413
v -14.198442 -1.994574 3.572678
v -3.182091 -7.599092 20.559174
v 4.460896 -6.354546 19.428734
v -4.259105 6.935869 20.029034
v -2.855181 -1.280296 19.268673
v -7.873456 -0.427409 20.417294
v -7.185724 3.922004 20.053398
v 0.046027 6.487670 20.870329
v -8.360353 9.642409 4.939105
v 7.507629 -7.188442 2.658967
v -6.867625 -5.766183 18.580723
v 4.476565 3.649751 21.021511
v 4.884204 -3.983104 20.868713
v -4.782073 -5.962810 20.579029
v -10.818867 9.116177 3.785838
v -3.687938 -10.324441 7.213600
v -9.812712 -8.707817 4.181836
v -11.777076 -3.940185 6.894062
v 3.119188 -9.812329 4.764881
v 9.022729 7.921390 4.661229
v 3.765325 10.581547 4.045606
v 9.526532 -2.077436 4.009749
v -5.602150 6.942549 14.813684
v -10.339911 2.593883 9.986484
v 6.264596 -6.019979 13.619235
v -4.652418 -9.766615 13.669750
v 6.919798 -4.396342 10.918499
v -11.237641 -2.539327 10.381230
v 3.294001 6.395296 10.516821
v -5.227008 7.473076 11.371450
v 6.310561 -3.970753 0.104882
v -3.961228 13.793529 2.985417
v -10.770313 -5.158202 -0.094392
v 9.855053 7.380833 2.723451
v -14.066342 -1.182705 2.254154
v -8.785577 10.543602 0.270864
v -7.360105 12.118317 3.607476
v -12.825985 -5.926252 3.171208
v -14.261298 0.533056 3.924879
v 10.183908 4.809456 4.352574
v 0.021495 12.924026 4.608415
v -8.051023 -8.670613 6.440795
v 7.197775 3.205421 11.133467
v -5.275112 10.462102 6.824423
v -11.457954 -0.498303 9.688511
v 6.240755 -0.825981 19.576534
v -9.498512 -8.245817 0.610323
v -0.809359 13.231891 1.994527
v 9.124503 -2.472532 1.730482
vt 0.205798 0.262821
vt 0.315685 0.155076
vt 0.353454 0.255652
vt 0.928617 0.818659
vt 0.972180 0.731056
vt 0.993563 0.869615
vt 0.439844 0.797883
vt 0.408971 0.886796
vt 0.404386 0.723406
vt 0.071091 0.702879
vt 0.034850 0.646244
vt 0.087890 0.634885
vt 0.670964 0.800622
vt 0.722145 0.989235
vt 0.611457 0.990363
vt 0.757158 0.853872
vt 0.783415 0.983094
vt 0.060029 0.288866
vt 0.164469 0.111318
vt 0.798009 0.712887
vt 0.793621 0.640887
vt 0.818017 0.678059
vt 0.866579 0.988333
vt 0.914066 0.992704
vt 0.764088 0.694841
vt 0.693140 0.681311
vt 0.823039 0.907355
vt 0.100024 0.999709
vt 0.092846 0.983040
vt 0.159107 0.995717
vt 0.518174 0.976844
vt 0.490522 0.995641
vt 0.367891 0.994326
vt 0.075720 0.204716
vt 0.326491 0.679728
vt 0.392123 0.635676
vt 0.153725 0.691528
vt 0.050212 0.776269
vt 0.205825 0.881324
vt 0.473301 0.683819
vt 0.590036 0.804570
vt 0.878427 0.675482
vt 0.928627 0.635680
vt 0.218679 0.727069
vt 0.206618 0.628995
vt 0.034201 0.820318
vt 0.024490 0.920937
vt 0.315068 0.805720
vt 0.833446 0.686957
vt 0.807660 0.817529
vt 0.609046 0.252551
vt 0.736287 0.382305
vt 0.687688 0.108135
vt 0.920991 0.292757
vt 0.849699 0.114411
vt 0.850970 0.359599
vt 0.598241 0.625570
vt 0.571381 0.678871
vt 0.909017 0.583044
vt 0.979113 0.575001
vt 0.134673 0.655925
vt 0.131532 0.530982
vt 0.265517 0.537970
vt 0.444876 0.511605
vt 0.062943 0.507082
vt 0.197875 0.507285
vt 0.859573 0.548025
vt 0.961917 0.525459
vt 0.782667 0.508870
vt 0.610755 0.682203
vt 0.762036 0.616652
vt 0.467896 0.606728
vt 0.600035 0.510265
vt 0.980894 0.611538
vt 0.049053 0.510912
vt 0.026288 0.586682
vt 0.019421 0.666633
vt 0.113426 0.340411
vt 0.259056 0.384319
vt 0.250000 0.434721
vt 0.159886 0.378100
vt 0.996922 0.683611
vt 0.996662 0.597053
vn -0.1314 -0.1529 0.9795
vn -0.9116 0.3028 0.2779
vn 0.9475 -0.3173 0.0391
vn -0.8438 -0.3372 0.4176
vn 0.5287 0.8339 0.1584
vn 0.3395 0.9355 0.0982
vn 0.0701 0.9838 0.1652
vn -0.1291 0.2048 0.9703
vn -0.2747 0.7708 0.5749
vn -0.2127 -0.0309 0.9766
vn -0.1486 0.1058 0.9832
vn 0.3845 0.7179 0.5803
vn 0.5137 0.7028 0.4921
vn -0.8874 0.4609 -0.0025
vn -0.7047 0.6857 0.1823
vn -0.2600 0.9632 0.0682
vn -0.5898 -0.5835 0.5582
vn 0.9249 -0.3039 0.2285
vn 0.2082 -0.5345 0.8191
vn 0.5895 -0.7545 0.2884
vn -0.7186 -0.5997 0.3521
vn -0.7697 -0.5764 0.2745
vn 0.9395 -0.0440 0.3397
vn -0.5976 0.5290 0.6026
vn -0.3832 -0.8804 0.2793
vn -0.9762 -0.0326 0.2144
vn 0.8477 -0.5092 0.1489
vn 0.2370 -0.9528 0.1895
vn -0.4883 0.7269 0.4830
vn 0.2068 -0.9716 0.1148
vn 0.9771 -0.1583 0.1419
vn 0.0208 -0.1334 -0.9908
vn 0.0541 0.0278 -0.9982
vn -0.0527 0.0299 -0.9982
vn 0.9478 -0.0751 -0.3098
vn -0.9273 0.1500 -0.3431
vn -0.6419 -0.7512 -0.1536
vn 0.3721 -0.8737 -0.3132
vn 0.3615 -0.4935 -0.7911
vn -0.0240 -0.2318 -0.9725
vn -0.2872 0.0585 -0.9561
vn -0.6559 0.7512 -0.0743
vn -0.2312 0.8026 -0.5499
vn 0.4557 0.8886 -0.0521
vn 0.5221 0.8503 -0.0658
vn 0.1917 0.9799 0.0545
vn -0.0164 0.8466 -0.5320
vn -0.7626 0.6457 0.0382
vn 0.9849 -0.0565 -0.1639
vn 0.4948 0.0135 -0.8689
vn -0.0911 0.7674 0.6347
vn -0.6949 0.7183 0.0350
vn -0.8061 0.4448 0.3904
vn 0.1447 -0.9692 0.1995
vn -0.3585 -0.9331 0.0271
vn 0.9190 -0.1066 0.3795
vn 0.8542 0.2750 0.4412
vn -0.4412 0.6011 0.6663
vn -0.3636 -0.8826 0.2981
vn 0.4936 -0.8673 0.0639
vn -0.6626 0.5501 0.5083
vn 0.4437 0.6601 0.6061
vn 0.3329 0.7805 0.5291
vn -0.8325 -0.4948 0.2490
vn 0.9948 -0.0390 0.0941
vn 0.9268 0.2871 0.2421
vn -0.2348 0.8377 0.4930
vn -0.1558 0.8247 0.5437
vn -0.9608 0.1295 -0.2452
vn -0.0906 -0.6114 -0.7861
vn -0.4937 -0.8558 -0.1541
vn 0.2612 -0.9397 -0.2207
vn -0.7191 -0.4222 -0.5520
vn -0.9169 -0.2923 -0.2718
vn 0.3289 0.4644 -0.8223
vn 0.9341 -0.3411 -0.1056
vn 0.6009 -0.3477 -0.7197
vn 0.6142 0.7776 0.1341
vn -0.8305 -0.0971 0.5486
vn 0.2021 0.1859 0.9616
vn 0.1731 -0.2605 0.9498
vn -0.4474 0.5571 0.6996
vn -0.9135 0.1752 0.3671
vn -0.1714 0.1742 0.9697
vn -0.2146 0.9686 0.1259
vn -0.5357 0.5575 0.6342
vn 0.6641 0.0205 0.7473
vn -0.8272 -0.3158 0.4649
vn -0.6647 -0.3519 0.6591
vn 0.2467 0.1657 0.9548
vn -0.6752 -0.5548 0.4862
vn -0.6487 -0.5603 0.5151
vn -0.8761 0.1194 0.4671
vn -0.9330 0.0212 0.3592
vn 0.4758 -0.8741 0.0974
vn 0.1922 -0.9471 0.2570
vn 0.9153 -0.3018 0.2668
vn 0.0115 0.0020 -0.9999
vn 0.9026 0.3068 0.3021
vn -0.5693 0.0136 -0.8220
vn -0.4628 0.8615 -0.2089
vn -0.6576 0.7495 -0.0760
vn 0.5608 0.0418 -0.8269
vn 0.1472 -0.9672 0.2069
vn -0.9066 -0.3240 0.2704
vn 0.6049 -0.7523 0.2610
vn 0.8580 -0.4179 0.2988
vn -0.8008 0.2365 0.5502
vn -0.5621 -0.7470 0.3550
vn -0.7650 -0.6231 0.1625
vn -0.9943 -0.0100 -0.1058
vn -0.7703 -0.3092 -0.5576
vn 0.4761 0.8765 0.0708
vn 0.3411 0.5244 -0.7802
usemtl None
s off
f 15/1/1 22/2/1 18/3/1
f 34/4/2 55/5/2 2/6/2
f 37/7/3 35/8/3 3/9/3
f 28/10/4 11/11/4 48/12/4
f 39/13/5 18/14/5 22/15/5
f 1/16/6 18/14/6 39/13/6
f 18/14/7 1/16/7 14/17/7
f 15/1/8 12/18/8 23/19/8
f 54/20/9 42/21/9 47/22/9
f 22/2/10 15/1/10 23/19/10
f 18/14/11 17/23/11 16/24/11
f 39/13/12 51/25/12 1/16/12
f 31/26/13 51/25/13 39/13/13
f 17/23/14 33/27/14 2/6/14
f 14/17/15 33/27/15 17/23/15
f 1/16/16 33/27/16 14/17/16
f 24/28/17 21/29/17 12/30/17
f 56/31/18 23/32/18 13/33/18
f 12/18/19 13/34/19 23/19/19
f 3/9/20 29/35/20 20/36/20
f 52/37/21 38/38/21 28/10/21
f 38/38/22 52/37/22 36/39/22
f 32/40/23 53/41/23 37/7/23
f 25/42/24 9/43/24 34/4/24
f 26/44/25 52/37/25 10/45/25
f 55/46/26 38/38/26 2/47/26
f 3/9/27 32/40/27 37/7/27
f 4/48/28 13/33/28 36/39/28
f 54/20/29 19/49/29 40/50/29
f 4/48/30 36/39/30 26/44/30
f 56/31/31 35/8/31 37/7/31
f 7/51/32 43/52/32 41/53/32
f 41/53/33 8/54/33 5/55/33
f 46/56/34 8/54/34 43/52/34
f 44/57/35 50/58/35 32/40/35
f 9/43/36 6/59/36 45/60/36
f 27/61/37 48/12/37 57/62/37
f 29/35/38 7/63/38 20/36/38
f 20/36/39 7/63/39 41/64/39
f 57/62/40 43/65/40 7/66/40
f 6/59/41 46/67/41 43/68/41
f 47/22/42 46/67/42 25/42/42
f 8/69/43 46/67/43 42/21/43
f 30/70/44 44/57/44 31/26/44
f 58/71/45 51/25/45 31/26/45
f 58/71/46 42/21/46 51/25/46
f 8/69/47 42/21/47 58/71/47
f 25/42/48 6/59/48 9/43/48
f 32/40/49 59/72/49 44/57/49
f 5/73/50 59/72/50 41/64/50
f 51/25/51 42/21/51 54/20/51
f 34/4/52 33/27/52 40/50/52
f 33/27/53 34/4/53 2/6/53
f 26/44/54 10/45/54 29/35/54
f 36/39/55 52/37/55 26/44/55
f 50/58/56 53/41/56 32/40/56
f 30/70/57 53/41/57 50/58/57
f 19/49/58 25/42/58 34/4/58
f 52/37/59 27/61/59 10/45/59
f 3/9/60 35/8/60 4/48/60
f 40/50/61 19/49/61 34/4/61
f 30/70/62 39/13/62 53/41/62
f 39/13/63 30/70/63 31/26/63
f 38/38/64 21/29/64 2/47/64
f 53/41/65 56/31/65 37/7/65
f 56/31/66 53/41/66 22/15/66
f 51/25/67 40/50/67 1/16/67
f 54/20/68 40/50/68 51/25/68
f 45/60/69 49/74/69 9/43/69
f 10/45/70 57/62/70 7/63/70
f 27/61/71 57/62/71 10/45/71
f 10/45/72 7/63/72 29/35/72
f 48/12/73 43/75/73 57/62/73
f 11/11/74 45/76/74 48/12/74
f 8/69/75 44/57/75 5/73/75
f 20/36/76 59/72/76 32/40/76
f 41/64/77 59/72/77 20/36/77
f 22/15/78 53/41/78 39/13/78
f 28/10/79 49/77/79 11/11/79
f 24/78/80 12/18/80 15/1/80
f 18/3/81 16/79/81 15/1/81
f 47/22/82 25/42/82 19/49/82
f 2/6/83 16/24/83 17/23/83
f 18/14/84 14/17/84 17/23/84
f 40/50/85 33/27/85 1/16/85
f 54/20/86 47/22/86 19/49/86
f 22/15/87 23/32/87 56/31/87
f 2/80/88 21/81/88 16/79/88
f 24/78/89 16/79/89 21/81/89
f 16/79/90 24/78/90 15/1/90
f 48/12/91 27/61/91 28/10/91
f 52/37/92 28/10/92 27/61/92
f 49/74/93 38/82/93 9/43/93
f 55/5/94 9/43/94 38/82/94
f 4/48/95 35/8/95 13/33/95
f 12/30/96 36/39/96 13/33/96
f 13/33/97 35/8/97 56/31/97
f 41/53/98 43/52/98 8/54/98
f 30/70/99 50/58/99 44/57/99
f 43/68/100 45/60/100 6/59/100
f 47/22/101 42/21/101 46/67/101
f 25/42/102 46/67/102 6/59/102
f 5/73/103 44/57/103 59/72/103
f 4/48/104 26/44/104 29/35/104
f 38/38/105 49/77/105 28/10/105
f 29/35/106 3/9/106 4/48/106
f 3/9/107 20/36/107 32/40/107
f 34/4/108 9/43/108 55/5/108
f 12/30/109 21/29/109 36/39/109
f 38/38/110 36/39/110 21/29/110
f 11/83/111 49/74/111 45/60/111
f 48/12/112 45/76/112 43/75/112
f 31/26/113 44/57/113 58/71/113
f 8/69/114 58/71/114 44/57/114
o Cylinder.014_Cylinder.067
v -2.848272 -1.616605 24.216427
v -3.992796 -0.754827 18.471905
v -2.528756 0.286735 18.478556
v -2.344368 -0.359504 23.709236
v -1.890468 -2.125166 18.666845
v -0.842101 -1.033735 22.198114
v -2.382434 -2.782205 22.213703
vt 0.238360 0.309713
vt 0.280209 0.170608
vt 0.425680 0.307082
vt 0.865528 0.318615
vt 0.824573 0.109199
vt 0.593129 0.317045
vt 0.868533 0.530293
vt 0.972739 0.707355
vt 0.900000 1.000000
vt 0.149910 0.932015
vt 0.148247 0.520275
vt 0.363284 0.955394
vt 0.104725 0.104412
vt 0.084199 0.350594
vt 0.566221 0.543135
vt 0.595430 0.986829
vt 0.750000 0.434721
vn -0.8643 0.4427 0.2386
vn 0.0504 -0.0645 -0.9966
vn -0.8574 -0.5058 0.0949
vn 0.7501 -0.6610 -0.0184
vn 0.6573 -0.5747 0.4874
vn 0.4822 0.8713 0.0907
vn -0.5174 -0.8257 -0.2247
vn -0.5759 0.8087 0.1202
vn 0.9158 0.2159 -0.3386
vn 0.7092 0.0002 0.7050
usemtl None
s off
f 60/84/115 63/85/115 61/86/115
f 61/87/116 62/88/116 64/89/116
f 61/90/117 66/91/117 60/92/117
f 66/93/118 64/94/118 65/95/118
f 65/96/119 60/84/119 66/97/119
f 62/98/120 63/99/120 65/95/120
f 66/100/121 61/87/121 64/89/121
f 61/90/122 63/99/122 62/98/122
f 64/94/123 62/98/123 65/95/123
f 63/85/124 60/84/124 65/96/124
