# Blender v2.82 (sub 7) OBJ File: 'DungeonGroblinBlendfile.blend'
# www.blender.org
mtllib GroundRock5.mtl
o Wall_Rock.030_Cylinder.064
v -43.601719 -33.699646 1.803738
v -74.093010 -21.021381 -6.585915
v -60.280132 2.845814 -6.305552
v 25.721470 65.490402 -5.579430
v -80.978607 41.173344 0.368802
v -19.552608 65.667145 -5.567524
v 42.046303 48.895405 2.649865
v 83.615112 -14.829124 -6.579747
v 60.036770 -60.749161 -7.088053
v -16.027809 -83.423561 -7.340903
v 56.809437 -38.707233 1.318328
v -48.221340 45.419239 5.093202
v -5.727487 86.493896 3.085823
v 2.698153 13.938427 5.502832
v 14.777555 -67.522179 0.855845
vt 0.916111 0.542413
vt 0.979239 0.693508
vt 0.933474 0.941665
vt 0.739977 0.540699
vt 0.877336 0.705920
vt 0.757119 0.813325
vt 0.826805 0.945336
vt 0.333840 0.879390
vt 0.171244 0.802283
vt 0.223320 0.570413
vt 0.207481 0.117056
vt 0.149250 0.315051
vt 0.094959 0.156202
vt 0.084655 0.575173
vt 0.039698 0.772250
vt 0.168758 0.970532
vt 0.033417 0.929474
vt 0.835562 0.395720
vt 0.909728 0.196970
vt 0.678841 0.218360
vt 0.384694 0.292620
vt 0.357771 0.113537
vt 0.446573 0.231325
vt 0.294451 0.419038
vt 0.012515 0.593757
vt 0.679010 0.405374
vt 0.595378 0.320747
vn -0.0475 -0.0639 0.9968
vn -0.3862 -0.3696 0.8451
vn -0.0081 -0.0420 0.9991
vn -0.1363 -0.0491 0.9894
vn 0.7461 0.5426 -0.3859
vn 0.0013 0.3830 -0.9238
vn 0.2587 0.0289 0.9655
vn 0.0135 0.0349 0.9993
vn 0.0746 -0.0026 0.9972
vn 0.2216 -0.7503 0.6228
vn -0.1278 -0.2475 0.9604
vn -0.1430 0.0943 -0.9852
vn 0.0388 0.0378 0.9985
vn -0.3164 -0.1399 0.9383
vn 0.5855 0.7401 0.3310
vn -0.1671 0.2199 0.9611
vn -0.2863 0.5235 -0.8025
vn -0.1347 0.0989 -0.9859
vn 0.0255 -0.0532 0.9983
vn 0.2102 -0.3214 0.9233
vn 0.4735 -0.2525 0.8438
usemtl None
s off
f 15/1/1 14/2/1 12/3/1
f 10/4/2 1/5/2 2/6/2
f 1/5/3 15/1/3 12/3/3
f 12/3/4 5/7/4 1/5/4
f 4/8/5 7/9/5 8/10/5
f 6/11/6 13/12/6 4/13/6
f 8/10/7 7/9/7 11/14/7
f 14/15/8 13/16/8 12/17/8
f 14/15/9 11/14/9 7/9/9
f 15/18/10 10/19/10 9/20/10
f 15/1/11 1/5/11 10/4/11
f 5/21/12 3/22/12 2/23/12
f 13/16/13 14/15/13 7/9/13
f 1/5/14 5/7/14 2/6/14
f 13/16/15 7/9/15 4/8/15
f 5/21/16 12/24/16 13/12/16
f 13/12/17 6/11/17 5/21/17
f 3/22/18 5/21/18 6/11/18
f 11/14/19 14/15/19 15/25/19
f 9/20/20 11/26/20 15/18/20
f 8/27/21 11/26/21 9/20/21
