# Blender v2.82 (sub 7) OBJ File: 'DungeonGroblinBlendfile.blend'
# www.blender.org
mtllib GroundRock2.mtl
o Wall_Rock.028_Cylinder.063
v 32.432831 -46.192741 -6.786626
v 24.811314 -32.841759 5.589856
v -40.539375 19.400589 3.829300
v 35.026321 -5.017818 -6.827212
v -6.275467 12.823025 7.326236
v -55.438713 14.580509 -6.871656
v -78.376762 -25.513815 -6.744562
v -62.980434 -59.041481 -0.193116
v -7.124796 -82.277344 -6.713922
v -64.248192 -31.179808 4.501449
v -64.460152 -40.806145 -6.966276
v -32.656166 -51.639721 7.845494
v -21.450438 33.824558 -6.840657
v -33.416080 -64.064407 -7.014253
vt 0.477944 0.943658
vt 0.483547 0.595576
vt 0.585946 0.831603
vt 0.350818 0.591917
vt 0.333840 0.879390
vt 0.223320 0.570413
vt 0.171244 0.802283
vt 0.207481 0.117056
vt 0.149250 0.315051
vt 0.094959 0.156202
vt 0.835562 0.395720
vt 0.909728 0.196970
vt 0.678841 0.218360
vt 0.739977 0.540699
vt 0.652688 0.830693
vt 0.384694 0.292620
vt 0.357771 0.113537
vt 0.446573 0.231325
vt 0.757119 0.813325
vt 0.168758 0.970532
vt 0.679010 0.405374
vt 0.753700 0.104783
vt 0.580911 0.175187
vt 0.595378 0.320747
vn 0.0422 -0.0092 0.9991
vn -0.0792 0.0404 0.9960
vn -0.5348 0.2614 0.8035
vn -0.6184 0.3560 0.7006
vn 0.0261 0.5719 0.8199
vn -0.2703 -0.4046 -0.8736
vn 0.1430 -0.3251 0.9348
vn -0.0908 0.0558 0.9943
vn 0.8247 -0.0514 0.5633
vn 0.4298 -0.4696 0.7712
vn -0.4728 0.8347 0.2824
vn 0.4827 0.7020 0.5236
vn 0.4069 0.2435 0.8804
vn -0.2670 -0.3545 -0.8961
vn -0.1066 -0.4979 0.8607
vn -0.2130 -0.1718 0.9618
vn -0.3957 -0.3478 -0.8500
vn -0.6525 -0.1547 0.7418
usemtl None
s off
f 5/1/1 12/2/1 2/3/1
f 5/1/2 10/4/2 12/2/2
f 10/4/3 3/5/3 7/6/3
f 3/5/4 6/7/4 7/6/4
f 5/8/5 13/9/5 3/10/5
f 14/11/6 9/12/6 8/13/6
f 9/14/7 2/15/7 12/2/7
f 5/1/8 3/5/8 10/4/8
f 4/16/9 2/17/9 1/18/9
f 1/19/10 2/15/10 9/14/10
f 13/20/11 6/7/11 3/5/11
f 13/9/12 5/8/12 4/16/12
f 2/17/13 4/16/13 5/8/13
f 8/13/14 11/21/14 14/11/14
f 8/13/15 9/12/15 12/22/15
f 12/22/16 10/23/16 8/13/16
f 7/24/17 11/21/17 8/13/17
f 10/23/18 7/24/18 8/13/18
