# Blender v2.82 (sub 7) OBJ File: 'DungeonGroblinBlendfile.blend'
# www.blender.org
mtllib GroundRock4.mtl
o Wall_Rock.029_Cube.116
v 69.715363 50.275631 -4.514028
v 98.016068 -11.019306 -7.796961
v 53.895916 -16.581154 2.970098
v -94.959320 15.375324 8.424675
v 9.415217 -22.724724 9.600761
v 10.990860 -89.999336 -11.003691
v -96.598648 48.020844 -3.247889
v 43.103127 40.887177 6.397275
v 5.580235 44.189800 16.047190
v -65.281815 -45.196770 1.604270
v -72.392471 -58.009003 -8.721699
v -1.837940 98.592369 -1.518100
vt 0.473992 0.277567
vt 0.611185 0.310970
vt 0.493339 0.421377
vt 0.659349 0.425931
vt 0.373127 0.241999
vt 0.327693 0.446401
vt 0.439918 0.654725
vt 0.327956 0.481041
vt 0.303931 0.765554
vt 0.545731 0.850873
vt 0.499217 0.928946
vt 0.675204 0.737322
vt 0.638196 0.814412
vt 0.831440 0.513590
vt 0.562610 0.579321
vt 0.608975 0.979970
vt 0.147762 0.523502
vt 0.851090 0.728710
vn 0.2580 0.3257 0.9096
vn 0.2623 0.3287 0.9073
vn 0.2386 -0.0131 0.9710
vn 0.1515 -0.0305 0.9880
vn 0.1796 -0.2842 0.9418
vn -0.1889 -0.5505 0.8132
vn -0.0630 -0.1421 0.9878
vn -0.5194 -0.3426 0.7828
vn -0.1533 0.2846 0.9463
vn 0.3440 0.1089 0.9326
vn 0.2417 -0.0793 0.9671
vn -0.0471 -0.0985 0.9940
vn -0.0142 -0.2931 0.9560
vn -0.9010 -0.1855 -0.3921
vn 0.2627 -0.3264 0.9080
vn -0.1889 0.3222 0.9276
usemtl None
s off
f 1/1/1 12/2/1 8/3/1
f 12/2/2 9/4/2 8/3/2
f 2/5/3 8/3/3 3/6/3
f 8/3/4 5/7/4 3/8/4
f 3/8/5 5/7/5 6/9/5
f 10/10/6 11/11/6 6/9/6
f 4/12/7 10/10/7 5/7/7
f 4/13/8 11/11/8 10/10/8
f 12/14/9 4/12/9 9/15/9
f 2/5/10 1/1/10 8/3/10
f 8/3/11 9/15/11 5/7/11
f 9/15/12 4/12/12 5/7/12
f 5/7/13 10/10/13 6/9/13
f 4/13/14 7/16/14 11/11/14
f 2/17/15 3/8/15 6/9/15
f 12/14/16 7/18/16 4/12/16
