# Blender v2.82 (sub 7) OBJ File: 'DungeonGroblinBlendfile.blend'
# www.blender.org
mtllib Vase07.mtl
o Vase_07_Cylinder.011
v -7.271930 6.373034 25.601223
v 1.202670 -9.269283 26.164387
v 11.197230 11.279261 5.026757
v 15.904209 2.513690 9.731690
v 0.142515 -15.945639 5.149815
v -4.884702 5.534566 25.410761
v 1.127113 -7.540322 25.151163
v -11.017528 3.703778 8.613544
v -12.250746 -0.258301 10.546375
v -11.067708 11.732905 9.400608
v -0.159803 12.349684 9.150995
v 10.739811 3.209914 8.872396
v 9.814986 -5.320731 8.841648
v -6.892521 -9.856879 9.618799
v -0.079641 15.817571 11.676214
v 15.358803 -0.351546 12.637283
v -0.543063 -15.493801 12.387443
v -11.425169 -8.979211 14.563342
v 8.828834 -11.392387 2.616961
v -6.847543 6.416805 22.600874
v -0.328858 9.357546 22.783499
v 6.548788 6.639466 22.309849
v -6.847980 -6.609364 21.877775
v -7.601179 7.123869 0.488524
v -1.604660 13.224842 1.675364
v 10.229396 7.606011 1.231450
v 6.742200 7.136919 25.742771
v 2.406300 -12.196040 1.136148
v -2.119212 -12.140530 0.939562
v -12.137012 -6.763293 2.159649
v 12.650237 -9.873333 10.397755
v -11.722074 -11.140331 5.892861
v 15.378512 -4.505513 7.839403
v 12.256324 10.916420 8.280251
v -14.996957 6.062965 9.335990
v -9.396849 -0.444858 26.198172
v 9.441206 -6.862203 0.697161
v -6.304797 -6.979672 26.247299
v -5.179630 6.894676 26.458220
v -7.993491 0.118855 26.332346
v 0.296316 7.761206 26.772179
v -5.056959 -5.732289 26.204338
v -6.276415 -2.716981 25.668644
v 7.555765 -0.713281 25.682129
v 0.750696 -8.338074 26.375885
v -6.817308 9.954620 10.651841
v 3.182029 11.118296 12.725134
v 11.002218 3.283773 12.339973
v 9.934802 -5.702661 12.438048
v -0.472686 -11.594963 12.612673
v 9.718506 7.410820 10.231497
v -0.114761 12.847202 10.907223
v 5.573653 -5.551684 23.565922
v -1.602945 10.531842 8.353529
v 3.915155 -9.856851 8.500193
v -11.468189 -3.290193 8.919950
v -1.008401 -11.009009 8.595043
v 5.570563 14.882519 10.246462
v 4.331614 -14.947379 11.211540
v -15.975739 -0.535235 11.314222
v 9.350312 -11.029016 14.894950
v -4.569783 -12.811801 15.854697
v -6.706507 12.114281 15.407257
v -10.641855 10.861561 3.724965
v -0.667943 15.964401 5.513490
v 14.732653 -0.535811 2.370408
v 5.014954 12.967441 2.329655
v 14.712015 4.138448 3.940748
v 13.580888 -7.202552 4.089731
v 9.603662 -1.508123 25.286053
v 5.775687 -7.833828 24.621613
v -0.559602 -9.597441 23.076529
v -7.341329 -6.466116 24.096098
v -0.397133 10.351279 24.940830
v -9.357624 -0.675449 22.604359
v 2.808318 8.764373 22.646326
v 9.510604 -0.324255 22.488598
v -9.015096 2.773186 23.481972
v -9.906766 -3.780288 0.612768
v -14.851903 -6.020403 7.204549
v -6.080845 -14.262170 4.426457
v 6.249055 14.597436 5.771642
v -6.691152 14.342732 5.465752
v -15.845877 1.949201 5.026962
v 13.172976 -5.777876 14.460432
v 13.108352 5.934381 14.501571
v 9.122904 11.141164 14.856921
v -11.438481 7.929959 15.803342
v 3.228284 9.517715 0.440974
v 11.638059 0.179054 0.657700
v 6.505241 -5.528115 26.476753
v 5.908198 6.458661 26.174809
v -7.217038 0.666349 25.406719
v 5.867080 4.752572 25.761799
v -0.006543 9.238729 26.438398
v 8.603353 0.576682 26.449541
v 5.931286 10.253301 9.217270
v 7.087546 -9.783582 10.345633
v 8.553268 0.077154 8.014011
v -9.960845 -5.739398 12.043643
v 12.034892 -1.900966 10.381310
v -5.437428 14.888696 10.194130
v 6.056433 -14.863566 7.319729
v -6.461307 -14.528283 10.187170
v -13.136679 3.093197 1.838666
v -2.647039 -8.784809 22.504219
v 2.500164 -9.033327 22.651154
v 7.620509 -5.593476 22.566711
v 8.899616 2.686507 22.594986
v 11.310165 -11.361361 5.404490
vt 0.624748 0.415052
vt 0.566741 0.454225
vt 0.565509 0.407288
vt 0.410006 0.483613
vt 0.416799 0.422707
vt 0.466636 0.451714
vt 0.339810 0.463895
vt 0.327686 0.427035
vt 0.386571 0.448491
vt 0.310017 0.416624
vt 0.258301 0.425118
vt 0.306698 0.251930
vt 0.289886 0.192325
vt 0.392457 0.091218
vt 0.301341 0.267443
vt 0.281075 0.283425
vt 0.262767 0.252202
vt 0.370797 0.280463
vt 0.363303 0.302829
vt 0.343594 0.296645
vt 0.394087 0.276046
vt 0.381636 0.289843
vt 0.525505 0.153801
vt 0.472135 0.115860
vt 0.584499 0.054514
vt 0.195663 0.218204
vt 0.210618 0.152489
vt 0.243437 0.194653
vt 0.387439 0.339013
vt 0.354924 0.423259
vt 0.340478 0.327806
vt 0.576726 0.196206
vt 0.559368 0.284114
vt 0.499673 0.229976
vt 0.227572 0.253893
vt 0.172733 0.286420
vt 0.187926 0.450295
vt 0.197205 0.436749
vt 0.262305 0.453645
vt 0.000104 0.424804
vt 0.096473 0.446987
vt 0.008426 0.460082
vt 0.431081 0.193487
vt 0.401420 0.236239
vt 0.374652 0.262237
vt 0.018310 0.483199
vt 0.109929 0.467824
vt 0.223107 0.466902
vt 0.260292 0.469190
vt 0.122757 0.423041
vt 0.179853 0.465616
vt 0.866212 0.238455
vt 0.845355 0.266551
vt 0.682308 0.215487
vt 0.548050 0.481796
vt 0.649387 0.497224
vt 0.632255 0.510248
vt 0.879189 0.267580
vt 0.885217 0.402806
vt 0.854149 0.407916
vt 0.857385 0.364397
vt 0.856359 0.305564
vt 0.840257 0.335309
vt 0.675572 0.294418
vt 0.693446 0.127106
vt 0.909732 0.127726
vt 0.877843 0.171473
vt 0.870450 0.334848
vt 0.906222 0.295114
vt 0.875102 0.375149
vt 0.879847 0.213815
vt 0.907651 0.174891
vt 0.890479 0.177692
vt 0.733317 0.065320
vt 0.747667 0.000104
vt 0.916319 0.473974
vt 0.883630 0.475057
vt 0.882942 0.438833
vt 0.481031 0.200204
vt 0.415840 0.286672
vt 0.396361 0.310033
vt 0.280521 0.327419
vt 0.303232 0.289472
vt 0.277237 0.233794
vt 0.337020 0.277011
vt 0.476490 0.415978
vt 0.006223 0.376746
vt 0.122644 0.375437
vt 0.169338 0.400435
vt 0.206194 0.395322
vt 0.119566 0.251764
vt 0.067837 0.128274
vt 0.675365 0.167121
vt 0.500409 0.303688
vt 0.510065 0.414923
vt 0.449873 0.305978
vt 0.421910 0.329285
vt 0.315710 0.346628
vt 0.266992 0.402311
vt 0.247108 0.288083
vt 0.489812 0.471067
vt 0.350590 0.278285
vt 0.318249 0.313929
vt 0.324431 0.290904
vt 0.412938 0.251743
vt 0.455290 0.278387
vt 0.436571 0.239836
vt 0.147126 0.176900
vt 0.359080 0.320314
vt 0.333822 0.473233
vt 0.475592 0.488838
vt 0.923152 0.504425
vt 0.749249 0.591054
vt 0.726216 0.554192
vt 0.566144 0.468170
vt 0.856644 0.191271
vt 0.704475 0.519346
vt 0.694532 0.427390
vt 0.709405 0.364720
vt 0.999897 0.089131
vt 0.999896 0.518636
vt 0.282516 0.082276
vt 0.183454 0.069143
vt 0.486289 0.000104
vt 0.675365 0.422511
vt 0.672268 0.469732
vt 0.401604 0.529297
vt 0.335972 0.493935
vn 0.4778 0.8652 -0.1523
vn 0.8021 -0.5477 0.2379
vn 0.2809 -0.9579 -0.0585
vn -0.3949 -0.9056 0.1545
vn -0.0020 -0.0110 -0.9999
vn -0.8711 -0.2276 -0.4353
vn 0.3145 -0.8428 -0.4367
vn 0.6381 -0.5261 -0.5622
vn 0.1877 0.8600 -0.4745
vn -0.6102 0.7749 -0.1648
vn 0.2679 -0.8492 0.4551
vn 0.5459 0.8049 0.2326
vn -0.7910 0.5450 0.2779
vn -0.0825 -0.0316 0.9961
vn -0.3228 0.7175 0.6172
vn 0.1392 0.1025 -0.9849
vn 0.0145 -0.0101 -0.9998
vn -0.0879 0.2023 0.9754
vn 0.0497 -0.6026 0.7965
vn -0.1005 0.1345 0.9858
vn 0.7268 -0.3132 0.6113
vn -0.4145 0.2068 0.8862
vn 0.6689 0.2404 0.7034
vn -0.8642 -0.4145 -0.2853
vn 0.3109 0.2696 0.9114
vn -0.9626 -0.2594 0.0784
vn -0.1825 0.9691 0.1657
vn -0.8956 0.3387 -0.2885
vn 0.3885 -0.8745 -0.2904
vn -0.1464 0.1164 0.9824
vn -0.4165 0.0419 0.9082
vn -0.1180 -0.1465 0.9821
vn -0.1196 -0.3177 0.9406
vn 0.8755 -0.4193 -0.2402
vn 0.8163 0.5748 0.0568
vn -0.8526 0.5160 0.0832
vn 0.4950 0.8665 -0.0645
vn 0.8701 -0.4847 -0.0891
vn 0.5376 -0.8231 0.1829
vn -0.8224 -0.5447 0.1639
vn -0.2680 0.0457 -0.9623
vn -0.2635 -0.2815 -0.9227
vn 0.5113 -0.7704 -0.3809
vn 0.9263 -0.3348 -0.1725
vn -0.3678 0.8401 -0.3986
vn -0.6865 0.2426 -0.6855
vn -0.1990 0.8491 0.4894
vn 0.2647 0.8413 0.4713
vn 0.4438 0.6909 0.5706
vn 0.8497 0.1547 0.5040
vn 0.8469 -0.1721 0.5032
vn -0.0971 -0.8386 0.5360
vn -0.4877 -0.6938 0.5300
vn -0.8339 -0.2626 0.4855
vn -0.9219 0.3079 0.2352
vn -0.5042 0.8616 -0.0587
vn 0.8570 0.5009 -0.1209
vn 0.9296 0.2884 0.2293
vn -0.2793 -0.9250 0.2577
vn -0.8582 -0.4037 0.3171
vn 0.0020 -0.0149 -0.9999
vn 0.0413 -0.1360 -0.9898
vn -0.2540 -0.9653 -0.0614
vn -0.4973 -0.8645 -0.0728
vn 0.9316 -0.2329 -0.2791
vn 0.9891 -0.0356 -0.1427
vn 0.8678 -0.4932 -0.0613
vn 0.8592 0.4577 -0.2287
vn 0.9193 0.3851 -0.0812
vn 0.1937 0.9810 0.0049
vn 0.5600 0.8279 0.0322
vn -0.4919 0.8701 0.0300
vn -0.1505 0.9858 -0.0739
vn -0.9864 0.1591 0.0425
vn -0.5035 -0.7658 0.4000
vn -0.2798 -0.8889 0.3626
vn 0.2231 -0.8040 0.5513
vn -0.2633 0.8767 0.4025
vn -0.4977 0.8101 0.3099
vn -0.0660 -0.2513 0.9656
vn -0.7600 0.2638 0.5940
vn 0.9173 0.2299 -0.3250
vn -0.5042 -0.1917 0.8421
vn -0.5447 -0.8071 -0.2279
vn -0.2097 0.9226 0.3238
vn 0.7033 0.6677 -0.2439
vn -0.4791 0.8186 -0.3169
vn -0.4949 -0.8167 -0.2968
vn 0.0300 -0.0033 0.9995
vn 0.0088 0.0448 0.9990
vn -0.1589 -0.1562 0.9749
vn 0.0348 0.0224 0.9991
vn 0.8737 -0.4041 -0.2708
vn 0.3760 -0.6060 0.7009
vn 0.8816 0.4200 0.2156
vn 0.9018 0.2109 0.3773
vn 0.9309 -0.3102 0.1929
vn 0.7502 -0.5115 0.4191
vn 0.5042 -0.8388 0.2054
vn 0.1287 -0.9889 0.0739
vn -0.8881 -0.3780 0.2616
vn -0.7688 0.3730 -0.5194
vn -0.4518 0.3449 -0.8228
vn -0.3098 0.4657 -0.8289
vn -0.2163 0.8189 -0.5317
vn 0.0897 0.8002 -0.5930
vn 0.6863 0.4273 -0.5886
vn 0.5134 0.2753 -0.8128
vn 0.6120 -0.1952 -0.7664
vn 0.5657 -0.3854 -0.7290
vn 0.2533 -0.4063 -0.8779
vn 0.2328 -0.7727 -0.5905
vn -0.1359 -0.7702 -0.6231
vn -0.3789 -0.5344 -0.7556
vn -0.4952 -0.0784 -0.8652
vn -0.9137 -0.3644 -0.1797
vn -0.4543 -0.8898 -0.0436
vn 0.9791 0.1969 0.0508
vn 0.1821 0.8482 0.4974
vn 0.8497 0.1546 0.5040
vn -0.0560 -0.8374 0.5437
vn -0.0051 -0.5844 -0.8114
vn -0.9945 0.1032 -0.0175
vn 0.4146 0.9087 -0.0492
vn 0.1522 0.8995 -0.4095
vn 0.9207 0.3081 0.2394
vn 0.8473 -0.4689 0.2495
vn 0.2076 -0.9500 0.2333
vn -0.8279 -0.4073 -0.3856
vn 0.4206 -0.8306 -0.3651
vn 0.9808 0.0660 -0.1834
vn 0.4259 0.7491 -0.5074
vn 0.4609 -0.6718 0.5799
vn 0.7574 0.5564 0.3418
vn 0.2601 0.8380 0.4797
vn -0.5929 0.7070 0.3856
vn -0.8766 0.2528 0.4094
vn 0.5138 0.1120 0.8506
vn -0.1052 0.0252 0.9941
vn 0.8063 -0.3867 0.4476
vn -0.9075 -0.2757 -0.3170
vn -0.9579 -0.0874 -0.2736
vn -0.0664 -0.2333 0.9701
vn -0.9716 -0.2231 0.0783
vn -0.2978 0.9188 -0.2591
vn -0.8161 0.4770 -0.3263
vn -0.7103 0.6427 -0.2871
vn 0.4430 -0.8412 -0.3099
vn -0.5511 -0.7889 -0.2717
vn -0.5515 -0.7988 0.2404
vn 0.8371 -0.4728 -0.2750
vn 0.9240 0.3362 -0.1822
vn 0.8735 -0.0350 0.4856
vn -0.8371 0.5403 0.0853
vn 0.3765 -0.8938 0.2436
vn 0.9027 -0.3235 0.2838
vn 0.9912 -0.0983 0.0891
vn 0.5746 -0.8137 0.0883
vn -0.1770 -0.9832 0.0446
vn -0.0586 0.2458 -0.9675
vn 0.4536 0.5798 -0.6768
vn 0.2067 0.3853 -0.8993
vn 0.0203 -0.7363 -0.6764
vn -0.7682 0.2722 0.5794
vn -0.8461 0.1892 0.4983
vn -0.3491 0.7379 0.5776
vn -0.5434 0.6632 0.5146
vn 0.7011 0.4565 0.5478
vn 0.6885 0.4906 0.5341
vn 0.7902 -0.2753 0.5475
vn -0.4464 -0.7024 0.5544
vn -0.7252 -0.3772 0.5760
vn -0.8657 0.4871 -0.1153
vn -0.3969 0.7691 0.5009
vn 0.4182 -0.6461 0.6385
vn 0.0739 -0.1866 0.9796
vn -0.4209 -0.9070 -0.0137
vn -0.9452 -0.3264 0.0106
vn -0.0022 -0.0411 -0.9992
vn -0.9865 -0.1442 -0.0773
vn 0.1534 0.9874 -0.0396
vn -0.2600 0.9644 0.0478
vn -0.8121 0.5645 -0.1476
vn -0.8484 0.4562 -0.2684
vn 0.7181 -0.4811 0.5028
vn -0.0097 0.0441 0.9990
vn 0.5541 -0.1868 0.8112
vn 0.3240 0.1917 0.9264
vn 0.3027 0.8012 0.5162
vn 0.2004 0.3391 0.9192
vn -0.4543 -0.1531 0.8776
vn 0.2139 0.9211 -0.3252
vn 0.3643 0.8935 -0.2625
vn -0.3723 0.9214 0.1117
vn -0.4064 0.8177 0.4077
vn 0.3178 0.7468 0.5841
vn -0.4913 -0.3739 0.7866
vn 0.2099 0.9711 0.1136
vn -0.3251 -0.9454 -0.0217
vn -0.4395 0.5163 0.7350
vn 0.8989 0.3082 -0.3114
vn 0.9045 0.2933 -0.3096
vn -0.9228 0.2498 0.2933
vn -0.3191 -0.9048 -0.2818
vn 0.0604 0.0398 0.9974
vn 0.2131 0.2491 0.9447
vn -0.6354 0.0661 0.7693
vn 0.3931 -0.5130 0.7631
vn 0.1618 -0.9855 0.0505
vn -0.6431 -0.7376 0.2059
vn -0.3269 0.6926 -0.6430
vn 0.1053 0.4350 -0.8942
vn 0.6048 0.1747 -0.7770
vn 0.4101 -0.2935 -0.8635
vn -0.4931 -0.5912 -0.6383
vn -0.7411 -0.0968 -0.6644
usemtl None
s off
f 76/1/1 27/2/1 22/3/1
f 91/4/2 108/5/2 70/6/2
f 2/7/3 72/8/3 71/9/3
f 106/10/4 72/8/4 73/11/4
f 79/12/5 24/13/5 89/14/5
f 30/15/6 80/16/6 84/17/6
f 19/18/7 103/19/7 5/20/7
f 19/18/8 69/21/8 110/22/8
f 82/23/9 67/24/9 65/25/9
f 10/26/10 83/27/10 64/28/10
f 61/29/11 107/30/11 17/31/11
f 58/32/12 87/33/12 34/34/12
f 35/35/13 88/36/13 10/26/13
f 40/37/14 36/38/14 38/39/14
f 74/40/15 39/41/15 95/42/15
f 26/43/16 90/44/16 89/14/16
f 90/44/17 37/45/17 89/14/17
f 95/42/18 39/41/18 41/46/18
f 41/46/19 39/41/19 6/47/19
f 43/48/20 38/39/20 42/49/20
f 6/47/21 39/41/21 40/37/21
f 39/41/22 1/50/22 36/38/22
f 43/48/23 93/51/23 40/37/23
f 51/52/24 48/53/24 94/54/24
f 94/55/25 95/56/25 41/57/25
f 12/58/26 48/53/26 51/52/26
f 57/59/27 50/60/27 98/61/27
f 101/62/28 49/63/28 44/64/28
f 41/65/29 46/66/29 52/67/29
f 13/68/30 99/69/30 55/70/30
f 12/58/31 99/69/31 13/68/31
f 97/71/32 54/72/32 99/69/32
f 11/73/33 54/72/33 97/71/33
f 6/74/34 93/75/34 46/66/34
f 56/76/35 100/77/35 14/78/35
f 13/68/36 49/63/36 101/62/36
f 3/79/37 58/32/37 34/34/37
f 33/80/38 31/81/38 110/22/38
f 61/29/39 103/19/39 31/81/39
f 18/82/40 80/16/40 32/83/40
f 79/12/41 105/84/41 24/13/41
f 29/85/42 30/15/42 79/12/42
f 71/9/43 107/30/43 108/5/43
f 70/6/44 108/5/44 77/86/44
f 74/40/45 21/87/45 20/88/45
f 78/89/46 20/88/46 75/90/46
f 63/91/47 21/87/47 15/92/47
f 76/1/48 87/33/48 15/93/48
f 22/3/49 87/33/49 76/1/49
f 86/94/50 109/95/50 16/96/50
f 77/86/51 85/97/51 16/96/51
f 106/10/52 62/98/52 17/31/52
f 18/82/53 62/98/53 23/99/53
f 18/82/54 75/90/54 60/100/54
f 1/50/55 78/89/55 36/38/55
f 20/88/56 1/50/56 74/40/56
f 22/3/57 27/2/57 109/95/57
f 109/95/58 27/2/58 96/101/58
f 38/39/59 72/8/59 2/7/59
f 36/38/60 73/11/60 38/39/60
f 37/45/61 79/12/61 89/14/61
f 28/102/62 29/85/62 37/45/62
f 104/103/63 81/104/63 5/20/63
f 32/83/64 81/104/64 104/103/64
f 66/105/65 33/80/65 69/21/65
f 4/106/66 33/80/66 66/105/66
f 69/21/67 33/80/67 110/22/67
f 3/79/68 34/34/68 68/107/68
f 68/107/69 34/34/69 4/106/69
f 15/93/70 82/23/70 65/25/70
f 82/23/71 58/32/71 3/79/71
f 102/108/72 83/27/72 10/26/72
f 15/92/73 83/27/73 102/108/73
f 35/35/74 84/17/74 60/100/74
f 18/82/75 104/103/75 62/98/75
f 62/98/76 104/103/76 17/31/76
f 17/31/77 59/109/77 61/29/77
f 15/92/78 102/108/78 63/91/78
f 63/91/79 102/108/79 10/26/79
f 45/110/80 38/39/80 2/7/80
f 44/111/81 91/4/81 96/101/81
f 9/112/82 93/113/82 43/114/82
f 94/55/83 96/101/83 92/115/83
f 47/116/84 97/71/84 51/52/84
f 98/61/85 55/70/85 57/59/85
f 14/78/86 100/77/86 42/117/86
f 98/61/87 7/118/87 53/119/87
f 94/54/88 41/65/88 47/116/88
f 54/72/89 8/120/89 99/69/89
f 57/59/90 55/70/90 99/69/90
f 97/71/91 99/69/91 12/58/91
f 8/121/92 57/59/92 99/69/92
f 8/121/93 93/113/93 9/112/93
f 46/66/94 54/72/94 11/73/94
f 86/94/95 4/106/95 34/34/95
f 16/96/96 4/106/96 86/94/96
f 85/97/97 31/81/97 16/96/97
f 61/29/98 31/81/98 85/97/98
f 59/109/99 103/19/99 61/29/99
f 5/20/100 59/109/100 17/31/100
f 60/100/101 80/16/101 18/82/101
f 64/28/102 105/84/102 84/17/102
f 24/13/103 105/84/103 64/28/103
f 24/13/104 64/28/104 25/122/104
f 25/122/105 83/27/105 65/123/105
f 65/25/106 67/24/106 25/124/106
f 68/107/107 26/43/107 3/79/107
f 90/44/108 68/107/108 66/105/108
f 90/44/109 69/21/109 37/45/109
f 37/45/110 69/21/110 19/18/110
f 37/45/111 19/18/111 28/102/111
f 28/102/112 19/18/112 5/20/112
f 81/104/113 29/85/113 5/20/113
f 29/85/114 81/104/114 30/15/114
f 79/12/115 30/15/115 105/84/115
f 23/99/116 73/11/116 75/90/116
f 23/99/117 106/10/117 73/11/117
f 77/86/118 109/95/118 70/6/118
f 21/125/119 76/1/119 15/93/119
f 109/95/120 77/86/120 16/96/120
f 107/30/121 106/10/121 17/31/121
f 72/8/122 106/10/122 107/30/122
f 75/90/123 36/38/123 78/89/123
f 74/126/124 27/2/124 76/1/124
f 21/125/125 74/126/125 76/1/125
f 96/101/126 70/6/126 109/95/126
f 91/4/127 71/9/127 108/5/127
f 71/9/128 72/8/128 107/30/128
f 30/15/129 32/83/129 80/16/129
f 19/18/130 110/22/130 103/19/130
f 4/106/131 66/105/131 68/107/131
f 3/79/132 67/24/132 82/23/132
f 108/5/133 107/30/133 61/29/133
f 34/34/134 87/33/134 86/94/134
f 15/93/135 87/33/135 58/32/135
f 10/26/136 88/36/136 63/91/136
f 60/100/137 88/36/137 35/35/137
f 43/48/138 40/37/138 38/39/138
f 40/37/139 39/41/139 36/38/139
f 6/47/140 40/37/140 93/51/140
f 94/54/141 48/53/141 44/64/141
f 101/62/142 44/64/142 48/53/142
f 94/55/143 92/115/143 95/56/143
f 12/58/144 101/62/144 48/53/144
f 98/61/145 50/60/145 7/118/145
f 44/64/146 49/63/146 53/119/146
f 98/61/147 53/119/147 49/63/147
f 6/74/148 46/66/148 41/65/148
f 51/52/149 94/54/149 47/116/149
f 11/73/150 47/116/150 52/67/150
f 8/120/151 46/66/151 93/75/151
f 9/112/152 100/77/152 56/76/152
f 8/121/153 9/112/153 56/76/153
f 13/68/154 98/61/154 49/63/154
f 11/73/155 52/67/155 46/66/155
f 16/96/156 31/81/156 33/80/156
f 4/106/157 16/96/157 33/80/157
f 110/22/158 31/81/158 103/19/158
f 5/20/159 17/31/159 104/103/159
f 89/14/160 24/13/160 25/122/160
f 3/79/161 26/43/161 67/24/161
f 26/43/162 89/14/162 67/24/162
f 5/20/163 29/85/163 28/102/163
f 20/88/164 88/36/164 75/90/164
f 60/100/165 75/90/165 88/36/165
f 21/87/166 63/91/166 20/88/166
f 88/36/167 20/88/167 63/91/167
f 22/3/168 109/95/168 86/94/168
f 87/33/169 22/3/169 86/94/169
f 108/5/170 85/97/170 77/86/170
f 23/99/171 62/98/171 106/10/171
f 23/99/172 75/90/172 18/82/172
f 20/88/173 78/89/173 1/50/173
f 74/40/174 1/50/174 39/41/174
f 91/4/175 2/7/175 71/9/175
f 91/4/176 45/110/176 2/7/176
f 38/39/177 73/11/177 72/8/177
f 75/90/178 73/11/178 36/38/178
f 37/45/179 29/85/179 79/12/179
f 60/100/180 84/17/180 80/16/180
f 15/93/181 58/32/181 82/23/181
f 15/92/182 65/123/182 83/27/182
f 10/26/183 64/28/183 35/35/183
f 64/28/184 84/17/184 35/35/184
f 108/5/185 61/29/185 85/97/185
f 45/110/186 42/49/186 38/39/186
f 96/101/187 91/4/187 70/6/187
f 92/115/188 96/101/188 27/2/188
f 74/126/189 95/56/189 27/2/189
f 95/56/190 92/115/190 27/2/190
f 44/111/191 96/101/191 94/55/191
f 7/118/192 50/60/192 42/117/192
f 14/78/193 42/117/193 50/60/193
f 53/127/194 7/128/194 91/4/194
f 45/110/195 91/4/195 7/128/195
f 7/128/196 42/49/196 45/110/196
f 97/71/197 12/58/197 51/52/197
f 57/59/198 14/78/198 50/60/198
f 11/73/199 97/71/199 47/116/199
f 13/68/200 55/70/200 98/61/200
f 42/117/201 100/77/201 43/114/201
f 9/112/202 43/114/202 100/77/202
f 53/127/203 91/4/203 44/111/203
f 47/116/204 41/65/204 52/67/204
f 8/121/205 56/76/205 57/59/205
f 14/78/206 57/59/206 56/76/206
f 12/58/207 13/68/207 101/62/207
f 8/120/208 54/72/208 46/66/208
f 5/20/209 103/19/209 59/109/209
f 18/82/210 32/83/210 104/103/210
f 25/122/211 64/28/211 83/27/211
f 89/14/212 25/124/212 67/24/212
f 90/44/213 26/43/213 68/107/213
f 90/44/214 66/105/214 69/21/214
f 32/83/215 30/15/215 81/104/215
f 84/17/216 105/84/216 30/15/216
