# Blender v2.82 (sub 7) OBJ File: 'DungeonGroblinBlendfile.blend'
# www.blender.org
mtllib Vase01.mtl
o Vase_01_Cylinder.005
v -10.952893 5.011688 -0.085012
v 0.403582 16.389170 39.529938
v 14.516026 1.450876 40.445526
v 12.491881 -8.900749 40.304581
v 1.572607 -14.998179 38.798962
v -3.488064 20.769232 7.929919
v 14.885574 -14.474194 6.241389
v 10.593489 8.880610 40.486244
v -0.468718 7.723909 27.197441
v 8.717175 -0.648123 27.356010
v 2.677664 -0.507463 13.987768
v -8.069090 5.938169 31.230282
v -10.919137 14.063157 2.992338
v 9.145733 9.119417 0.124743
v 11.070716 10.729760 39.145958
v -0.545863 -13.920723 0.605520
v -20.547867 4.856390 8.799770
v 2.111652 -20.772676 12.556574
v 0.058950 10.869074 25.577015
v -8.294154 -7.760907 25.540621
v -10.837728 4.132829 25.783567
v -15.041368 -0.998203 40.499096
v 13.871245 -1.681901 0.226221
v 0.153297 14.453132 40.537010
v 0.645205 -13.315426 40.483055
v 5.638666 6.445323 27.104788
v -4.657825 4.980990 26.642557
v 2.809966 -5.410651 26.320965
v -1.374297 -3.941594 27.363131
v -10.033366 9.064954 40.349445
v 7.317178 -7.318706 35.184708
v -2.949116 1.284040 13.095360
v -1.632193 2.987022 14.037752
v 2.316678 2.288625 13.478186
v -0.863459 -2.439873 13.659112
v -2.798584 -0.632384 13.079308
v 1.594179 -1.599520 12.074845
v 15.972563 -8.268376 19.278137
v -17.170177 7.360960 17.725336
v 3.744117 -16.524311 19.717762
v -10.171687 -15.736444 18.089401
v -18.333660 -3.803695 18.148350
v 11.279352 -2.280154 23.593546
v 2.548981 -11.254324 31.268295
v 9.704223 6.266327 23.860157
v -0.232269 11.572245 31.789272
v 16.661461 11.774572 6.664606
v 6.850089 18.865854 5.937175
v -8.525319 -12.163858 40.323502
v -9.340153 -3.531281 31.050716
v -18.132154 -10.861143 8.911503
v -9.986135 -16.524012 8.564256
v -11.068193 11.015530 39.495346
v -5.073797 -0.818389 30.686998
v -0.169925 3.614031 12.597204
v 22.036158 1.340485 10.909060
v -11.506101 16.346107 16.731710
v 2.166875 18.682737 17.842113
v 15.183579 13.308609 16.896862
v 1.310132 -11.712120 25.596567
v -15.316580 -3.607583 1.806583
v 9.573336 6.260921 39.897041
v 10.776731 -6.601859 38.938419
v -7.277460 -9.415538 40.286171
v -12.141487 -1.184544 40.487713
v 0.922590 -11.457975 40.057510
v 9.142511 -7.829327 39.606525
v 1.100192 11.852694 40.066570
v -2.153991 -11.419921 40.143772
v 8.948601 7.542576 39.684410
v -8.352875 6.163201 40.230759
v -7.512252 7.931645 39.618828
v -8.367610 7.429901 39.615936
v 0.037946 11.956973 39.838043
v -6.858728 -10.394402 40.190372
v 2.678989 -10.760985 40.518600
v 12.523862 0.686145 39.879185
v 10.731807 9.787824 34.752991
v -12.728696 3.373854 36.874313
v 14.187176 -0.056022 36.762077
v 12.727064 -7.094975 36.420906
v -0.059005 15.163536 36.034325
v 3.212717 -14.846252 35.803268
v -13.564652 -2.823276 36.763226
v 12.965048 4.186230 35.914394
v -10.960896 9.601863 36.896172
v 7.832506 -12.303592 36.553185
v 0.214690 -13.664502 35.536732
v -5.220755 12.994925 36.445618
v 3.709909 12.947345 35.572388
v -10.518598 -6.581779 34.804413
v 7.354853 6.614037 28.753033
v -9.598102 4.902211 28.594784
v 11.063923 -1.347969 28.520649
v -0.829643 10.597409 27.728626
v -6.292221 7.295502 28.359360
v 10.576699 -4.218170 28.958908
v 9.758547 5.128964 28.582455
v 5.015820 -8.238879 28.701061
v 2.916084 8.917078 28.231707
v -9.333265 -4.764497 28.848516
v 1.547631 -11.214888 28.469990
v -10.208402 -0.653729 28.779646
v -2.337508 -9.680006 28.687103
vt 0.095862 0.344202
vt 0.120677 0.300868
vt 0.128533 0.352513
vt 0.107908 0.515983
vt 0.130636 0.521661
vt 0.117512 0.619936
vt 0.219538 0.530716
vt 0.156221 0.389748
vt 0.205003 0.359864
vt 0.482163 0.308672
vt 0.509679 0.235611
vt 0.584871 0.452617
vt 0.452746 0.408033
vt 0.429348 0.348333
vt 0.419194 0.258128
vt 0.472709 0.169035
vt 0.275884 0.396790
vt 0.363476 0.317189
vt 0.381619 0.417323
vt 0.373422 0.531264
vt 0.387462 0.857768
vt 0.272753 0.804807
vt 0.379851 0.651744
vt 0.362493 0.161095
vt 0.208480 0.107818
vt 0.330875 0.018709
vt 0.254284 0.258024
vt 0.358427 0.240025
vt 0.014818 0.162048
vt 0.026723 0.143770
vt 0.065549 0.262215
vt 0.080995 0.249171
vt 0.085349 0.763227
vt 0.040895 0.869592
vt 0.027701 0.853595
vt 0.043115 0.284405
vt 0.044567 0.270389
vt 0.632988 0.107323
vt 0.763564 0.119980
vt 0.746385 0.192798
vt 0.875922 0.169666
vt 0.868307 0.190717
vt 0.794534 0.066989
vt 0.082592 0.436415
vt 0.107148 0.439343
vt 0.907218 0.237394
vt 0.896410 0.217113
vt 0.949669 0.240891
vt 0.917787 0.246965
vt 0.817334 0.368412
vt 0.779422 0.264591
vt 0.434922 0.090349
vt 0.497327 0.000139
vt 0.464540 0.743325
vt 0.495366 0.606121
vt 0.439094 0.505976
vt 0.227031 0.319295
vt 0.178946 0.241966
vt 0.088556 0.192982
vt 0.135228 0.131855
vt 0.068922 0.135472
vt 0.136136 0.896986
vt 0.132105 0.786012
vt 0.205292 0.811960
vt 0.215819 0.778794
vt 0.106491 0.700404
vt 0.149596 0.635732
vt 0.138626 0.693980
vt 0.150951 0.575648
vt 0.628910 0.542509
vt 0.808165 0.714926
vt 0.618645 0.656092
vt 0.495037 0.849819
vt 0.290211 0.514228
vt 0.304325 0.696217
vt 0.204391 0.916826
vt 0.093368 0.625263
vt 0.094895 0.604571
vt 0.843056 0.493329
vt 0.765364 0.482749
vt 0.799537 0.306113
vt 0.651032 0.351282
vt 0.674159 0.265120
vt 0.640674 0.335083
vt 0.626444 0.265957
vt 0.903583 0.159206
vt 0.882323 0.197394
vt 0.686688 0.419767
vt 0.866490 0.494333
vt 0.894728 0.361317
vt 0.939958 0.375105
vt 0.023057 0.827568
vt 0.067168 0.756514
vt 0.932080 0.255051
vt 0.246890 0.468177
vt 0.234216 0.368216
vt 0.250935 0.576070
vt 0.253629 0.518934
vt 0.190339 0.869300
vt 0.203753 0.203796
vt 0.618366 0.710342
vt 0.139696 0.734089
vt 0.160205 0.505272
vt 0.155357 0.533105
vt 0.496282 0.994893
vt 0.949669 0.505564
vt 0.098083 0.777770
vt 0.091488 0.490571
vt 0.089383 0.445199
vt 0.618645 0.169163
vt 0.321754 0.999861
vt 0.217387 0.252074
vt 0.618366 0.054274
vt 0.614908 0.880091
vt 0.076361 0.886935
vt 0.101312 0.849199
vt 0.808165 0.505843
vt 0.670569 0.008360
vt 0.076627 0.351879
vt 0.070287 0.743441
vt 0.039084 0.262362
vt 0.856837 0.493017
vt 0.627264 0.244561
vt 0.093175 0.540595
vt 0.092614 0.521877
vt 0.663371 0.378888
vt 0.638352 0.093939
vt 0.695071 0.425986
vt 0.014392 0.833100
vt 0.235681 0.695290
vt 0.102830 0.249563
vt 0.236199 0.659645
vt 0.178523 0.914617
vt 0.186473 0.127104
vt 0.091311 0.692318
vt 0.677879 0.000139
vt 0.000139 0.184110
vn -0.8991 0.1288 -0.4183
vn 0.2412 -0.6169 0.7492
vn -0.4057 -0.6428 -0.6498
vn -0.1693 -0.1287 -0.9771
vn -0.4134 -0.5502 -0.7255
vn -0.6441 0.2097 -0.7356
vn -0.6384 -0.4398 0.6316
vn -0.1240 -0.6617 0.7395
vn 0.7295 0.1013 0.6765
vn -0.1772 0.7161 0.6751
vn -0.7615 0.1036 0.6399
vn -0.6037 0.4531 0.6559
vn -0.2650 0.4717 0.8410
vn -0.3728 0.1990 0.9063
vn 0.2312 0.4253 0.8750
vn 0.6390 0.3419 0.6891
vn -0.8873 -0.3756 0.2675
vn -0.8718 -0.3669 0.3245
vn -0.9107 -0.0427 0.4110
vn -0.1888 -0.9255 0.3283
vn 0.0282 0.0008 0.9996
vn -0.1196 0.1848 0.9755
vn 0.9887 0.0766 0.1286
vn -0.6307 0.7188 0.2925
vn 0.1975 0.9759 0.0927
vn 0.8870 -0.4412 0.1361
vn -0.3511 -0.9337 0.0704
vn -0.9709 -0.2051 -0.1237
vn -0.9261 0.2857 -0.2463
vn -0.4165 0.6431 -0.6427
vn -0.3508 0.7219 -0.5964
vn 0.2794 0.7748 -0.5671
vn 0.5256 0.8285 0.1935
vn 0.9792 -0.2029 -0.0044
vn 0.4517 -0.8639 0.2226
vn -0.8490 -0.4925 -0.1914
vn 0.0113 -0.0044 -0.9999
vn -0.8654 -0.1364 -0.4822
vn 0.8782 0.4750 0.0556
vn -0.6027 0.7826 -0.1558
vn -0.3292 -0.7929 0.5128
vn 0.7494 0.1178 0.6516
vn 0.3736 0.4888 0.7883
vn -0.0208 0.4992 0.8662
vn 0.7592 -0.3728 0.5335
vn 0.3917 0.8210 0.4153
vn -0.3692 0.8935 0.2556
vn -0.5187 -0.8257 0.2218
vn -0.1528 0.9513 0.2675
vn 0.7738 0.3677 0.5158
vn 0.4958 -0.8169 0.2948
vn -0.1539 -0.3618 0.9195
vn 0.6380 -0.6864 0.3489
vn 0.5177 0.0899 0.8508
vn -0.4330 -0.2337 0.8706
vn -0.8649 -0.0203 0.5015
vn 0.1721 0.0053 0.9851
vn 0.6914 0.7159 0.0969
vn -0.1844 0.9353 0.3021
vn 0.7478 0.0998 0.6564
vn 0.4344 -0.2771 0.8570
vn 0.4310 -0.6026 0.6717
vn -0.4920 -0.7165 0.4945
vn 0.6462 -0.7592 0.0780
vn 0.4484 0.8787 0.1635
vn -0.5846 0.8110 0.0216
vn -0.7250 0.2241 -0.6513
vn -0.0373 0.6189 -0.7845
vn 0.7671 0.1405 -0.6260
vn 0.8050 -0.1990 -0.5589
vn 0.3043 -0.3855 -0.8711
vn 0.1588 -0.8409 -0.5174
vn -0.1524 -0.8716 -0.4659
vn 0.9539 0.2383 -0.1826
vn 0.6134 -0.5897 -0.5253
vn -0.3388 -0.9119 -0.2318
vn 0.5872 0.8086 -0.0364
vn -0.6237 -0.1491 0.7673
vn -0.3262 0.5513 0.7679
vn -0.1555 0.3259 0.9325
vn 0.4472 -0.8534 0.2679
vn 0.2988 0.5083 0.8077
vn 0.0218 0.0546 0.9983
vn -0.8418 -0.4465 0.3034
vn -0.6070 0.6552 0.4497
vn 0.9925 0.0135 0.1215
vn 0.6830 -0.6782 0.2712
vn 0.5867 -0.7662 0.2620
vn 0.5087 -0.8260 0.2429
vn -0.8267 0.5390 0.1616
vn 0.3866 0.9072 0.1660
vn -0.5682 -0.8209 0.0568
vn -0.9842 -0.1506 0.0936
vn -0.9202 0.1135 0.3747
vn -0.0559 0.3216 -0.9452
vn 0.4396 0.5342 -0.7221
vn -0.4430 -0.5523 -0.7062
vn 0.3423 0.7104 -0.6149
vn 0.0032 -0.0347 -0.9994
vn -0.7276 0.6710 -0.1426
vn -0.1036 -0.7315 0.6739
vn -0.5400 0.0942 0.8364
vn 0.6414 0.3348 0.6903
vn 0.3544 0.9280 0.1149
vn -0.8493 0.4873 0.2029
vn -0.3084 0.8855 0.3475
vn -0.1894 -0.9280 0.3208
vn 0.6616 0.7423 0.1060
vn -0.9394 0.1102 0.3246
vn 0.5423 -0.7752 0.3238
vn 0.5350 -0.7745 0.3375
vn -0.7616 -0.5228 0.3829
vn 0.3102 0.6253 0.7161
vn -0.1093 -0.8438 0.5255
vn -0.3766 -0.9132 0.1560
vn -0.5241 0.8443 -0.1119
vn 0.0037 0.5128 -0.8585
vn 0.5844 0.2484 -0.7725
vn 0.0060 0.0319 0.9995
vn -0.2307 -0.1271 0.9647
vn 0.1546 -0.2690 0.9507
vn 0.9610 0.1084 0.2543
vn -0.9445 0.1920 0.2666
vn -0.0581 0.4111 0.9097
vn -0.3398 0.2580 0.9044
vn 0.1400 -0.2975 0.9444
vn 0.1887 0.8425 0.5045
vn -0.4925 0.8178 0.2977
vn -0.4645 -0.8633 0.1975
vn -0.4066 -0.0469 0.9124
vn 0.1253 -0.0434 0.9912
vn 0.7294 0.4178 0.5416
vn 0.0301 0.2189 0.9753
vn -0.2271 -0.2528 0.9405
vn 0.9087 0.1867 -0.3734
vn -0.2545 -0.7759 -0.5773
vn 0.4262 0.8281 -0.3641
vn -0.4835 0.7604 -0.4335
vn 0.3785 0.8986 -0.2219
vn 0.9254 -0.2057 -0.3184
vn -0.7731 -0.3513 -0.5282
vn 0.6990 -0.6637 -0.2662
vn -0.4289 -0.7079 -0.5611
vn -0.7914 0.1175 -0.5998
vn -0.7992 0.2288 -0.5558
vn -0.3916 0.8833 -0.2579
vn 0.9360 0.3306 -0.1208
vn 0.4603 -0.6619 -0.5916
vn -0.8780 0.1119 0.4654
vn 0.9797 0.1971 0.0362
vn 0.4241 0.8645 -0.2699
vn 0.4415 0.8848 0.1491
vn -0.9723 -0.2051 0.1118
vn 0.5794 -0.7879 -0.2087
vn -0.5238 0.8426 -0.1252
vn 0.6414 -0.7288 -0.2398
vn -0.5844 0.8107 0.0358
vn 0.8918 0.2822 -0.3537
vn 0.9851 -0.1561 0.0726
vn 0.2801 0.7709 -0.5721
vn 0.4695 0.8545 -0.2223
vn -0.3594 -0.9260 0.1155
vn -0.5160 -0.7481 0.4173
vn -0.4081 -0.6812 -0.6078
vn -0.8831 -0.3863 0.2661
vn 0.0024 -0.0230 0.9997
vn -0.9711 -0.2087 -0.1160
vn -0.9452 0.2689 -0.1853
vn -0.4296 0.6424 -0.6346
vn 0.9811 -0.1914 -0.0296
vn 0.4472 -0.8717 0.2006
vn -0.7767 -0.6298 0.0007
vn 0.0249 0.8622 0.5060
vn 0.8287 0.3088 0.4668
vn 0.4829 -0.8249 0.2938
vn -0.1104 -0.2157 0.9702
vn 0.6866 -0.7270 -0.0062
vn 0.3651 0.8929 0.2635
vn -0.5853 0.8105 0.0210
vn 0.3782 -0.7597 -0.5289
vn 0.5411 -0.7205 -0.4337
vn -0.2967 -0.9209 -0.2530
vn 0.0061 0.1849 0.9827
vn -0.2498 -0.0648 0.9661
vn -0.4087 0.8866 0.2167
vn -0.1604 -0.9340 0.3192
vn -0.3518 -0.9170 0.1878
vn -0.5234 0.8450 -0.1095
vn 0.0517 -0.0109 0.9986
vn -0.2273 -0.1234 0.9660
vn 0.9629 0.1268 0.2381
vn 0.0288 -0.0368 0.9989
vn 0.1177 -0.2728 0.9548
vn -0.6164 0.6504 0.4439
vn 0.9085 0.1871 -0.3736
vn 0.4431 0.8261 -0.3483
vn 0.9258 -0.1758 -0.3346
vn -0.7914 0.1176 -0.5999
vn -0.4134 0.8839 -0.2189
vn 0.9291 0.3404 -0.1447
vn -0.8749 0.1085 0.4720
vn 0.9834 0.1810 0.0088
vn 0.3924 0.7032 -0.5929
vn -0.4863 -0.7353 0.4721
usemtl None
s off
f 22/1/1 79/2/1 84/3/1
f 25/4/2 5/5/2 4/6/2
f 44/7/3 91/8/3 50/9/3
f 61/10/4 1/11/4 16/12/4
f 52/13/5 51/14/5 61/10/5
f 61/10/6 17/15/6 13/16/6
f 20/17/7 42/18/7 41/19/7
f 20/17/8 41/19/8 40/20/8
f 59/21/9 45/22/9 38/23/9
f 57/24/10 19/25/10 58/26/10
f 21/27/11 39/28/11 42/18/11
f 57/24/12 39/28/12 21/27/12
f 24/29/13 2/30/13 30/31/13
f 30/31/14 53/32/14 22/1/14
f 8/33/15 2/34/15 24/35/15
f 30/31/16 71/36/16 73/37/16
f 62/38/17 26/39/17 10/40/17
f 26/39/18 34/41/18 10/40/18
f 10/40/19 34/41/19 11/42/19
f 9/43/20 34/41/20 26/39/20
f 64/44/21 22/1/21 49/45/21
f 36/46/22 35/47/22 55/48/22
f 36/46/23 32/49/23 54/50/23
f 10/40/24 11/42/24 28/51/24
f 6/52/25 58/26/25 48/53/25
f 56/54/26 38/23/26 7/55/26
f 41/19/27 52/13/27 18/56/27
f 20/17/28 103/57/28 21/27/28
f 53/32/29 79/2/29 22/1/29
f 12/58/30 89/59/30 46/60/30
f 46/60/31 89/59/31 82/61/31
f 46/62/32 78/63/32 92/64/32
f 45/22/33 92/64/33 98/65/33
f 3/66/34 81/67/34 80/68/34
f 5/5/35 87/69/35 4/6/35
f 22/1/36 91/8/36 49/45/36
f 23/70/37 1/71/37 14/72/37
f 61/10/38 51/14/38 17/15/38
f 56/54/39 47/73/39 59/21/39
f 57/24/40 6/52/40 13/16/40
f 60/74/41 20/17/41 40/20/41
f 38/23/42 45/22/42 43/75/42
f 19/76/43 45/22/43 59/21/43
f 4/6/44 63/77/44 67/78/44
f 54/50/45 71/79/45 65/80/45
f 29/81/46 66/82/46 28/51/46
f 31/83/47 76/84/47 67/85/47
f 55/86/48 34/41/48 9/43/48
f 35/47/49 28/51/49 37/87/49
f 54/50/50 75/88/50 29/81/50
f 72/89/51 27/90/51 9/91/51
f 8/33/52 68/92/52 70/93/52
f 33/94/53 32/49/53 55/48/53
f 35/47/54 37/87/54 55/86/54
f 37/87/55 34/41/55 55/86/55
f 11/42/56 34/41/56 37/87/56
f 32/49/57 36/46/57 55/48/57
f 54/50/58 29/81/58 36/46/58
f 6/52/59 57/24/59 58/26/59
f 56/54/60 59/21/60 38/23/60
f 60/74/61 38/23/61 43/75/61
f 60/74/62 40/20/62 38/23/62
f 20/17/63 104/95/63 101/96/63
f 60/74/64 99/97/64 102/98/64
f 19/76/65 100/99/65 45/22/65
f 96/100/66 12/58/66 46/60/66
f 13/16/67 1/11/67 61/10/67
f 6/52/68 48/53/68 13/16/68
f 56/54/69 23/101/69 47/73/69
f 56/54/70 7/55/70 23/101/70
f 23/101/71 7/55/71 16/12/71
f 16/12/72 7/55/72 18/56/72
f 52/13/73 16/12/73 18/56/73
f 3/66/74 80/68/74 85/102/74
f 99/97/75 81/67/75 87/69/75
f 5/5/76 88/103/76 83/104/76
f 59/21/77 47/73/77 48/105/77
f 20/17/78 21/27/78 42/18/78
f 21/27/79 19/25/79 57/24/79
f 30/31/80 2/30/80 53/32/80
f 9/91/81 74/106/81 72/89/81
f 8/33/82 15/107/82 2/34/82
f 49/45/83 69/108/83 75/109/83
f 10/40/84 77/110/84 62/38/84
f 10/40/85 28/51/85 31/83/85
f 54/50/86 32/49/86 27/90/86
f 33/94/87 27/90/87 32/49/87
f 27/90/88 33/94/88 55/48/88
f 9/91/89 27/90/89 55/48/89
f 57/24/90 17/15/90 39/28/90
f 48/105/91 58/111/91 59/21/91
f 51/14/92 52/13/92 41/19/92
f 17/15/93 51/14/93 42/18/93
f 21/27/94 103/57/94 93/112/94
f 14/113/95 1/11/95 13/16/95
f 47/73/96 14/114/96 48/105/96
f 16/12/97 52/13/97 61/10/97
f 46/62/98 82/115/98 90/116/98
f 23/70/99 16/117/99 1/71/99
f 57/24/100 13/16/100 17/15/100
f 25/4/101 49/45/101 5/5/101
f 3/66/102 63/77/102 4/6/102
f 8/33/103 3/66/103 15/107/103
f 29/81/104 28/51/104 35/47/104
f 11/42/105 37/87/105 28/51/105
f 66/82/106 31/83/106 28/51/106
f 68/118/107 9/43/107 26/39/107
f 36/46/108 29/81/108 35/47/108
f 17/15/109 42/18/109 39/28/109
f 7/55/110 38/23/110 18/56/110
f 38/23/111 40/20/111 18/56/111
f 51/14/112 41/19/112 42/18/112
f 19/76/113 59/21/113 58/111/113
f 18/56/114 40/20/114 41/19/114
f 60/74/115 104/95/115 20/17/115
f 96/100/116 19/25/116 21/27/116
f 14/113/117 13/16/117 48/53/117
f 47/73/118 23/101/118 14/114/118
f 71/36/119 22/1/119 65/119/119
f 62/120/120 3/66/120 8/33/120
f 73/37/121 72/121/121 30/31/121
f 73/122/122 54/50/122 27/90/122
f 63/123/123 77/110/123 10/40/123
f 76/124/124 4/6/124 67/78/124
f 76/124/125 66/125/125 25/4/125
f 72/121/126 24/29/126 30/31/126
f 75/88/127 69/126/127 29/81/127
f 63/123/128 31/83/128 67/85/128
f 70/127/129 68/118/129 26/39/129
f 70/93/130 62/120/130 8/33/130
f 75/109/131 64/44/131 49/45/131
f 65/80/132 64/128/132 54/50/132
f 66/125/133 69/108/133 25/4/133
f 74/129/134 68/92/134 24/35/134
f 85/102/135 94/130/135 98/65/135
f 83/104/136 88/103/136 44/7/136
f 90/116/137 2/34/137 15/107/137
f 89/59/138 86/131/138 53/32/138
f 78/63/139 90/116/139 15/107/139
f 80/68/140 97/132/140 94/130/140
f 91/8/141 84/3/141 50/9/141
f 87/69/142 81/67/142 4/6/142
f 91/8/143 88/103/143 49/45/143
f 79/2/144 50/9/144 84/3/144
f 79/2/145 86/131/145 12/58/145
f 89/59/146 2/30/146 82/61/146
f 85/102/147 15/107/147 3/66/147
f 87/69/148 83/104/148 44/7/148
f 103/57/149 12/58/149 93/112/149
f 94/130/150 45/22/150 98/65/150
f 100/99/151 95/133/151 46/62/151
f 100/99/152 92/64/152 45/22/152
f 103/57/153 101/96/153 50/9/153
f 97/132/154 99/97/154 43/75/154
f 95/134/155 96/100/155 46/60/155
f 102/98/156 99/97/156 44/7/156
f 93/112/157 96/100/157 21/27/157
f 98/65/158 78/63/158 85/102/158
f 94/130/159 97/132/159 43/75/159
f 78/63/160 46/62/160 90/116/160
f 92/64/161 100/99/161 46/62/161
f 104/95/162 102/98/162 44/7/162
f 104/95/163 50/9/163 101/96/163
f 44/7/164 88/103/164 91/8/164
f 62/38/165 70/127/165 26/39/165
f 64/44/166 65/119/166 22/1/166
f 20/17/167 101/96/167 103/57/167
f 53/32/168 86/131/168 79/2/168
f 12/58/169 86/131/169 89/59/169
f 3/66/170 4/6/170 81/67/170
f 5/5/171 83/104/171 87/69/171
f 22/1/172 84/3/172 91/8/172
f 29/81/173 69/126/173 66/82/173
f 54/50/174 64/128/174 75/88/174
f 72/89/175 73/122/175 27/90/175
f 8/33/176 24/35/176 68/92/176
f 60/74/177 43/75/177 99/97/177
f 19/76/178 95/133/178 100/99/178
f 96/100/179 93/112/179 12/58/179
f 87/69/180 44/7/180 99/97/180
f 99/97/181 97/132/181 81/67/181
f 5/5/182 49/45/182 88/103/182
f 49/45/183 25/4/183 69/108/183
f 3/66/184 77/135/184 63/77/184
f 66/82/185 76/84/185 31/83/185
f 68/118/186 74/136/186 9/43/186
f 60/74/187 102/98/187 104/95/187
f 96/100/188 95/134/188 19/25/188
f 71/36/189 30/31/189 22/1/189
f 62/120/190 77/135/190 3/66/190
f 73/122/191 71/79/191 54/50/191
f 76/124/192 25/4/192 4/6/192
f 72/121/193 74/137/193 24/29/193
f 63/123/194 10/40/194 31/83/194
f 85/102/195 80/68/195 94/130/195
f 90/116/196 82/115/196 2/34/196
f 80/68/197 81/67/197 97/132/197
f 79/2/198 12/58/198 50/9/198
f 89/59/199 53/32/199 2/30/199
f 85/102/200 78/63/200 15/107/200
f 103/57/201 50/9/201 12/58/201
f 94/130/202 43/75/202 45/22/202
f 98/65/203 92/64/203 78/63/203
f 104/95/204 44/7/204 50/9/204
