# Blender v2.82 (sub 7) OBJ File: 'DungeonGroblinBlendfile.blend'
# www.blender.org
mtllib Vase02.mtl
o Vase_02_Cylinder.006
v -6.579178 3.010418 0.025551
v 6.251822 -6.461545 40.553909
v 0.853219 -9.269908 40.085873
v -5.970683 -7.139421 40.078545
v 8.942907 -8.695417 6.355955
v 0.598132 6.256161 28.445400
v 7.490398 -1.090253 40.102604
v -4.992811 -5.928158 40.347073
v -2.425761 2.362635 27.676270
v 6.343408 5.304290 40.517281
v 0.180075 8.552173 40.633411
v 0.781975 3.523225 29.413074
v 3.472584 -0.828836 27.738056
v 4.046784 8.442070 14.013940
v 8.584389 3.978288 14.631839
v 8.900076 -3.175784 14.570065
v 1.756571 -9.108407 14.683355
v 6.730380 -9.101032 17.851744
v -1.435880 -11.114378 17.966459
v -7.921732 -8.610054 16.443935
v -4.788289 3.899743 33.695332
v -3.473902 9.136319 2.477196
v 5.061691 6.806921 0.562416
v 7.219270 5.823623 40.073547
v 9.274609 -0.776471 40.042210
v -0.327889 -8.361893 0.716084
v -9.818842 8.335595 9.710390
v -0.460167 12.843147 9.034159
v 12.907553 -0.834586 9.743977
v 9.634953 -6.290768 17.114910
v 0.892483 -12.913499 9.268348
v -0.383889 6.233264 33.544930
v 6.128414 0.552727 28.331863
v -6.498837 -0.348248 27.625099
v -9.301893 -0.807610 40.237671
v 6.058955 -4.440757 0.322914
v -7.909489 -0.199952 40.280540
v 0.358478 -7.872186 40.276657
v 2.311284 1.767457 30.581642
v -3.897448 -0.015974 27.700726
v -2.083122 -3.537242 27.770821
v -0.062653 9.939620 14.495399
v -0.073686 -3.979232 28.353912
v 4.527855 -4.643926 36.440323
v -8.612818 3.339845 14.410269
v -4.776283 8.111739 14.332205
v -4.749589 -8.107945 14.712013
v -9.033064 -2.900518 14.431315
v -6.961289 6.279436 21.580173
v 9.844432 0.769535 20.824949
v -12.295868 1.506044 14.510319
v -11.350881 -4.167284 15.395567
v 9.205013 8.347254 14.483675
v 0.251473 -6.204016 33.490654
v -4.483144 -4.339433 33.629555
v 4.796122 4.275048 33.981888
v 10.008198 7.072744 6.775169
v -11.754876 -1.580728 5.907919
v -6.391334 0.225128 33.981987
v 4.520381 -4.724665 32.912498
v -8.453625 -9.692922 7.774056
v -11.004208 3.825989 5.862331
v -4.491818 -4.485644 28.450668
v -0.526330 -6.440897 28.311230
v 4.040890 -4.513110 27.753254
v 4.196749 4.516643 28.447140
v -6.640751 6.620938 39.665604
v 0.208856 9.826035 39.567505
v -5.417239 5.849113 40.550903
v 2.398917 -3.211368 24.195766
v -0.817869 7.071154 11.623343
v 0.448332 -6.826159 11.572541
v 6.941887 0.503873 11.657932
v -6.874817 -1.017614 11.667041
v -5.023270 11.782497 10.526660
v 4.652210 11.891769 10.483970
v 11.140912 4.980597 14.516459
v -4.024121 5.677898 26.989454
v 1.966673 9.950446 20.189045
v 6.536731 -0.386880 33.961842
v 8.581251 0.243336 0.663904
v -5.895315 -6.886126 1.029774
vt 0.405885 0.813139
vt 0.429387 0.718412
vt 0.513942 0.842908
vt 0.547374 0.138309
vt 0.531068 0.129287
vt 0.559887 0.045676
vt 0.148599 0.241149
vt 0.094461 0.376973
vt 0.111197 0.188625
vt 0.199356 0.229785
vt 0.190570 0.306782
vt 0.172024 0.135390
vt 0.215417 0.532585
vt 0.145647 0.538527
vt 0.213803 0.491794
vt 0.224931 0.454796
vt 0.171218 0.457547
vt 0.219338 0.403396
vt 0.241280 0.335379
vt 0.188380 0.361906
vt 0.246699 0.143607
vt 0.387101 0.225056
vt 0.248566 0.224565
vt 0.392842 0.034264
vt 0.379968 0.136414
vt 0.188359 0.766705
vt 0.342883 0.804410
vt 0.184549 0.845179
vt 0.379348 0.599550
vt 0.253677 0.673533
vt 0.226298 0.584323
vt 0.381088 0.518682
vt 0.279650 0.521074
vt 0.371606 0.429549
vt 0.305658 0.404250
vt 0.382507 0.308123
vt 0.544658 0.217249
vt 0.523858 0.215372
vt 0.541949 0.306619
vt 0.521408 0.298387
vt 0.554288 0.523174
vt 0.531368 0.521626
vt 0.559887 0.412426
vt 0.109797 0.609376
vt 0.027974 0.631071
vt 0.541975 0.738077
vt 0.515845 0.728141
vt 0.539087 0.635086
vt 0.529966 0.408698
vt 0.522972 0.636215
vt 0.590782 0.108133
vt 0.617728 0.000123
vt 0.728978 0.080748
vt 0.892708 0.085591
vt 0.746312 0.140905
vt 0.896829 0.142807
vt 0.802322 0.535223
vt 0.999877 0.483038
vt 0.809481 0.579731
vt 0.920882 0.006741
vt 0.743755 0.269202
vt 0.785584 0.202293
vt 0.936563 0.236445
vt 0.619757 0.189462
vt 0.944486 0.410410
vt 0.989949 0.414719
vt 0.966666 0.445061
vt 0.976967 0.208332
vt 0.920337 0.111954
vt 0.999877 0.014264
vt 0.933326 0.350666
vt 0.963145 0.274715
vt 0.912532 0.344237
vt 0.911576 0.303813
vt 0.921033 0.379515
vt 0.788837 0.460773
vt 0.164803 0.662629
vt 0.045867 0.759527
vt 0.220538 0.000123
vt 0.063453 0.030997
vt 0.361971 0.688515
vt 0.244574 0.280530
vt 0.445055 0.225126
vt 0.449805 0.317556
vt 0.442813 0.618317
vt 0.444606 0.504268
vt 0.452794 0.398273
vt 0.454075 0.037288
vt 0.445513 0.127427
vt 0.213469 0.619523
vt 0.182332 0.584243
vt 0.560132 0.186959
vt 0.773467 0.401920
vt 0.640815 0.526681
vt 0.616618 0.451686
vt 0.593705 0.364718
vt 0.580142 0.278693
vt 0.755951 0.312672
vt 0.669544 0.595601
vt 0.719358 0.658960
vt 0.000123 0.141104
vn 0.8943 -0.3476 -0.2817
vn -0.0131 -0.1398 0.9901
vn -0.0840 -0.1063 -0.9908
vn -0.7745 -0.4233 -0.4700
vn -0.2269 -0.8656 -0.4463
vn 0.2813 0.8587 -0.4285
vn -0.5048 0.7865 -0.3557
vn -0.9845 0.1358 -0.1106
vn -0.4103 -0.8201 0.3989
vn 0.4003 -0.8478 0.3478
vn 0.6766 -0.5806 0.4528
vn 0.8179 0.4082 0.4054
vn 0.3929 0.8133 0.4291
vn -0.7958 0.3768 0.4740
vn -0.0552 -0.1734 0.9833
vn -0.0161 -0.0336 0.9993
vn -0.3076 0.6147 0.7263
vn 0.0818 0.0285 -0.9962
vn 0.0438 -0.0568 0.9974
vn -0.4690 0.2336 0.8518
vn 0.2947 0.6093 0.7361
vn -0.8855 -0.1864 0.4257
vn -0.9299 -0.0133 -0.3676
vn -0.9262 -0.0376 -0.3751
vn -0.5736 -0.7372 -0.3571
vn -0.6339 -0.6921 -0.3452
vn -0.7306 0.6013 -0.3234
vn -0.8604 0.4200 0.2885
vn 0.2555 -0.7168 0.6487
vn -0.0082 -0.0044 1.0000
vn -0.4533 0.3922 0.8004
vn -0.8529 -0.0421 0.5203
vn 0.0108 -0.0027 0.9999
vn 0.4405 0.5438 0.7143
vn 0.1292 0.8247 0.5507
vn 0.7185 -0.5838 -0.3781
vn 0.3450 -0.8550 -0.3873
vn -0.8203 0.4968 0.2835
vn -0.5916 0.7583 0.2738
vn 0.1160 0.9673 0.2256
vn 0.8835 -0.4660 0.0473
vn 0.4806 -0.8748 0.0616
vn 0.2348 -0.9375 0.2568
vn -0.3387 -0.9353 0.1028
vn 0.8709 -0.2486 0.4239
vn -0.9155 -0.0914 0.3918
vn -0.9007 -0.4342 0.0138
vn -0.9200 -0.3885 0.0506
vn -0.4413 -0.8970 0.0261
vn 0.9239 -0.3692 -0.1010
vn 0.9333 0.3488 -0.0858
vn 0.8990 0.4379 0.0079
vn -0.1184 0.9928 -0.0183
vn -0.9170 0.3984 -0.0204
vn -0.9252 0.3794 -0.0048
vn -0.8853 0.2891 -0.3642
vn -0.4232 0.7677 -0.4812
vn -0.3848 0.8088 -0.4446
vn 0.3420 0.7918 -0.5060
vn 0.4776 0.7872 -0.3901
vn 0.8499 0.3191 -0.4192
vn 0.8827 0.2767 -0.3798
vn 0.7984 -0.4595 -0.3890
vn 0.4610 -0.8370 -0.2947
vn -0.2747 -0.8813 -0.3846
vn -0.8245 -0.4243 -0.3744
vn 0.0380 0.0246 -0.9990
vn -0.9863 -0.1647 -0.0029
vn 0.8668 0.4985 0.0079
vn 0.9436 0.3274 -0.0496
vn -0.9513 0.3021 -0.0610
vn -0.8640 -0.3461 0.3657
vn -0.8547 0.2359 0.4624
vn 0.8841 -0.3766 0.2765
vn 0.8067 -0.4958 0.3217
vn 0.3309 0.9005 0.2820
vn 0.1489 0.9646 0.2178
vn -0.2262 0.8524 0.4714
vn 0.3006 0.8794 -0.3692
vn 0.1420 0.9329 -0.3310
vn -0.3566 -0.8654 -0.3520
vn 0.8539 0.4381 0.2809
vn 0.8516 0.4443 0.2781
vn 0.3951 -0.8302 0.3933
vn 0.1793 -0.9383 0.2958
vn -0.4316 -0.8316 0.3496
vn 0.4666 -0.3450 0.8144
vn -0.4845 0.5956 0.6407
vn -0.5065 -0.4099 0.7586
vn 0.7781 -0.4855 -0.3986
vn 0.8159 0.4123 -0.4054
vn -0.4466 0.8297 0.3348
vn -0.2471 0.9036 0.3500
vn 0.4178 0.8617 0.2880
vn 0.4801 0.7867 0.3880
vn 0.2188 -0.8613 0.4585
vn -0.3622 -0.9270 0.0968
vn 0.3802 -0.9220 -0.0731
vn 0.3267 -0.9451 -0.0058
vn 0.3475 0.9350 0.0711
vn -0.7855 0.1039 -0.6100
vn -0.6315 0.5420 -0.5545
vn 0.1115 0.8423 -0.5274
vn 0.8966 0.1762 -0.4063
vn 0.7264 -0.3480 -0.5927
vn 0.8635 -0.2456 -0.4406
vn 0.3696 -0.6669 -0.6470
vn 0.2633 -0.8355 -0.4822
vn -0.2542 -0.8683 -0.4259
vn 0.6449 0.7620 -0.0588
vn 0.4499 0.8022 -0.3925
vn -0.3194 0.8803 -0.3509
vn -0.3924 -0.8248 0.4071
vn 0.7908 -0.3806 0.4794
vn 0.8214 0.3881 0.4178
vn -0.2281 0.9023 0.3659
vn -0.2416 0.5410 0.8056
vn -0.0137 -0.0390 0.9991
vn -0.7644 -0.6001 0.2357
vn -0.9694 0.1587 0.1871
vn -0.3215 -0.3753 0.8694
vn -0.1624 -0.6765 0.7183
vn 0.4077 0.3801 0.8302
vn -0.5313 0.7687 -0.3560
vn 0.4999 -0.7599 -0.4155
vn 0.9415 -0.1783 0.2861
vn -0.3847 -0.9127 0.1376
vn -0.8474 0.3243 0.4204
vn 0.7694 0.4469 0.4564
vn -0.4558 0.8718 0.1792
vn -0.6971 -0.1199 -0.7069
vn -0.0918 0.4097 -0.9076
vn -0.8451 0.3363 -0.4155
vn 0.2439 -0.8707 -0.4270
vn -0.3403 -0.8313 -0.4394
vn -0.8390 -0.3166 -0.4426
vn -0.0181 -0.0705 -0.9973
vn -0.9187 -0.3893 -0.0670
vn -0.0413 -0.1495 0.9879
vn -0.1740 -0.0772 0.9817
vn 0.0198 0.0792 0.9967
vn 0.3923 0.1178 0.9123
vn 0.2220 0.3894 0.8939
vn -0.5903 0.7033 -0.3961
vn -0.0870 0.9876 0.1307
vn -0.3979 0.8678 0.2978
vn -0.7978 -0.3876 0.4618
vn 0.4443 -0.3437 0.8274
vn 0.8041 -0.0522 0.5923
vn 0.9353 -0.0642 -0.3480
vn 0.7317 0.5828 -0.3534
vn -0.1312 0.9523 0.2755
vn 0.9635 0.0841 0.2542
vn 0.7055 -0.7000 0.1111
vn -0.7994 -0.5881 0.1225
vn -0.7555 -0.4773 0.4488
vn 0.9107 -0.3915 -0.1314
vn 0.4352 0.9003 -0.0078
vn -0.6383 0.5898 -0.4946
vn 0.7172 0.3755 -0.5871
usemtl None
s off
f 60/1/1 80/2/1 2/3/1
f 38/4/2 3/5/2 2/6/2
f 82/7/3 1/8/3 26/9/3
f 82/7/4 61/10/4 58/11/4
f 31/12/5 61/10/5 82/7/5
f 76/13/6 23/14/6 28/15/6
f 75/16/7 22/17/7 27/18/7
f 51/19/8 62/20/8 58/11/8
f 19/21/9 63/22/9 20/23/9
f 65/24/10 64/25/10 19/21/10
f 30/26/11 65/27/11 18/28/11
f 66/29/12 50/30/12 53/31/12
f 6/32/13 66/29/13 79/33/13
f 78/34/14 49/35/14 34/36/14
f 8/37/15 4/38/15 3/5/15
f 37/39/16 35/40/16 4/38/16
f 11/41/17 68/42/17 69/43/17
f 81/44/18 36/45/18 23/14/18
f 7/46/19 25/47/19 10/48/19
f 69/43/20 67/49/20 35/40/20
f 24/50/21 68/42/21 11/41/21
f 7/51/22 10/52/22 39/53/22
f 39/53/23 15/54/23 13/55/23
f 13/55/24 15/54/24 16/56/24
f 12/57/25 14/58/25 39/59/25
f 39/53/26 14/60/26 15/54/26
f 43/61/27 70/62/27 17/63/27
f 13/55/28 44/64/28 7/51/28
f 46/65/29 71/66/29 42/67/29
f 72/68/30 73/69/30 71/70/30
f 16/56/31 73/69/31 72/68/31
f 15/54/32 73/69/32 16/56/32
f 74/71/33 72/72/33 71/66/33
f 48/73/34 72/72/34 74/71/34
f 17/63/35 72/72/35 47/74/35
f 45/75/36 46/65/36 9/76/36
f 12/57/37 46/65/37 42/67/37
f 49/35/38 27/18/38 51/19/38
f 49/35/39 75/16/39 27/18/39
f 79/33/40 76/13/40 28/15/40
f 29/77/41 30/26/41 5/78/41
f 18/79/42 31/12/42 5/80/42
f 19/21/43 31/12/43 18/79/43
f 19/21/44 61/10/44 31/12/44
f 33/81/45 30/26/45 50/30/45
f 51/19/46 52/82/46 34/36/46
f 55/83/47 34/36/47 63/22/47
f 59/84/48 34/36/48 55/83/48
f 63/22/49 64/25/49 55/83/49
f 60/1/50 65/27/50 33/81/50
f 56/85/51 80/2/51 66/29/51
f 66/29/52 80/2/52 33/81/52
f 78/34/53 32/86/53 6/32/53
f 59/84/54 21/87/54 34/36/54
f 34/36/55 21/87/55 78/34/55
f 67/49/56 59/84/56 35/40/56
f 21/87/57 67/49/57 32/86/57
f 32/86/58 67/49/58 68/42/58
f 32/86/59 68/42/59 56/85/59
f 56/85/60 68/42/60 24/50/60
f 56/85/61 24/50/61 80/2/61
f 80/2/62 24/50/62 25/47/62
f 80/2/63 25/47/63 2/3/63
f 3/5/64 60/88/64 2/6/64
f 4/38/65 54/89/65 3/5/65
f 35/40/66 55/83/66 4/38/66
f 36/45/67 1/8/67 23/14/67
f 51/19/68 58/11/68 52/82/68
f 77/90/69 57/91/69 53/31/69
f 29/77/70 57/91/70 77/90/70
f 27/18/71 62/20/71 51/19/71
f 63/22/72 34/36/72 20/23/72
f 2/92/73 7/51/73 44/64/73
f 40/93/74 69/94/74 37/95/74
f 9/76/75 69/94/75 40/93/75
f 43/61/76 8/96/76 38/97/76
f 41/98/77 8/96/77 43/61/77
f 44/64/78 38/97/78 2/92/78
f 41/98/79 43/61/79 47/74/79
f 47/74/80 43/61/80 17/63/80
f 42/67/81 14/58/81 12/57/81
f 41/98/82 37/95/82 8/96/82
f 40/93/83 37/95/83 41/98/83
f 11/99/84 69/94/84 12/57/84
f 12/57/85 69/94/85 9/76/85
f 11/99/86 12/57/86 10/100/86
f 46/65/87 74/71/87 71/66/87
f 16/56/88 72/68/88 17/63/88
f 14/60/89 73/69/89 15/54/89
f 9/76/90 40/93/90 45/75/90
f 40/93/91 41/98/91 48/73/91
f 78/34/92 75/16/92 49/35/92
f 79/33/93 75/16/93 78/34/93
f 53/31/94 76/13/94 79/33/94
f 53/31/95 79/33/95 66/29/95
f 18/79/96 65/24/96 19/21/96
f 64/25/97 54/89/97 55/83/97
f 65/24/98 60/88/98 64/25/98
f 64/25/99 60/88/99 54/89/99
f 56/85/100 6/32/100 32/86/100
f 62/20/101 1/8/101 58/11/101
f 1/8/102 62/20/102 22/17/102
f 28/15/103 23/14/103 22/17/103
f 29/77/104 81/44/104 57/91/104
f 81/44/105 5/78/105 36/45/105
f 29/77/106 5/78/106 81/44/106
f 36/101/107 5/80/107 26/9/107
f 26/9/108 5/80/108 31/12/108
f 82/7/109 26/9/109 31/12/109
f 53/31/110 57/91/110 76/13/110
f 57/91/111 23/14/111 76/13/111
f 28/15/112 22/17/112 75/16/112
f 64/25/113 63/22/113 19/21/113
f 33/81/114 65/27/114 30/26/114
f 66/29/115 33/81/115 50/30/115
f 6/32/116 79/33/116 78/34/116
f 69/43/117 68/42/117 67/49/117
f 37/39/118 69/43/118 35/40/118
f 39/53/119 13/55/119 7/51/119
f 13/55/120 70/62/120 44/64/120
f 73/69/121 14/60/121 71/70/121
f 42/67/122 71/66/122 14/58/122
f 48/73/123 47/74/123 72/72/123
f 13/55/124 16/56/124 70/62/124
f 9/76/125 46/65/125 12/57/125
f 50/30/126 30/26/126 29/77/126
f 19/21/127 20/23/127 61/10/127
f 34/36/128 49/35/128 51/19/128
f 53/31/129 50/30/129 77/90/129
f 78/34/130 21/87/130 32/86/130
f 82/7/131 58/11/131 1/8/131
f 23/14/132 1/8/132 22/17/132
f 21/87/133 59/84/133 67/49/133
f 54/89/134 60/88/134 3/5/134
f 55/83/135 54/89/135 4/38/135
f 59/84/136 55/83/136 35/40/136
f 36/101/137 26/9/137 1/8/137
f 52/82/138 58/11/138 61/10/138
f 38/4/139 8/37/139 3/5/139
f 8/37/140 37/39/140 4/38/140
f 7/46/141 2/3/141 25/47/141
f 10/48/142 25/47/142 24/50/142
f 24/50/143 11/41/143 10/48/143
f 16/56/144 17/63/144 70/62/144
f 70/62/145 43/61/145 44/64/145
f 43/61/146 38/97/146 44/64/146
f 10/100/147 12/57/147 39/59/147
f 46/65/148 45/75/148 74/71/148
f 45/75/149 48/73/149 74/71/149
f 45/75/150 40/93/150 48/73/150
f 48/73/151 41/98/151 47/74/151
f 79/33/152 28/15/152 75/16/152
f 50/30/153 29/77/153 77/90/153
f 5/78/154 30/26/154 18/28/154
f 61/10/155 20/23/155 52/82/155
f 20/23/156 34/36/156 52/82/156
f 60/1/157 33/81/157 80/2/157
f 6/32/158 56/85/158 66/29/158
f 27/18/159 22/17/159 62/20/159
f 57/91/160 81/44/160 23/14/160
